<?xml version="1.0" standalone="no"?><!DOCTYPE svg PUBLIC "-//W3C//DTD SVG 1.1//EN" "http://www.w3.org/Graphics/SVG/1.1/DTD/svg11.dtd" ><svg xmlns="http://www.w3.org/2000/svg"><metadata></metadata><defs><font id="HYShuHunJ" horiz-adv-x="2048"><font-face font-family="HYShuHunJ" font-weight="400" font-stretch="normal" units-per-em="2048" panose-1="2 1 6 0 0 1 1 1 1 1" ascent="1638" descent="-409" x-height="1" bbox="25 -336 2022 1561" underline-thickness="102" underline-position="-307" unicode-range="U+4e0d-9884" /><missing-glyph horiz-adv-x="2048" d="M352 1221 l55 -12 q69 -16 98 -23 l119 -37 q29 -9 30 -16.5 q1 -7.5 -6 -21.5 q-13 -24 -22 -52 q-9 -28 -19.5 -92.5 q-10.5 -64.5 -7 -193.5 q3.5 -129 4.5 -179.5 q1 -50.5 -2 -98.5 q-6 -72 -22 -129 q-16 -57 -34 -94.5 q-18 -37.5 -37.5 -65.5 q-19.5 -28 -30.5 -26 q-10 1 -26.5 30.5 q-16.5 29.5 -33.5 76 q-17 46.5 -27 87 q-10 40.5 -14 94.5 q-4 54 -3 110 l8 191 q3 103 -3 192 q-4 45 -10 86.5 q-6 41.5 -15 77 q-9 35.5 -24.5 54.5 q-15.5 19 -16 29 q-0.5 10 8.5 13.5 q9 3.5 30 -0.5 ZM376 27 l-30 57 q-14 24 -12.5 35.5 q1.5 11.5 9 15 q7.5 3.5 44.5 -13.5 l46 -22 q48 -24 82.5 -45 q34.5 -21 111 -70.5 q76.5 -49.5 81.5 -64.5 q5 -15 -24 -62 q-44 -70 -44 -71 l-44 -54 q-23 -31 -36.5 -39.5 q-13.5 -8.5 -26.5 -4.5 q-16 3 -27.5 44 q-11.5 41 -34.5 94 l-57 128 q-11 21 -38 73 Z" /><glyph glyph-name="" unicode="&#x4e0d;" d="M896 1112 q-138 -26 -249 -53 q-111 -27 -296 -105 l-44 371 q231 -35 432.5 -38 q201.5 -3 417 24 q215.5 27 311.5 50 q96 23 237 81 l28 -331 q-181 26 -286.5 32 q-105.5 6 -411.5 -3 q61 -21 98 -34 q37 -13 57.5 -28 q20.5 -15 21.5 -24.5 q1 -9.5 -24 -25.5 l-32 -20 q-26 -18 -66 -65 l-83 -97 q45 -29 100 -59 q55 -30 72 -42 q17 -12 17.5 -22 q0.5 -10 -5.5 -23 q-23 -51 -31.5 -84.5 q-8.5 -33.5 -20 -161.5 q-11.5 -128 -8.5 -267 l7 -279 q-1 -35 -3.5 -91.5 q-2.5 -56.5 -15 -60.5 q-12.5 -4 -30.5 6 q-40 19 -95.5 85.5 q-55.5 66.5 -73 95.5 q-17.5 29 -20 47.5 q-2.5 18.5 16.5 78.5 q12 40 20 102 q8 62 13.5 217 q5.5 155 5.5 221 l-1 173 q-42 -70 -104 -164.5 q-62 -94.5 -241 -267 q-179 -172.5 -376 -234.5 l-57 -18 q-22 -7 -34 8.5 q-12 15.5 16 37.5 l52 40 q27 21 100.5 92.5 q73.5 71.5 104 104 q30.5 32.5 125 149.5 q94.5 117 128 166 q33.5 49 98.5 160 q65 111 81 148 l48 108 l0 0 ZM1289 809 l-28 39 q-18 24 -11 35.5 q7 11.5 26 2.5 l51 -26 q32 -17 225.5 -144.5 q193.5 -127.5 250.5 -180.5 q57 -53 60.5 -70.5 q3.5 -17.5 -12.5 -58.5 l-22 -60 q-27 -72 -54.5 -129.5 q-27.5 -57.5 -44 -60 q-16.5 -2.5 -52.5 66.5 q-20 36 -83.5 142.5 q-63.5 106.5 -96 158.5 q-32.5 52 -116.5 161.5 q-84 109.5 -93 123.5 Z" /><glyph glyph-name="" unicode="&#x4e16;" d="M929 862 q0 36 -0.5 58.5 q-0.5 22.5 -15 150.5 q-14.5 128 -25.5 160 q-11 32 -27.5 64.5 q-16.5 32.5 -27 45 q-10.5 12.5 -11 29 q-0.5 16.5 48.5 6.5 l66 -8 q25 -4 80.5 -18.5 q55.5 -14.5 93 -29.5 q37.5 -15 40 -22.5 q2.5 -7.5 -3.5 -25.5 q-9 -25 -19 -74.5 q-10 -49.5 -14 -78 q-4 -28.5 -6 -61.5 l-4 -84 l-6 -86 q169 30 205 38 q2 27 5.5 80 q3.5 53 2.5 152 q-2 100 -14 142.5 q-12 42.5 -27 76 q-15 33.5 -26 47.5 q-11 14 -10 32 q1 18 54 3 q5 -2 51.5 -11 q46.5 -9 101 -26.5 q54.5 -17.5 97.5 -37.5 q43 -20 45 -28 q2 -8 -4 -26 q-30 -78 -44.5 -143 q-14.5 -65 -32.5 -218 q166 41 316 116 l37 -304 q-262 -17 -381 -33 q-5 -32 -7.5 -50 q-2.5 -18 -17.5 -133 q-15 -115 -18 -152 l-5 -58 q-3 -33 -11.5 -51 q-8.5 -18 -24.5 -23 l-45 8 l-70 16 l-169 -10 q-37 -9 -67 -18.5 q-30 -9.5 -49 -9 q-19 0.5 -34 14.5 q-15 14 -13 56.5 q2 42.5 3 128.5 l1 108 q0 49 -2 86 l-2 32 q-205 -37 -210 -37 q-3 -38 -3.5 -60 q-0.5 -22 -0.5 -96 l-3 -243 l-2 -185 q175 25 368.5 50.5 q193.5 25.5 308.5 45.5 q115 20 182 44 l114 39 l40 -313 q-106 13 -248 23 q-142 10 -330 -18.5 q-188 -28.5 -301.5 -51.5 q-113.5 -23 -128.5 -29 l-103 -39 l-145 222 l44 95 q18 222 20 312 q2 90 0 144 l-1 25 q-111 -28 -158 -51 l-140 -66 l-84 325 q220 -18 362 -7 q0 40 -1.5 64 q-1.5 24 -10.5 74 q-9 50 -17.5 76.5 q-8.5 26.5 -25.5 56.5 q-17 30 -28 43 q-11 13 -11.5 30.5 q-0.5 17.5 51.5 7.5 q4 -1 73 -8 q69 -7 143 -35.5 q74 -28.5 77 -36.5 q3 -8 -3 -26 q-13 -39 -18 -68 q-5 -29 -22 -161 q126 9 198 23 ZM1296 735 q-94 -9 -180 -19 q-1 -22 0 -22 l4 -230 l151 17 q12 127 25 254 Z" /><glyph glyph-name="" unicode="&#x4e1a;" d="M745 49 q9 111 17 215.5 q8 104.5 10 181.5 l5 199 q-99 -107 -176.5 -180.5 q-77.5 -73.5 -143.5 -108 q-66 -34.5 -88.5 -19.5 q-22.5 15 -21.5 97 q0 80 3 117 l17 169 q4 69 20.5 107 q16.5 38 30.5 35 q10 -3 16.5 -22.5 q6.5 -19.5 10.5 -40.5 q4 -21 16 -76 q12 -55 34.5 -71 q22.5 -16 67.5 -9 q36 4 106.5 39 q70.5 35 107.5 72 q2 53 1.5 91.5 q-0.5 38.5 -9.5 163 q-9 124.5 -21.5 186 q-12.5 61.5 -28 98.5 q-15.5 37 -31.5 64 q-16 27 -33 44.5 q-17 17.5 -15.5 28 q1.5 10.5 67.5 5.5 q120 -10 205.5 -40 q85.5 -30 87.5 -37.5 q2 -7.5 -3 -24.5 q-8 -24 -19.5 -71 q-11.5 -47 -16.5 -80 q-5 -33 -6 -154 l-10 -267 q-2 -43 -5.5 -324 q-3.5 -281 -1.5 -328 l1 -48 l188 9 q1 124 2 229 q1 105 2.5 295 q1.5 190 1.5 302 q-1 112 -6 201.5 q-5 89.5 -18 166 q-13 76.5 -26.5 110.5 q-13.5 34 -30 63.5 q-16.5 29.5 -27.5 42 q-11 12.5 -12 29.5 q-1 17 52 7 q0 -1 67 -7.5 q67 -6.5 159 -37.5 q92 -31 94 -39.5 q2 -8.5 -5 -24.5 q-12 -28 -26 -70.5 q-14 -42.5 -22 -82.5 q-8 -40 -12 -149 l-10 -218 l-4 -268 q-2 -42 -1 -46 l0 -29 q56 80 93 145.5 q37 65.5 69 165.5 q32 100 41 166 q4 38 -2 89.5 q-6 51.5 4 54.5 q10 3 37 -10 q53 -28 132 -89.5 q79 -61.5 106 -85 q27 -23.5 27 -37.5 q-1 -11 -31 -35 q-30 -24 -69.5 -76 q-39.5 -52 -121 -139 q-81.5 -87 -176.5 -168 l-88 -74 l-21 -18 q0 -19 -0.5 -77 q-0.5 -58 0.5 -61 l11 -203 q321 50 378 78 l148 65 l32 -346 q-116 17 -185 22.5 q-69 5.5 -278.5 6 q-209.5 0.5 -395 -11.5 q-185.5 -12 -356.5 -44.5 q-171 -32.5 -393 -105.5 l-65 347 q92 -27 169 -41.5 q77 -14.5 375 -12.5 Z" /><glyph glyph-name="" unicode="&#x4e30;" d="M922 470 q2 27 3 41 l3 126 l1 29 q-228 -46 -384 -98 l-44 292 q87 -13 226 -21 q139 -8 202 -7 q2 58 2 67 l0 105 q-98 -13 -158.5 -26 q-60.5 -13 -308.5 -77 l-50 289 q105 -16 191 -25 q86 -9 321 -12 q-2 30 -6 86 q-4 56 -19.5 94 q-15.5 38 -33 71 q-17.5 33 -33 50 q-15.5 17 -10.5 28.5 q5 11.5 55 4.5 l57 -6 q77 -9 115.5 -20 q38.5 -11 87.5 -28.5 q49 -17.5 52 -25 q3 -7.5 -3 -25.5 q-10 -30 -21.5 -76.5 q-11.5 -46.5 -13.5 -68.5 l-8 -61 q113 16 209 39.5 q96 23.5 245 92.5 l27 -277 q-188 19 -267 15 q-79 -4 -223 -18 q-6 -89 -12 -176 q160 24 342 91 l40 -283 q-168 20 -390 20 q0 -23 0 -34 l-1 -136 l0 -28 q175 12 306.5 33.5 q131.5 21.5 196.5 42.5 l199 61 l28 -312 q-103 16 -224 29.5 q-121 13.5 -504 -3.5 q1 -76 1.5 -128 q0.5 -52 -0.5 -97 q-3 -66 -12 -140 q-9 -74 -29.5 -144.5 q-20.5 -70.5 -43.5 -101.5 q-23 -31 -34 -29 q-9 1 -25 24.5 q-16 23.5 -35 94.5 q-19 71 -27 142.5 q-8 71.5 -5 161.5 l5 202 q-273 -29 -403 -59 q-130 -30 -179 -52 l-132 -57 l-43 344 q96 -21 216 -38 q120 -17 551 14 Z" /><glyph glyph-name="" unicode="&#x4e4b;" d="M502 306 q69 54 198 172.5 q129 118.5 160.5 151 q31.5 32.5 286.5 306.5 q-357 -108 -493 -177 q-136 -69 -213 -135 l-158 322 q239 -12 422 25.5 q183 37.5 547 147.5 l67 94 l254 -236 q-74 -57 -131 -101 q-57 -44 -197.5 -148.5 q-140.5 -104.5 -228.5 -171 q-88 -66.5 -131 -96.5 l-163 -114 q-24 -18 -85 -66 q400 -103 521.5 -123 q121.5 -20 340.5 -43 q219 -23 384 6 l74 13 q31 5 43.5 -12 q12.5 -17 -0.5 -35 l-50 -68 q-31 -40 -62.5 -69.5 q-31.5 -29.5 -102 -85.5 q-70.5 -56 -98 -72.5 q-27.5 -16.5 -47.5 -17.5 q-17 -2 -51 10 l-250 79 q-143 46 -278 100 l-198 79 q-292 114 -458 109 q-64 -3 -106.5 -15 q-42.5 -12 -92 -35.5 q-49.5 -23.5 -58.5 -18.5 q-9 5 7 42 l62 134 q28 61 55 71.5 q27 10.5 60 6.5 l69 -13 q0 -1 50 -8 l51 -8 l0 0 ZM688 1459 l71 -23 l100 -30 q174 -60 182.5 -73.5 q8.5 -13.5 -0.5 -61.5 q-13 -65 -22.5 -105.5 q-9.5 -40.5 -25.5 -77.5 q-16 -37 -32 -40.5 q-16 -3.5 -30 10 q-14 13.5 -57 68.5 l-228 286 q-30 36 -21.5 50 q8.5 14 63.5 -3 Z" /><glyph glyph-name="" unicode="&#x4e8b;" d="M928 508 l-1 74 q-84 -18 -210 -42.5 q-126 -24.5 -251 -65.5 l-49 228 q155 -6 250 -5.5 q95 0.5 254 20.5 l8 113 q-127 -20 -220 -45 q-38 -50 -68 -55 q-30 -5 -60 34 q-16 20 -26 67 q-10 47 -29.5 112 q-19.5 65 -38.5 103 q-19 38 -13.5 47 q5.5 9 57.5 2 q66 -10 158 -15 l236 35 q-2 38 -2 46 l-4 48 q-59 -8 -256 -47 q-197 -39 -314 -99 l-85 -42 l-54 292 q345 -19 693 20 q-13 34 -24.5 64.5 q-11.5 30.5 -21.5 52.5 l-33 57 q-16 27 -13.5 40.5 q2.5 13.5 76.5 2.5 q67 -11 150 -28 q83 -17 104.5 -25 q21.5 -8 26.5 -18 q5 -10 -7 -39 q-14 -34 -14 -44 l-3 -38 q33 7 51 11 l192 30 q204 32 348 88 l37 -253 q-186 14 -239 9 l-94 -8 l174 -142 q-32 -23 -51 -40 q-19 -17 -76.5 -99 q-57.5 -82 -87 -102 q-29.5 -20 -49 -13.5 q-19.5 6.5 -33.5 47.5 l-213 -28 l-1 -109 q10 0 16 1 l181 24 q62 3 81.5 13.5 q19.5 10.5 26.5 27.5 l21 51 l270 -119 q-41 -57 -78 -108 q63 8 109 21 q46 13 137 78 l19 -246 q-167 16 -318 7 q-98 -194 -124 -244 q-26 -50 -49.5 -51.5 q-23.5 -1.5 -65.5 77.5 q-219 -49 -230 -51 q1 -131 2 -218.5 q1 -87.5 3 -149 q2 -61.5 5.5 -123 q3.5 -61.5 -8 -68.5 q-11.5 -7 -44.5 4 q-45 13 -155 67.5 q-110 54.5 -148.5 75 q-38.5 20.5 -92.5 59.5 l-34 24 q-117 82 -35.5 76.5 q81.5 -5.5 158.5 -5.5 q71 -1 110.5 3.5 q39.5 4.5 49 17 q9.5 12.5 12 29 q2.5 16.5 4.5 83.5 l2 42 l2 42 q-146 -42 -219 -65 q-73 -23 -114 -53 l-59 -41 l-83 218 q40 -4 103 -3.5 q63 0.5 372 78.5 l0 57 l-296 -64 q-181 -40 -351 -121 l-74 259 q168 -20 232 -15 q64 5 254.5 32.5 q190.5 27.5 233.5 36.5 ZM930 934 q0 21 0 24 l-1 43 l-236 -38 l13 -71 l224 42 ZM1104 966 l185 34 l20 58 l-204 -29 q0 -26 0 -31 l-1 -32 l0 0 ZM1101 539 q17 2 98 13.5 q81 11.5 90 14.5 l54 15 l24 84 q-40 -12 -60 -16 l-164 -29 l-42 -9 l0 -73 ZM1099 360 l210 36 l18 64 l-227 -44 l-1 -56 ZM1122 1149 l140 20 q48 6 54.5 11 q6.5 5 19.5 30 l14 27 q-110 -2 -219 -10 l-9 -78 Z" /><glyph glyph-name="" unicode="&#x4eca;" d="M1075 1230 q187 -238 397 -361.5 q210 -123.5 320 -168.5 l139 -54 l50 -20 q21 -9 21.5 -25.5 q0.5 -16.5 -40.5 -38.5 l-51 -27 q-61 -32 -185.5 -75 q-124.5 -43 -144.5 -37 q-17 4 -43.5 34 q-26.5 30 -175.5 223 l-142 189 q-51 66 -202 257 q-82 -133 -128.5 -190.5 q-46.5 -57.5 -100.5 -109.5 l66 -15 l41 -10 q103 -26 156 -36.5 q53 -10.5 61.5 -30.5 q8.5 -20 7.5 -47 q-3 -51 -13 -92.5 q-10 -41.5 -28 -75.5 q-18 -34 -32.5 -33 q-14.5 1 -43.5 39 l-226 286 q-145 -131 -240 -197.5 q-95 -66.5 -158.5 -101 q-63.5 -34.5 -149.5 -72 q-86 -37.5 -124 -44.5 l-44 -9 q-16 -4 -26.5 10 q-10.5 14 26.5 37 l44 26 q63 37 228.5 176 q165.5 139 285 286.5 q119.5 147.5 166.5 262 q47 114.5 50 160.5 q3 46 1 96 q-3 38 -10 66 q-7 28 -2 37 q5 9 59 -11 q72 -28 138.5 -65 q66.5 -37 93 -55.5 q26.5 -18.5 28 -27.5 q1.5 -9 -13.5 -33 q-9 -13 -55 -122 ZM1477 359 q-112 -132 -180 -220 q-68 -88 -150 -205 q-82 -117 -121 -168.5 q-39 -51.5 -60 -54 q-21 -2.5 -48 34.5 q-30 38 -47 82 q-17 44 -12 66 q3 19 33.5 51 q30.5 32 125.5 148.5 q95 116.5 116 153.5 l53 92 q-296 -78 -522 -203 l-124 284 q119 -19 264 -8.5 q145 10.5 425 82.5 l48 68 l199 -203 Z" /><glyph glyph-name="" unicode="&#x4f60;" d="M628 1014 q-1 -22 -1 -32 l0 -31 q-1 -4 -2.5 -61 q-1.5 -57 4.5 -271 l4 -277 q6 -325 5 -384 q-1 -59 2 -111 q3 -52 -5 -74 q-8 -22 -15.5 -27 q-7.5 -5 -37.5 19 l-81 57 l-75 61 q-29 23 -33 36 q-4 13 3 44 q10 46 15.5 87 q5.5 41 16.5 155 q11 114 13.5 148 q2.5 34 12.5 202 l10 178 q2 51 3 68 l1 49 q-19 -19 -58 -52 l-71 -60 q-88 -71 -185 -126 l-49 -28 q-24 -14 -38.5 0 q-14.5 14 6.5 39 l50 57 q89 102 118 140 q29 38 89.5 127.5 q60.5 89.5 89.5 137 q29 47.5 74 142 q45 94.5 51.5 140 q6.5 45.5 9.5 85 q3 39.5 9.5 45 q6.5 5.5 30.5 -3.5 q18 -8 65 -39 q47 -31 81 -62 l57 -57 q32 -30 33 -42 q1 -12 -5 -29 q-18 -45 -73 -104.5 q-55 -59.5 -80.5 -92.5 q-25.5 -33 -44.5 -53 ZM1148 1017 l376 82 q32 6 36 11.5 q4 5.5 15 32.5 l14 37 l240 -230 q-203 -180 -355 -256 l-56 -28 q-16 -8 -26 -5.5 q-10 2.5 -10.5 8 q-0.5 5.5 9.5 21.5 l29 50 q6 11 38.5 74.5 q32.5 63.5 36.5 74.5 l17 48 l-172 -46 l10 -705 l13 -278 q2 -53 8 -90.5 q6 -37.5 5 -51.5 q-1 -10 -5 -14.5 q-4 -4.5 -16 -5.5 q-39 -6 -174 36.5 q-135 42.5 -240 104.5 l-50 29 q-30 16 -34 27.5 q-4 11.5 3 17 q7 5.5 37 8.5 l64 6 q162 15 183.5 43.5 q21.5 28.5 21.5 61.5 l-8 772 l-129 -33 q-61 -70 -127.5 -134 q-66.5 -64 -92.5 -83 l-41 -30 q-30 -22 -43 -3 q-13 19 2 43 l31 48 q27 41 73 147 q46 106 86.5 210 q40.5 104 62 230 q21.5 126 12.5 193 q-3 16 -10 33 q-7 17 -4 21.5 q3 4.5 24 3.5 q22 -2 73 -18 l94 -27 l105 -42 q45 -18 46.5 -29 q1.5 -11 -14.5 -37 q-18 -29 -67.5 -141 q-49.5 -112 -90.5 -187 ZM1387 589 q-1 17 3 20.5 q4 3.5 28 -6.5 l28 -11 q33 -14 173 -90 q140 -76 153.5 -107.5 q13.5 -31.5 12.5 -56.5 q-2 -31 -48.5 -126 q-46.5 -95 -64.5 -109.5 q-18 -14.5 -34 -16.5 q-16 -2 -40 65 q-40 106 -97.5 229 q-57.5 123 -85.5 165 q-28 42 -28 44 ZM716 350 q106 54 193 114.5 q87 60.5 126 97.5 l38 36 q21 20 31 12 q10 -8 -4 -44 l-22 -54 q-17 -42 -56.5 -123.5 q-39.5 -81.5 -206.5 -326.5 l-99 288 Z" /><glyph glyph-name="" unicode="&#x4f73;" d="M570 921 q30 -22 56 -36.5 q26 -14.5 31 -26 q5 -11.5 -4 -47.5 q-15 -56 -21 -122.5 q-6 -66.5 -7 -143.5 q-2 -72 3 -239.5 q5 -167.5 5 -274.5 q-1 -67 -2.5 -120 q-1.5 -53 -3.5 -88 q-2 -35 -2.5 -62 q-0.5 -27 -13.5 -35 q-13 -8 -49 23 l-108 90 q-87 72 -86.5 84 q0.5 12 12.5 41 q12 29 20 74 q8 45 17 120.5 q9 75.5 17.5 199 q8.5 123.5 3.5 394.5 l-1 47 q-161 -140 -253 -189 l-71 -38 q-38 -20 -51.5 -13.5 q-13.5 6.5 -13.5 19 q0 12.5 34 53.5 l53 62 l74 83 q48 55 122.5 163 q74.5 108 123 190 q48.5 82 78.5 167.5 q30 85.5 33.5 133.5 q3.5 48 7 63.5 q3.5 15.5 10 18 q6.5 2.5 23.5 -7.5 q42 -27 81 -55 l79 -59 q54 -40 66.5 -57.5 q12.5 -17.5 13.5 -26 q1 -8.5 -14 -27.5 q-16 -21 -24 -32 l-78 -116 q-51 -74 -98 -131 q-47 -57 -63 -79 ZM1377 123 q354 29 402 54 l102 46 l62 -354 q-67 23 -156 47.5 q-89 24.5 -265 18 q-176 -6.5 -281 -17 q-105 -10.5 -254.5 -53.5 q-149.5 -43 -224.5 -84 l-89 301 q92 -11 142 -12 q50 -1 384 37 q-2 49 -2.5 62.5 q-0.5 13.5 -5.5 91.5 q-34 -8 -106 -35 q-72 -27 -77 -30 l-72 -37 l-74 256 q91 -3 142.5 3 q51.5 6 172.5 22 q-4 42 -11.5 71 q-7.5 29 -35.5 82 q-141 -33 -184 -58 l-66 -37 l-61 263 q99 -10 156.5 -9 q57.5 1 217.5 28 l3 127 q-126 -34 -238 -81 l-75 264 q64 -11 129.5 -12.5 q65.5 -1.5 185.5 19.5 q-1 39 -2 68.5 q-1 29.5 -9.5 93 q-8.5 63.5 -16 82.5 q-7.5 19 -28.5 56.5 q-21 37.5 -42.5 55.5 q-21.5 18 -16.5 31 q5 13 47 3 q15 -4 67.5 -7 q52.5 -3 116 -16.5 q63.5 -13.5 95 -19 q31.5 -5.5 34.5 -15.5 q3 -10 -13 -56 q-4 -12 -9 -42 l-12 -62 q-8 -39 -12 -94 l-5 -55 q62 17 93.5 28 q31.5 11 88.5 46 l54 -247 q-51 3 -124 2 q-73 -1 -114 -13 l-7 -126 q27 6 42 10 l124 28 q78 20 178 68 l43 -261 q-52 6 -115 9 q-63 3 -269 -30 l-164 -25 q86 -12 100 -14 l57 -16 q39 -12 40 -20 q1 -8 -6.5 -25 q-7.5 -17 -7.5 -25 l-2 -34 q115 26 142 40 l62 30 l48 -258 q-166 22 -271 8 q-1 -17 -1 -25 l-5 -118 l-1 -28 l0 0 Z" /><glyph glyph-name="" unicode="&#x5230;" d="M585 659 q-97 -51 -195 -110 l-122 189 q118 48 171 90 q53 42 87 89.5 q34 47.5 48 87.5 l22 61 q-98 -40 -196 -95 l-110 277 q71 -4 160 -4.5 q89 -0.5 205.5 26 q116.5 26.5 184 51.5 q67.5 25 211.5 104 l78 -285 q-66 6 -118 6.5 q-52 0.5 -194 -26.5 q-15 -43 -33.5 -89.5 q-18.5 -46.5 -92.5 -157.5 q102 21 196 44 q-15 37 -23 54 l-29 54 q-8 18 -1.5 26.5 q6.5 8.5 30.5 -1.5 l64 -28 q7 -4 72 -39.5 q65 -35.5 74 -41.5 l45 -36 q19 -15 25.5 -26.5 q6.5 -11.5 -6.5 -43.5 q-7 -16 -32.5 -56.5 q-25.5 -40.5 -34.5 -53 q-9 -12.5 -38.5 -39 q-29.5 -26.5 -42.5 -18.5 q-8 4 -15 23 l-22 64 l-25 54 q-202 -83 -242 -102 q118 -23 146.5 -28.5 q28.5 -5.5 33 -12 q4.5 -6.5 -1.5 -45.5 l-9 -46 q70 33 142 82 l82 -228 q-47 -2 -69 -3 l-100 -14 l-74 -10 l-21 -169 q72 30 110 44 l105 37 l84 35 q18 7 30 -4 q12 -11 -3 -23 l-80 -66 q-61 -51 -185.5 -132.5 q-124.5 -81.5 -498.5 -300.5 l-184 252 q281 59 347 83 l96 33 l7 140 q-55 -19 -94.5 -36 q-39.5 -17 -175.5 -92 l-126 257 q84 1 161 6 q77 5 223 46 q-2 24 -4.5 41.5 q-2.5 17.5 -14.5 45.5 l-16 34 l-11 26 l0 0 ZM1199 447 l7 37 q8 46 14 118 q6 72 6 172 q-1 86 -6.5 143 q-5.5 57 -16 116 q-10.5 59 -29 86.5 q-18.5 27.5 -16.5 35 q2 7.5 47 4.5 q40 -3 100.5 -18 q60.5 -15 93 -23.5 q32.5 -8.5 39 -19 q6.5 -10.5 -6.5 -53.5 q-12 -39 -16 -132 l-10 -162 q-1 -3 3 -165 q3 -188 4 -193 l6 -74 q1 -25 -6.5 -31.5 q-7.5 -6.5 -26.5 -2.5 q-27 4 -90 54.5 q-63 50.5 -79 73 q-16 22.5 -17 34.5 ZM1290 -35 l-60 47 q-51 40 13 47 q27 2 83.5 -0.5 q56.5 -2.5 112.5 0.5 q73 2 86 17 q13 15 14 36.5 q1 21.5 3 87.5 l6 180 l1 280 l4 239 q-1 61 -9 170 q-8 109 -30 213 q-22 104 -47 156.5 q-25 52.5 -18 61 q7 8.5 43 4.5 q15 -3 91 -25 l121 -35 l54 -24 q30 -11 35 -18.5 q5 -7.5 -6 -43.5 q-10 -31 -14 -91 l-14 -152 q-5 -52 -9 -176 l-13 -298 q-9 -206 -10.5 -371 q-1.5 -165 -1.5 -174 l-7 -195 q-1 -114 -7 -156.5 q-6 -42.5 -16 -45.5 q-10 -3 -34 13 l-104 61 q-17 10 -102 68.5 q-85 58.5 -165 123.5 Z" /><glyph glyph-name="" unicode="&#x524d;" d="M856 687 l-257 -38 l-3 -137 q130 34 164 57 l47 30 l28 -175 q-102 -3 -150 -18 l-95 -27 l-3 -97 q54 7 100 16.5 q46 9.5 123 49.5 l17 -198 q-32 5 -67.5 8.5 q-35.5 3.5 -178.5 -24.5 l-27 -341 q-5 -58 -19.5 -64 q-14.5 -6 -34.5 17 l-90 99 q-34 36 -35 63.5 q-1 27.5 10 68.5 q9 33 15.5 68.5 q6.5 35.5 10 59 q3.5 23.5 7.5 146.5 l14 257 q1 71 -3 131 q-6 61 -16 98 q-10 37 -21.5 62 q-11.5 25 -10.5 33.5 q1 8.5 54 -3.5 q4 -2 142 -41 l217 23 q44 4 54 41 l17 68 l229 -115 q-15 -48 -27.5 -95.5 q-12.5 -47.5 -23 -172.5 q-10.5 -125 -17 -247 q-6.5 -122 0.5 -252 q11 -224 17 -256 q6 -32 -4 -41 q-10 -9 -53 1 q-105 23 -213.5 82 q-108.5 59 -125.5 76 q-17 17 -15 25 q1 7 30.5 9.5 q29.5 2.5 86.5 13.5 q57 11 75 26 q18 15 23.5 30.5 q5.5 15.5 6.5 106.5 l1 576 ZM172 1145 q200 -26 466 -19 q182 4 392 32 q37 58 49 82 q12 24 47.5 116 q35.5 92 20 142 q-15.5 50 -10 56.5 q5.5 6.5 51.5 -3.5 q30 -7 139 -53.5 q109 -46.5 104 -81.5 q-2 -12 -41.5 -42.5 q-39.5 -30.5 -233.5 -201.5 q435 55 545 95 l149 51 l22 -324 q-101 27 -141.5 30.5 q-40.5 3.5 -151.5 8.5 q-111 5 -130.5 4.5 q-19.5 -0.5 -77 -4.5 q-57.5 -4 -248.5 -13.5 q-191 -9.5 -402 -48 q-211 -38.5 -469 -121.5 l-80 295 ZM628 1466 l79 -69 q27 -16 53 -18 q70 -8 144.5 44.5 q74.5 52.5 82.5 49.5 q8 -3 -1 -27 q-9 -23 -34 -64 l-44 -77 q-27 -45 -73 -102 q-46 -57 -70.5 -57.5 q-24.5 -0.5 -50.5 22.5 q-29 25 -49.5 82.5 q-20.5 57.5 -30 135.5 q-9.5 78 -6.5 80 ZM1313 99 q-2 -2 -33.5 10 q-31.5 12 -82 53.5 q-50.5 41.5 -56.5 61.5 q-5 13 3 60.5 q8 47.5 7 111.5 l0 237 q-2 64 -7 100.5 q-5 36.5 -23 62 q-18 25.5 -14.5 29.5 q3.5 4 20.5 4 q28 -1 119 -34.5 q91 -33.5 96 -39.5 q5 -6 -1 -35 q-8 -34 -13.5 -119 q-5.5 -85 -9 -150.5 q-3.5 -65.5 2.5 -168.5 q6 -103 0.5 -142 q-5.5 -39 -8.5 -41 ZM1361 1017 l51 -13 q128 -33 189.5 -58 q61.5 -25 64.5 -33 q3 -8 -9 -34 q-20 -41 -27.5 -121.5 q-7.5 -80.5 -14 -225.5 q-6.5 -145 -2.5 -300 l9 -254 q4 -130 6 -162 q2 -32 5.5 -73.5 q3.5 -41.5 -3.5 -48.5 q-7 -7 -38 1 q-89 21 -155.5 55.5 q-66.5 34.5 -154.5 86.5 q-88 52 -109 68 l-55 40 q-27 19 -32 31.5 q-5 12.5 26 12.5 l66 0 l132 0 q85 2 99 16.5 q14 14.5 15.5 109 q1.5 94.5 1.5 194.5 q-2 152 -4 261 q-2 109 -7.5 187.5 q-5.5 78.5 -14 119 q-8.5 40.5 -18.5 60 q-10 19.5 -25.5 44 q-15.5 24.5 -11 31.5 q4.5 7 15.5 5 Z" /><glyph glyph-name="" unicode="&#x52ab;" d="M1271 794 q-73 -41 -142 -92 l-77 285 q116 -12 255 -3 l6 130 q3 65 1.5 120.5 q-1.5 55.5 -11 102.5 q-9.5 47 -28 91 q-18.5 44 -13.5 49 q5 5 25 -2 q10 -5 122 -43 q112 -38 148.5 -57.5 q36.5 -19.5 38 -26 q1.5 -6.5 -10.5 -27.5 q-12 -20 -21 -66 l-19 -86 l-27 -142 l66 15 q42 9 46 12.5 q4 3.5 13 37.5 l15 56 l264 -157 q-24 -66 -38.5 -111 q-14.5 -45 -32 -115.5 q-17.5 -70.5 -50 -222.5 q-32.5 -152 -54 -246.5 q-21.5 -94.5 -46 -171.5 q-24.5 -77 -73 -204.5 q-48.5 -127.5 -68.5 -132 q-20 -4.5 -44 12.5 q-35 23 -112 89.5 q-77 66.5 -118 105 q-41 38.5 -61.5 76.5 q-20.5 38 -10.5 49.5 q10 11.5 35 12.5 q12 0 73 -15 q61 -15 113 15 q31 18 49.5 50 q18.5 32 46 120 q27.5 88 43.5 177 q16 89 26 169 q10 80 16 140 l8 92 l-137 -33 q-18 -74 -33.5 -134 q-15.5 -60 -45.5 -150.5 q-30 -90.5 -65 -167.5 q-35 -77 -91.5 -167 q-56.5 -90 -122.5 -171 q-66 -81 -180 -169.5 q-114 -88.5 -144 -105.5 l-47 -26 q-23 -13 -28 -7.5 q-5 5.5 -6 11.5 q-1 6 11 19 l33 37 q100 112 178.5 210 q78.5 98 125.5 190 q47 92 83 181.5 q36 89.5 65.5 177.5 q29.5 88 36.5 134 l14 84 l0 0 ZM770 376 l-48 124 q-13 33 -4 43 q9 10 46 -7 l51 -24 q110 -53 162 -91 q52 -38 59.5 -54.5 q7.5 -16.5 -3.5 -64.5 q-16 -64 -26.5 -97.5 q-10.5 -33.5 -42.5 -88.5 q-32 -55 -45 -48.5 q-13 6.5 -34 55.5 l-65 147 l-57 -35 q-12 -8 -75 -36.5 q-63 -28.5 -169 -89.5 q-106 -61 -119 -71 l-59 -45 l-158 209 q68 67 125 152.5 q57 85.5 111 208.5 q-97 -32 -125 -48 l-88 -47 l-85 288 q72 -8 131.5 -10.5 q59.5 -2.5 299.5 22.5 q0 38 1 57 l2 56 l1 83 q-117 -44 -202 -92 l-91 271 q126 -6 284 16 q-3 61 -8 95 q-5 34 -17 80.5 q-12 46.5 -24.5 79 q-12.5 32.5 -31.5 63 q-19 30.5 -16.5 43 q2.5 12.5 57.5 8.5 q36 -3 100.5 -15.5 q64.5 -12.5 108 -26 q43.5 -13.5 49.5 -24 q6 -10.5 -2 -45.5 q-9 -33 -17 -120 l-10 -104 q54 18 98.5 37 q44.5 19 110.5 71 l25 -285 q-53 4 -99 4.5 q-46 0.5 -133 -20.5 q-6 -77 -7 -94 l-3 -51 l-3 -50 q82 22 135.5 41.5 q53.5 19.5 145.5 76.5 l34 -308 q-102 11 -164.5 10.5 q-62.5 -0.5 -210.5 -25.5 q-46 -64 -106.5 -153.5 q-60.5 -89.5 -64.5 -94.5 l-48 -63 q109 21 226 57 l98 30 Z" /><glyph glyph-name="" unicode="&#x52bf;" d="M1067 900 l-98 38 q-19 7 -27 18.5 q-8 11.5 18 19.5 l156 36 l25 90 q-58 -22 -114 -54 l-50 207 q60 -10 70 -9 l102 2 q-1 41 -5 108.5 q-4 67.5 -22.5 105 q-18.5 37.5 -13 47 q5.5 9.5 32.5 1.5 l61 -17 l97 -36 q43 -16 57.5 -24.5 q14.5 -8.5 17.5 -16.5 q3 -8 -13 -34 q-19 -31 -28 -68 l-14 -54 q54 6 78 21 q24 15 24 24 l6 44 l213 -146 q-44 -61 -58 -97.5 q-14 -36.5 -19 -126 q-5 -89.5 21 -120 q26 -30.5 63 -24.5 q29 4 42.5 27.5 q13.5 23.5 18.5 63.5 l13 108 q4 33 12 36.5 q8 3.5 15 -2.5 q7 -6 26 -51 l65 -158 q66 -162 57 -185.5 q-9 -23.5 -70 -27.5 q-33 -3 -120.5 4 q-87.5 7 -159.5 32.5 q-72 25.5 -109.5 123 q-37.5 97.5 -39.5 225.5 l-3 112 l-98 -17 l-30 -127 q23 -12 33.5 -38 q10.5 -26 9.5 -94 q-2 -58 -11 -65.5 q-9 -7.5 -107 31.5 q-30 -39 -56 -68 q-26 -29 -75.5 -65.5 q-49.5 -36.5 -84.5 -50.5 l-40 -16 q-32 -13 -36.5 5 q-4.5 18 12.5 35 l31 30 q14 14 59.5 79.5 q45.5 65.5 49.5 76.5 l16 41 l0 0 ZM1099 444 q27 3 41 6 l148 30 q36 5 52.5 16 q16.5 11 28.5 45 l11 31 l249 -179 q-24 -39 -51 -80.5 q-27 -41.5 -37 -62.5 q-10 -21 -26.5 -71 q-16.5 -50 -77 -209.5 q-60.5 -159.5 -69.5 -194.5 q-9 -35 -19.5 -42 q-10.5 -7 -49.5 9 q-84 33 -175 92.5 q-91 59.5 -124 93.5 l-44 44 q-15 14 -9 23 q6 9 28 6 l67 -9 q17 -3 81.5 5 q64.5 8 86.5 26 q22 18 38 63 l31 101 l20 57 l18 77 q-262 -37 -274 -39 q-55 -138 -107 -218 q-52 -80 -118 -148 q-66 -68 -139.5 -114 q-73.5 -46 -158 -74.5 q-84.5 -28.5 -126.5 -35.5 l-77 -14 q-27 -5 -30.5 9.5 q-3.5 14.5 24.5 31.5 l62 37 q235 140 318.5 252.5 q83.5 112.5 139.5 231.5 q-53 -14 -105 -32 q-52 -18 -172 -85 l-88 300 q72 -15 186.5 -22 q114.5 -7 209.5 11 q5 41 7 68 q2 56 -9 88.5 q-11 32.5 -1 51.5 q10 19 115 -14 l59 -18 l80 -33 q28 -12 30.5 -20.5 q2.5 -8.5 -7.5 -26.5 l-22 -34 l-15 -30 l0 0 ZM149 858 q147 10 244 29.5 q97 19.5 246 60.5 l-1 93 q-98 -31 -219 -79 l-96 240 q138 -22 202 -17 l109 5 q3 63 1 91 q-2 28 -13 87 q-11 59 -38 99 q-27 40 -20 45 q7 5 21.5 4 q14.5 -1 107 -27.5 q92.5 -26.5 159.5 -51.5 q-31 -84 -31 -98 l-13 -119 q65 14 79 21 l57 26 l31 -183 q-91 2 -175 -7 l0 -86 l129 30 q17 4 31.5 -7.5 q14.5 -11.5 -28.5 -38.5 l-136 -88 l7 -288 l4 -54 q-13 -24 -62 -1 l-81 33 q-33 14 -89 47.5 q-56 33.5 -81 57.5 q-25 24 -20 29.5 q5 5.5 15 4.5 l32 -4 q4 -1 47 3.5 q43 4.5 53 15.5 q10 11 10 31 l0 53 q-149 -76 -368 -209 l-114 252 Z" /><glyph glyph-name="" unicode="&#x5371;" d="M1005 1359 l233 29 l74 98 l230 -202 q-45 -35 -116 -89.5 q-71 -54.5 -86 -66.5 l-115 -99 l-31 -26 q23 5 36 8 l146 32 q136 32 270 92 l56 -299 q-495 33 -746.5 -25 q-251.5 -58 -394.5 -104 l-111 287 q73 -16 162 -27.5 q89 -11.5 384 9.5 l179 257 l-307 -59 q-154 -139 -185 -159 l-32 -21 q-28 -19 -39 -2 q-11 17 0 37 l32 57 q28 50 72.5 139.5 q44.5 89.5 53.5 200.5 q2 36 -4.5 75.5 q-6.5 39.5 0.5 46 q7 6.5 45 -4.5 q197 -62 219 -75 q22 -13 26 -22 q3 -10 -27 -54 l-24 -33 l0 0 ZM126 -65 l-37 51 q-20 27 -13.5 34.5 q6.5 7.5 43.5 1.5 l47 -9 l98 -20 q32 -7 45 0 q15 7 44.5 81 q29.5 74 43.5 127 q14 53 31 152 q17 99 17 168 q-1 31 -5 78 q-4 47 -15.5 74.5 q-11.5 27.5 -8 36 q3.5 8.5 51.5 2.5 q105 -14 152 -27 l66 -21 q13 -4 18 -9 q5 -5 -11 -36 q-23 -43 -35 -104 l-36 -179 q-21 -96 -66 -239 q-45 -143 -101.5 -233.5 q-56.5 -90.5 -85.5 -123 q-29 -32.5 -52.5 -42 q-23.5 -9.5 -119.5 142.5 l-71 94 l0 0 ZM1315 604 l-236 -45 q-5 -53 -6 -79 l-7 -196 q-12 -195 -11 -204 q1 -67 37 -125.5 q36 -58.5 232 -48.5 q115 5 213.5 19 q98.5 14 123 48.5 q24.5 34.5 36.5 77.5 q12 43 19 85 l15 102 q7 50 20.5 53.5 q13.5 3.5 35.5 -35.5 l35 -64 l52 -120 l51 -103 q46 -100 44 -115 q-4 -18 -95 -61.5 q-91 -43.5 -301 -66.5 q-210 -23 -350 -7 q-118 13 -190.5 44.5 q-72.5 31.5 -106 68.5 q-33.5 37 -46.5 102.5 q-13 65.5 -12.5 163.5 q0.5 98 -3.5 234 q-4 100 -7 149.5 q-3 49.5 -9 101.5 q-6 52 -22 85 q-16 33 -12 40 q4 7 44 4 l123 -13 l78 -8 l211 39 q53 9 55 12 q2 3 7 36 l5 33 l270 -176 q-35 -83 -50 -124 l-48 -139 l-40 -111 q-14 -38 -28.5 -84.5 q-14.5 -46.5 -27.5 -50.5 q-13 -4 -49 23 l-108 73 q-62 42 -117 90 l-45 39 q-43 37 35 42 l49 3 q107 6 120 14.5 q13 8.5 14 73.5 l4 78 l-1 42 l0 0 Z" /><glyph glyph-name="" unicode="&#x53cc;" d="M1299 463 q139 -142 307.5 -245.5 q168.5 -103.5 296.5 -150.5 l73 -27 q31 -12 29.5 -31 q-1.5 -19 -33.5 -31 l-62 -23 q-107 -40 -213 -71 q-106 -31 -124 -24 q-16 5 -60.5 52 q-44.5 47 -68.5 76 q-24 29 -88 118 l-130 175 l-20 28 q-55 -81 -145 -175.5 q-90 -94.5 -158.5 -145 q-68.5 -50.5 -147.5 -96.5 q-79 -46 -115 -56 l-63 -19 q-18 -6 -23.5 12 q-5.5 18 26.5 41 l40 29 q23 16 80 73 l113 110 q52 55 123 149.5 q71 94.5 99.5 140 q28.5 45.5 60.5 100.5 q-90 144 -114 177 q-24 33 -57.5 70.5 q-33.5 37.5 -61 52 q-27.5 14.5 -30 23 q-2.5 8.5 33.5 27.5 q25 13 77 23.5 q52 10.5 70 12.5 q24 2 34 -4 q10 -6 20.5 -34.5 q10.5 -28.5 39 -87 q28.5 -58.5 35.5 -68.5 l27 -44 q75 168 125 313 l44 134 l18 55 q-47 -20 -155 -66 q-108 -46 -118 -53 l-73 -46 l-54 271 q110 -12 258 21 q148 33 159 41 q11 8 27 40 l39 79 l250 -182 q-59 -76 -87 -123.5 q-28 -47.5 -55.5 -105 q-27.5 -57.5 -51.5 -110.5 l-77 -175 q-60 -135 -120 -250 ZM535 512 q-35 40 -55 59 l-81 66 q-59 49 -89 65.5 q-30 16.5 -27.5 23.5 q2.5 7 27.5 13 q25 6 63 0 q106 -19 226 -72 q39 108 53 181 l15 106 l10 69 q-210 -87 -218 -93 l-60 -42 l-123 287 q105 -7 128 -7 q75 -2 134 13 l100 30 q36 9 44 18 q8 9 22 52 l13 42 l247 -211 q-58 -107 -90 -177.5 q-32 -70.5 -57 -136.5 q-25 -66 -71 -194 q43 -25 85 -43 q42 -18 48.5 -34.5 q6.5 -16.5 1.5 -47.5 q-6 -30 -22.5 -83 q-16.5 -53 -32 -92.5 q-15.5 -39.5 -29.5 -40 q-14 -0.5 -42 37.5 q-37 49 -87 97 q-35 -69 -87.5 -156.5 q-52.5 -87.5 -171 -174.5 q-118.5 -87 -253.5 -145 l-53 -23 q-29 -13 -36.5 0 q-7.5 13 10.5 30 l53 46 q145 125 207.5 201.5 q62.5 76.5 108.5 151 q46 74.5 60 111.5 l29 73 l0 0 Z" /><glyph glyph-name="" unicode="&#x547d;" d="M985 515 q-35 -68 -53.5 -112 q-18.5 -44 -51.5 -160 q-33 -116 -77 -116 q-27 -1 -71 56 l-128 -24 q-52 -56 -71 -55 q-20 0 -39 31.5 q-19 31.5 -29 93 q-10 61.5 -34 156.5 q-24 95 -49.5 138 q-25.5 43 -20 52.5 q5.5 9.5 43.5 8.5 l88 -13 l68 -10 l188 48 l25 71 l210 -138 q-12 35 -18 62 q-6 27 -21.5 56 q-15.5 29 -6.5 42.5 q9 13.5 190 -56.5 l162 44 l9 58 l256 -125 q-40 -116 -53 -162.5 q-13 -46.5 -27.5 -132 q-14.5 -85.5 -22.5 -119.5 q-8 -34 -23 -66.5 q-15 -32.5 -27.5 -36.5 q-12.5 -4 -108.5 60 l-80 58 l-71 51 q3 -124 2.5 -190 q-0.5 -66 -4.5 -160 q-4 -94 -15.5 -128.5 q-11.5 -34.5 -33 -80 q-21.5 -45.5 -30 -46 q-8.5 -0.5 -23.5 21.5 q-39 53 -52 127.5 q-13 74.5 -11 137.5 q0 24 6 120.5 q6 96.5 8 220.5 q0 87 -1 133 l-3 84 l0 0 ZM596 276 l142 27 l12 178 l-169 -43 l15 -162 ZM1141 348 q44 -6 84.5 -11 q40.5 -5 53.5 9 q8 9 11 43 l5 85 l5 77 l-156 -49 l-3 -154 ZM1039 1337 q84 -69 216.5 -169 q132.5 -100 297.5 -174 q165 -74 328 -125 l54 -17 q23 -8 24.5 -18 q1.5 -10 -24.5 -23 l-44 -23 q-58 -31 -178 -81 q-120 -50 -142 -45 q-41 8 -323 296 l55 -186 q-95 0 -279.5 -20 q-184.5 -20 -287.5 -63 l-88 -35 l-68 183 q-73 -57 -121.5 -89 q-48.5 -32 -121 -68 q-72.5 -36 -114.5 -50 l-81 -28 q-40 -14 -45 4 q-5 18 28 44 l65 50 q135 104 252.5 217.5 q117.5 113.5 194.5 231.5 q77 118 117 204.5 q40 86.5 27 131.5 q-13 45 -9.5 53 q3.5 8 55.5 -4 q38 -10 149.5 -50 q111.5 -40 114.5 -62 q0 -6 -15 -30 l-37 -55 l0 0 ZM632 876 q103 2 286 28 q183 26 234 49 l74 31 q-133 111 -261 238 q-154 -181 -164 -191 l-108 -98 l-61 -57 l0 0 Z" /><glyph glyph-name="" unicode="&#x5c06;" d="M540 738 q-1 37 -1 57 l-4 253 q-3 112 -14 178.5 q-11 66.5 -26.5 105.5 q-15.5 39 -37.5 72 q-22 33 -16 42.5 q6 9.5 37 10.5 q32 0 91 -21 l146 -50 q42 -17 47.5 -32 q5.5 -15 -0.5 -46 q-30 -133 -34.5 -160 q-4.5 -27 -10.5 -150 l-18 -278 q-2 -38 -8.5 -292.5 q-6.5 -254.5 -7.5 -322.5 q-1 -68 -3.5 -135.5 q-2.5 -67.5 -0.5 -115.5 q2 -48 -7 -74 q-9 -26 -22 -32 q-13 -6 -52 25 q-81 63 -105 89 q-24 26 -28 39.5 q-4 13.5 8 53.5 q12 41 19.5 88 q7.5 47 20.5 198 l20 234 l7 171 q-102 -135 -165 -222.5 q-63 -87.5 -79 -105.5 l-51 -57 l-177 247 q110 36 192 78 l125 67 q104 53 155 85 ZM744 598 q115 -8 244.5 -4.5 q129.5 3.5 391.5 72.5 q-5 48 -9 73 l-18 78 l-12 52 q-22 -15 -32 -21 l-97 -60 q-95 -60 -117 -71 l-138 -61 q-89 -43 -131.5 -41 q-42.5 2 -45 9 q-2.5 7 26 26.5 q28.5 19.5 145.5 105 q117 85.5 174 130.5 q-11 32 -18 47 l-45 66 l-34 52 q-103 -72 -167 -110.5 q-64 -38.5 -93.5 -44 q-29.5 -5.5 -38 0.5 q-8.5 6 24.5 48 q15 19 59 63 q44 44 71 72.5 q27 28.5 77.5 93.5 q50.5 65 75 113 q24.5 48 40 96.5 q15.5 48.5 16 85.5 q0.5 37 7 44.5 q6.5 7.5 60.5 -19.5 l109 -48 q89 -42 94 -64 q3 -18 -58 -88 l149 17 q31 3 51 58 l216 -210 q-92 -48 -173 -113 l-106 -88 l-81 -65 q50 -10 106.5 -19.5 q56.5 -9.5 78.5 -14.5 l62 -17 q22 -5 27 -11 q5 -6 -5.5 -32 q-10.5 -26 -18.5 -68 l-7 -38 q179 55 223 85 l76 49 l37 -312 q-179 21 -361 13 q-4 -66 -5 -98 l-5 -179 q-7 -182 -7 -185 l4 -179 q0 -62 4.5 -110.5 q4.5 -48.5 -10 -56.5 q-14.5 -8 -45.5 -1 q-67 14 -234 113.5 q-167 99.5 -205 142.5 l-47 50 q-21 22 -14.5 33.5 q6.5 11.5 39.5 7.5 q102 -13 199 -18 q97 -5 112 10 q10 10 14.5 64 q4.5 54 9.5 148 q5 94 4 126 l-3 112 q-227 -43 -230 -43 l-93 -24 q38 -23 56 -35 l60 -42 q19 -14 24.5 -24 q5.5 -10 -7.5 -51 l-19 -68 q-9 -29 -25.5 -60.5 q-16.5 -31.5 -28.5 -34 q-12 -2.5 -34 26.5 q-18 22 -39 78 l-49 111 l-28 66 q-74 -35 -137 -72 l-97 262 ZM1233 991 q59 56 67 67 l91 115 l-243 -34 l-58 -34 q39 -19 87 -34.5 q48 -15.5 51.5 -24 q3.5 -8.5 4.5 -25.5 l0 -30 l0 0 ZM485 846 q0 -39 -14 -50 q-14 -11 -64 19 q-30 17 -103 84 l-79 68 q-41 36 -56 47 q-15 11 -15.5 17.5 q-0.5 6.5 26.5 19 q27 12.5 111 0.5 q22 -4 90.5 -6.5 q68.5 -2.5 77.5 -17.5 q9 -15 12.5 -35.5 q3.5 -20.5 7.5 -67.5 l6 -78 l0 0 Z" /><glyph glyph-name="" unicode="&#x5c31;" d="M116 1149 q273 -27 462.5 2.5 q189.5 29.5 289 57 q99.5 27.5 132.5 48.5 l51 31 l47 -260 q-70 5 -146 6.5 q-76 1.5 -311.5 -36.5 q-235.5 -38 -312.5 -65 l-141 -47 l-71 263 ZM244 288 q34 -44 49.5 -46.5 q15.5 -2.5 67.5 24 q52 26.5 81.5 48.5 q29.5 22 49 29.5 q19.5 7.5 24.5 2.5 q5 -5 -7 -31 q-27 -57 -46 -93.5 q-19 -36.5 -84 -116.5 q-65 -80 -102 -104 q-37 -24 -61.5 30.5 q-24.5 54.5 -22.5 125.5 q0 36 4.5 95 q4.5 59 13 62.5 q8.5 3.5 33.5 -26.5 ZM434 863 l335 57 l13 77 l247 -138 q-22 -41 -30.5 -60 q-8.5 -19 -52 -142 q-43.5 -123 -57.5 -173 q-14 -50 -48.5 -55.5 q-34.5 -5.5 -77.5 49.5 l-63 -14 q-4 -57 -4.5 -87 q-0.5 -30 4.5 -181 q0 -19 2 -129.5 q2 -110.5 4 -150 q2 -39.5 6.5 -81.5 q4.5 -42 -6.5 -57.5 q-11 -15.5 -88 18.5 q-61 26 -140 72 q-79 46 -124 87 q-45 41 -33 50 q4 3 37 4 l82 7 q55 3 69.5 14 q14.5 11 11.5 87 l6 188 l-3 125 l-14 -3 q-43 -46 -62.5 -49.5 q-19.5 -3.5 -48.5 39.5 q-29 39 -44.5 118.5 q-15.5 79.5 -32.5 133 q-17 53.5 -36 95.5 q-19 42 -50.5 68.5 q-31.5 26.5 -29 33 q2.5 6.5 33.5 14 q31 7.5 63 6.5 q42 -2 131 -23 ZM472 724 l23 -155 l257 47 l6 158 l-286 -50 ZM745 1379 q2 -6 -13.5 -50.5 q-15.5 -44.5 -50 -101.5 q-34.5 -57 -61.5 -54 q-20 1 -59 62 l-88 124 q-81 120 -78.5 131.5 q2.5 11.5 68.5 -0.5 q118 -24 196.5 -60 q78.5 -36 85.5 -51 ZM720 356 q2 4 40 7 l110 -19 q98 -15 104.5 -30 q6.5 -15 1.5 -59 l-20 -152 q-11 -47 -28.5 -57 q-17.5 -10 -73.5 74 q-147 214 -134 236 ZM1044 947 q97 -24 119 -24 l104 -7 q6 99 7 165.5 q1 66.5 -7 148.5 q-6 54 -16 101 q-10 47 -41.5 88 q-31.5 41 -27 49 q4.5 8 50.5 5 q47 -4 125 -21 q78 -17 113.5 -26 q35.5 -9 39 -21 q3.5 -12 -12.5 -47 q-11 -24 -14 -40 l-10 -47 q158 -23 219 -25 q61 -2 70 -17 q9 -15 5 -56 l-10 -91 q-7 -53 -20.5 -58 q-13.5 -5 -47.5 20 q-25 17 -87 71 l-73 61 l-67 58 q-19 -135 -21 -164 l-14 -144 q173 26 224 58 l64 37 l40 -263 q-100 13 -167.5 16 q-67.5 3 -183.5 -17 l-7 -37 q113 -29 175 -54 q62 -25 64 -41 q2 -16 -30 -67 q-21 -34 -30 -89.5 q-9 -55.5 -16.5 -134 q-7.5 -78.5 -9 -123.5 q-1.5 -45 2 -102.5 q3.5 -57.5 27 -77.5 q23.5 -20 55.5 -19 q49 0 69.5 27.5 q20.5 27.5 23.5 120.5 l7 95 l3 64 q3 77 41 3 l27 -54 l57 -123 q42 -90 75 -176 q33 -86 33 -88 q-4 -25 -87 -43 q-83 -18 -186 -18 q-198 -1 -250 49.5 q-52 50.5 -69 106 q-17 55.5 -12 147.5 q0 14 8 114 l12 166 q14 156 14 192 q-1 34 -4 51 l-6 34 q-20 -107 -49.5 -244 q-29.5 -137 -95 -264 q-65.5 -127 -172.5 -248 q-107 -121 -230 -171 l-51 -21 q-34 -14 -40 -2 q-6 12 16 33 l48 47 q23 22 74.5 84.5 q51.5 62.5 136 183.5 q84.5 121 135 292 q50.5 171 62.5 249 l17 108 q-55 -18 -62 -22 l-83 -49 l-54 291 Z" /><glyph glyph-name="" unicode="&#x5e2e;" d="M535 801 q-181 -42 -221 -61 l-64 -29 l-38 209 q40 -3 94.5 -7.5 q54.5 -4.5 83 -4 q28.5 0.5 200.5 24.5 l17 79 q-79 -19 -94 -26 l-85 -37 l-34 189 q123 -16 161 -11 l67 6 l5 95 q-51 -15 -76 -21 l-91 -23 l-88 -30 l-52 185 q133 -16 162 -12 l141 10 q-1 41 -6 64 q-5 23 -16 45 q-11 22 -32 48 q-21 26 -17.5 33.5 q3.5 7.5 29.5 11.5 q40 5 130.5 -8.5 q90.5 -13.5 121.5 -22.5 q31 -9 38 -24 l-17 -59 l-14 -63 q121 16 215 50 l12 -185 q-34 7 -72.5 13 q-38.5 6 -169.5 0 l-6 -72 q46 7 52 10 l98 43 l16 -185 q-101 8 -177 9 l-14 -79 q154 29 187 46 l64 30 l24 -205 q-82 11 -149.5 9.5 q-67.5 -1.5 -160.5 -12.5 q-26 -43 -78 -120.5 q-52 -77.5 -149.5 -135.5 q-97.5 -58 -150.5 -84.5 q-53 -26.5 -87 -31.5 q-34 -5 -39.5 4.5 q-5.5 9.5 9 26 q14.5 16.5 69 65.5 q54.5 49 107 112 q52.5 63 63.5 81 l32 50 l0 0 ZM615 467 q-3 28 -21 50 q-18 22 -17 28.5 q1 6.5 28 13.5 q47 11 81 -20.5 q34 -31.5 52 -67.5 q18 -36 18 -90 q-1 -35 -14 -92.5 q-13 -57.5 -34.5 -107 q-21.5 -49.5 -50.5 -90.5 q-29 -41 -48.5 -44.5 q-19.5 -3.5 -59.5 23.5 q-48 31 -76 57 q-28 26 -56 60.5 q-28 34.5 -43 64 q-15 29.5 -7 40.5 q5 7 44 -1.5 q39 -8.5 68 -5.5 q60 5 92.5 43.5 q32.5 38.5 39.5 71.5 q7 33 4 67 ZM939 397 q-31 -8 -39.5 -12 q-8.5 -4 -41.5 -25 l-33 -22 l-57 257 q76 -19 170 -20 q-8 36 -15.5 70.5 q-7.5 34.5 -31.5 66.5 q-24 32 -21 40.5 q3 8.5 42 11.5 q81 5 176 -24.5 q95 -29.5 96 -40.5 q1 -11 -10 -34 q-11 -22 -22 -75 l214 29 l28 66 l266 -163 q-22 -25 -34.5 -44 q-12.5 -19 -28.5 -61.5 q-16 -42.5 -24.5 -85 q-8.5 -42.5 -15.5 -117 q-7 -74.5 -7.5 -120 q-0.5 -45.5 -12 -58.5 q-11.5 -13 -118 29.5 q-106.5 42.5 -146.5 60.5 q-40 18 -141 76 q-1 -81 -4 -147 q-3 -66 -18.5 -155 q-15.5 -89 -51.5 -159 q-36 -70 -57 -69 q-24 0 -45 77.5 q-21 77.5 -26 179.5 q-5 102 -3 181 l9 195 l3 92 l0 0 ZM1143 443 l-8 -167 q49 -4 91.5 -9.5 q42.5 -5.5 71 -4.5 q28.5 1 42.5 14 q14 13 13.5 49 q-0.5 36 3.5 99 l3 56 q-108 -17 -217 -37 ZM1342 837 q-12 -55 -21.5 -93.5 q-9.5 -38.5 -28 -72.5 q-18.5 -34 -36 -35.5 q-17.5 -1.5 -37.5 29.5 q-19 28 -19.5 71.5 q-0.5 43.5 -4.5 141 q-4 97.5 -6.5 183.5 q-2.5 86 -5 155 q-2.5 69 -10.5 107 q-8 38 -24 84 q-16 46 -12 57 q4 11 69 -3 q89 -20 125 -34 q36 -14 47 -15 q17 -3 86.5 7.5 q69.5 10.5 127.5 18.5 l45 63 l205 -199 q-37 -17 -55 -26 l-144 -79 l-154 -82 q71 -22 142.5 -55 q71.5 -33 101.5 -96.5 q30 -63.5 32 -103 q2 -39.5 -6.5 -102 q-8.5 -62.5 -26.5 -73 q-18 -10.5 -86.5 7.5 q-68.5 18 -91 27.5 q-22.5 9.5 -212.5 116.5 ZM1433 1082 l-72 -24 q-5 -66 -5 -79 l-4 -76 q69 -19 127 -36 q58 -17 77 -1 q19 16 25 48.5 q6 32.5 -27 78 q-33 45.5 -121 89.5 ZM1366 1115 q123 113 138 135 l38 55 l-165 -29 l-11 -161 Z" /><glyph glyph-name="" unicode="&#x5f00;" d="M1387 1178 q-12 -79 -16 -125 q-4 -46 -4 -74 l-4 -110 q86 12 201 36.5 q115 24.5 171 51.5 l73 33 l58 -354 q-105 26 -205.5 35.5 q-100.5 9.5 -311.5 -1.5 q3 -116 3 -173 l-5 -260 q-1 -95 -2 -130 q-1 -35 -11.5 -126 q-10.5 -91 -28.5 -142 q-18 -51 -39.5 -89 q-21.5 -38 -34.5 -35 q-11 1 -28 31.5 q-17 30.5 -33 91 q-16 60.5 -22.5 123 q-6.5 62.5 -5.5 171.5 q0 105 2 152 l12 185 q0 0 6 164 l1 28 q-138 -6 -246 -15 q-18 -57 -54 -163.5 q-36 -106.5 -110.5 -199.5 q-74.5 -93 -180 -181.5 q-105.5 -88.5 -263.5 -158.5 l-71 -32 q-10 -5 -18 7.5 q-8 12.5 5 23.5 l50 43 q49 41 158.5 160 q109.5 119 167.5 234 q58 115 77 188 l17 63 q-298 -56 -379 -90 l-82 -33 l-63 331 q280 -26 327 -26 l233 -6 q2 33 5.5 97 q3.5 64 1.5 117 l-4 106 q-84 -25 -199 -78 l-44 314 q245 -37 365 -35 q120 2 315.5 21 q195.5 19 269.5 53 l90 38 l34 -297 q-88 26 -178 36 ZM1141 1178 q-84 0 -220 -26 q17 -8 33 -14.5 q16 -6.5 36.5 -16.5 q20.5 -10 22.5 -20.5 q2 -10.5 -13.5 -42 q-15.5 -31.5 -59.5 -236.5 q125 11 219 24 q0 103 -2.5 159 q-2.5 56 -6.5 93 l-9 80 l0 0 Z" /><glyph glyph-name="" unicode="&#x60c5;" d="M712 717 q61 1 131.5 5 q70.5 4 356.5 51 l0 70 q-120 -32 -196 -66 l-75 183 q54 -3 96.5 -2.5 q42.5 0.5 174.5 18.5 l0 69 q-101 -16 -152.5 -29 q-51.5 -13 -118.5 -42 l-53 229 q124 -26 192 -17 l134 13 q-7 82 -16.5 128 q-9.5 46 -26 85 q-16.5 39 -36.5 65 q-20 26 -24 37 q-4 11 -1 19 q3 8 46 -2 l88 -18 l121 -33 q38 -11 52 -19 q14 -8 18 -15.5 q4 -7.5 -11 -40.5 q-6 -13 -22 -94 l-15 -84 q108 24 127 36 l118 62 l40 -225 q-149 7 -294 -27 l0 -62 q143 42 154 49 l37 21 l53 -193 q-82 4 -94 3 l-146 -15 l0 -71 q202 35 296 61 q94 26 123 43 l72 39 l67 -247 q-111 5 -321.5 -13 q-210.5 -18 -268.5 -28 q-58 -10 -184.5 -38 q-126.5 -28 -181 -44 q-54.5 -16 -163.5 -77 l-97 216 ZM1678 564 q-19 -62 -31 -112 q-12 -50 -17.5 -123.5 q-5.5 -73.5 -5.5 -178.5 q-1 -100 6.5 -228.5 q7.5 -128.5 7.5 -138.5 q-2 -41 -10.5 -64.5 q-8.5 -23.5 -20 -30.5 q-11.5 -7 -50.5 12 q-79 36 -127.5 61.5 q-48.5 25.5 -141 96 q-92.5 70.5 -81.5 86.5 q8 12 41 8 q33 -4 61 -4 q87 -1 99.5 18.5 q12.5 19.5 12.5 54.5 l0 67 l-262 -40 l0 -221 q0 -69 0 -85.5 q0 -16.5 -9 -23 q-9 -6.5 -35 3.5 q-31 11 -83 54 q-52 43 -66.5 59 q-14.5 16 -15.5 27.5 q-1 11.5 7 31.5 q16 40 22.5 66.5 q6.5 26.5 12.5 102 q6 75.5 3 218.5 q-2 79 -7.5 136 q-5.5 57 -13.5 73 l-21 43 q16 9 48.5 3.5 q32.5 -5.5 128.5 -15.5 l237 56 q29 6 38.5 14 q9.5 8 16.5 30 l10 35 l246 -92 ZM1161 179 l260 37 l4 65 l-264 -41 l0 -61 ZM1157 350 l268 41 l0 72 l-266 -55 l-2 -58 ZM641 1041 q90 -38 145.5 -65 q55.5 -27 62 -36.5 q6.5 -9.5 -5.5 -46.5 q-27 -79 -52.5 -115 q-25.5 -36 -35.5 -37.5 q-10 -1.5 -23 22.5 q-7 10 -27.5 52.5 q-20.5 42.5 -64.5 117.5 q-8 -171 -9.5 -239 q-1.5 -68 -2.5 -298 q-2 -170 0.5 -284.5 q2.5 -114.5 2.5 -139.5 l-7 -145 q-3 -74 -9 -101.5 q-6 -27.5 -13 -31 q-7 -3.5 -27 9.5 q-31 19 -82.5 76 q-51.5 57 -63 71 q-11.5 14 -15 28.5 q-3.5 14.5 3.5 48.5 q7 40 18 130 q11 90 18 173.5 q7 83.5 11 170.5 q4 87 6 241.5 q2 154.5 1 218.5 q-2 33 -10 171 q-8 138 -14.5 198.5 q-6.5 60.5 -23 122.5 q-16.5 62 -34.5 93.5 q-18 31.5 -22 42 q-4 10.5 0 13.5 q4 3 17 1 q49 -10 91.5 -16.5 q42.5 -6.5 103.5 -23 q61 -16.5 81.5 -24 q20.5 -7.5 24.5 -17.5 q4 -10 -6 -41 q-10 -26 -13.5 -53 q-3.5 -27 -11.5 -108 q-8 -81 -8 -85 l-6 -95 l0 0 ZM383 872 l36 41 q20 23 26.5 14.5 q6.5 -8.5 0.5 -38.5 l-14 -64 q-7 -31 -35.5 -105 q-28.5 -74 -47.5 -113.5 q-19 -39.5 -49.5 -79.5 q-30.5 -40 -44.5 -39 q-12 0 -34.5 20.5 q-22.5 20.5 -60 98.5 q-37.5 78 -46 130 q-8.5 52 -4.5 58 q6 7 49.5 -19 q43.5 -26 66.5 -22 q17 2 64.5 34 q47.5 32 92.5 84 Z" /><glyph glyph-name="" unicode="&#x611f;" d="M1283 1061 q7 -69 22 -121 q15 -52 71 -151 q7 18 24.5 56 q17.5 38 24 80 q6.5 42 6 74.5 q-0.5 32.5 6.5 39 q7 6.5 39.5 -9.5 q32.5 -16 75.5 -44.5 q43 -28.5 60 -49.5 l33 -40 q-30 -52 -53 -86.5 q-23 -34.5 -116 -148.5 q120 -128 152 -116 q32 12 56 71 l28 68 q16 39 28.5 41.5 q12.5 2.5 24.5 -34.5 l14 -46 q6 -21 14 -82 l14 -107 q14 -179 0.5 -191 q-13.5 -12 -71.5 4 q-82 20 -173.5 73 q-91.5 53 -213.5 198 q-73 -49 -136 -73 l-46 -18 q-29 -12 -38 3.5 q-9 15.5 13 35.5 l28 25 q57 51 109 120 q-63 98 -99 186.5 q-36 88.5 -64 227.5 q-75 -6 -231 -30 q-156 -24 -239 -38.5 q-83 -14.5 -203 -59.5 l-56 269 q142 -21 294.5 -22 q152.5 -1 405.5 41 q-15 63 -27.5 105 q-12.5 42 -32.5 86.5 q-20 44.5 -43.5 75.5 q-23.5 31 -20.5 39 q3 8 54 7.5 q51 -0.5 111 -13 q60 -12.5 184 -60.5 q-17 -71 -22 -104 q-5 -33 -8 -90 q82 24 156 68 l-46 46 q-45 44 -37 55.5 q8 11.5 54 3.5 l57 -11 l81 -14 q110 -24 123 -44 q13 -20 12 -51 q-2 -18 -13 -86 q-11 -68 -32.5 -73 q-21.5 -5 -78.5 53 l-81 81 l43 -218 q-72 7 -95 6.5 q-23 -0.5 -142 -7.5 ZM646 863 q-8 -49 -16.5 -101.5 q-8.5 -52.5 -27.5 -144 q-19 -91.5 -36 -146.5 q-17 -55 -50.5 -139.5 q-33.5 -84.5 -58.5 -83.5 q-9 0 -73.5 59 q-64.5 59 -118.5 115 l-37 38 q-31 32 -21 41 q10 9 30 7 l54 -7 q84 -11 104 2 q20 13 25.5 94.5 q5.5 81.5 5.5 84.5 q-1 41 -10.5 95 q-9.5 54 -36 82.5 q-26.5 28.5 -25 34.5 q1.5 6 50.5 7 q37 0 56.5 -3.5 q19.5 -3.5 112.5 -20.5 l72 -14 l0 0 ZM818 716 l151 35 l10 75 l221 -92 q-24 -60 -34 -89 l-30 -87 q-68 -185 -89.5 -202.5 q-21.5 -17.5 -43 -11.5 q-21.5 6 -30.5 54 l-141 -27 q-38 -93 -82 -48 q-17 16 -24.5 46 q-7.5 30 -17 94.5 q-9.5 64.5 -19.5 112 q-10 47.5 -17.5 74 q-7.5 26.5 -22.5 52.5 q-15 26 -11 33 q4 7 34 5 q40 -4 146 -24 ZM837 494 l132 31 l3 106 q-71 -13 -135 -27 l0 -110 ZM518 173 l-24 -73 q-11 -34 -52.5 -117.5 q-41.5 -83.5 -79 -119 q-37.5 -35.5 -52.5 -32.5 q-18 2 -30 26.5 q-12 24.5 -20 63.5 l-17 79 q-4 19 -12 70.5 q-8 51.5 1 53.5 q9 2 37 -20 q28 -22 39 -24 q48 -13 112 45 l64 58 q23 21 31.5 15.5 q8.5 -5.5 2.5 -25.5 ZM1307 84 l-24 42 q-13 22 2.5 37.5 q15.5 15.5 44.5 0.5 l34 -18 q31 -17 96.5 -58.5 q65.5 -41.5 123 -88 q57.5 -46.5 72.5 -57 q15 -10.5 21 -25.5 q6 -15 -48 -57 q-102 -79 -224.5 -108 q-122.5 -29 -221.5 -30 q-247 -5 -367 105 q-120 110 -150.5 170.5 q-30.5 60.5 -53.5 134.5 l-23 71 q-12 36 -0.5 44 q11.5 8 44.5 -30 l37 -44 q110 -132 206.5 -190 q96.5 -58 259.5 -65 q77 -4 140 11 q63 15 68.5 36.5 q5.5 21.5 -12.5 63 q-18 41.5 -25 55.5 ZM1095 835 q-133 3 -211.5 -10.5 q-78.5 -13.5 -185.5 -60.5 l-36 197 q41 -12 79.5 -18.5 q38.5 -6.5 123 4.5 q84.5 11 129.5 33 l79 36 l22 -181 ZM1146 282 l44 27 q27 16 38 8.5 q11 -7.5 -15 -49.5 l-30 -48 q-28 -45 -86.5 -110.5 q-58.5 -65.5 -80.5 -59.5 q-23 5 -40 45.5 q-17 40.5 -26 101.5 l-14 92 q-7 44 7.5 47 q14.5 3 33.5 -23 l20 -28 q17 -25 36 -29.5 q19 -4.5 54 3.5 q35 8 59 23 ZM1476 197 q-48 30 -39.5 45 q8.5 15 32.5 13 l65 -7 q40 -5 116.5 -17.5 q76.5 -12.5 119.5 -17 q43 -4.5 57.5 -22 q14.5 -17.5 16.5 -55.5 q2 -38 -3 -80 q-3 -23 -12.5 -72.5 q-9.5 -49.5 -61.5 -8.5 l-291 222 Z" /><glyph glyph-name="" unicode="&#x627e;" d="M591 566 l-6 252 q-144 -53 -165 -70 l-67 -50 l-77 285 q109 -26 169 -16 l132 17 l-15 164 q-8 86 -27.5 157.5 q-19.5 71.5 -43.5 107 q-24 35.5 -20.5 41 q3.5 5.5 11.5 8.5 q10 4 91 -14 q81 -18 146 -38.5 q65 -20.5 71 -28 q6 -7.5 -8 -44.5 q-9 -24 -14.5 -50 q-5.5 -26 -10.5 -74 q-5 -48 -6 -86 l-3 -94 q63 27 76 37 l52 38 l67 -225 q-127 -3 -157 -12 l-39 -11 l-5 -245 q75 33 114 52 l35 17 q14 6 19 -7 q5 -13 -5 -24 l-31 -32 q-38 -39 -127 -122 q0 -150 1 -177 l5 -201 l4 -196 q1 -95 3.5 -122.5 q2.5 -27.5 -0.5 -43 q-3 -15.5 -10 -23 q-7 -7.5 -46 13.5 q-103 51 -125.5 64 q-22.5 13 -138 89 q-115.5 76 -127 93 q-11.5 17 -8.5 24.5 q3 7.5 20 11.5 q8 1 40.5 -3 q32.5 -4 64.5 -1 q119 7 137 26.5 q18 19.5 23 43 q5 23.5 5 81.5 l-3 215 q-62 -44 -191.5 -130 q-129.5 -86 -151.5 -103 l-143 285 q53 0 139.5 9 q86.5 9 345.5 111 ZM1187 422 q-30 117 -34 140 l-33 158 q-79 -31 -92 -43 l-67 -53 l-106 233 q108 9 131 16 l111 28 l-43 324 q-14 99 -44.5 151 q-30.5 52 -52 76.5 q-21.5 24.5 -17.5 38.5 q4 14 27 12 l63 -8 q79 -11 94 -13 l115 -29 q53 -11 54.5 -19.5 q1.5 -8.5 -12.5 -44.5 q-6 -13 -10 -49 l-14 -90 l-4 -76 q-5 -87 0 -120 l11 -99 q155 54 181 83 l49 49 l115 -249 q-172 -17 -206 -27 l-129 -34 q20 -96 25 -114 l28 -112 q42 42 90 98 q48 56 52.5 95.5 q4.5 39.5 11 42.5 q6.5 3 20.5 0 q18 -6 42 -38 l64 -85 q66 -101 57 -110 q-3 -3 -16 -9 q-13 -6 -83 -56 l-87 -66 l-83 -60 q27 -76 79 -159.5 q52 -83.5 101.5 -138 q49.5 -54.5 90.5 -55 q41 -0.5 58 17.5 q11 11 21 60 l25 105 l6 55 q3 34 11.5 38 q8.5 4 14 1 q5.5 -3 16.5 -33 l25 -73 l35 -109 q36 -111 42 -133 l19 -84 l19 -78 q7 -35 -1.5 -46.5 q-8.5 -11.5 -50.5 -8.5 q-95 5 -220.5 51 q-125.5 46 -235 167 q-109.5 121 -161.5 230 l-46 92 q-73 -43 -157 -78 q-84 -35 -139 -50 l-87 -22 l-25 -7 q-28 -8 -34 6 q-6 14 8 24 l65 44 q159 108 226 167 l87 76 l0 0 ZM1403 1326 q63 -3 122.5 -15 q59.5 -12 75 -26 q15.5 -14 21.5 -34.5 q6 -20.5 0 -64.5 q-10 -63 -28 -96.5 q-18 -33.5 -34 -32.5 q-11 0 -21.5 9 q-10.5 9 -34.5 40 l-46 52 l-48 60 l-73 70 q-19 23 -14 31.5 q5 8.5 80 6.5 Z" /><glyph glyph-name="" unicode="&#x63ed;" d="M643 1081 q58 29 70 38 l56 42 l69 -245 q-41 4 -61 4 l-105 -11 l-40 -2 l-7 -236 l171 103 q32 19 47 5 q15 -14 -22 -53 l-190 -201 l-7 -217 l6 -343 l3 -174 q0 -31 -9.5 -38.5 q-9.5 -7.5 -35.5 10.5 q-4 2 -64.5 38 q-60.5 36 -166.5 117.5 q-106 81.5 -121 91 q-15 9.5 -26 20.5 q-11 11 -9.5 16.5 q1.5 5.5 7.5 10.5 q10 8 41 4 q31 -4 77 2 l65 6 q34 3 45.5 13.5 q11.5 10.5 17.5 38.5 l3 99 l6 180 q-91 -122 -127 -165 l-226 245 q217 52 362 125 l0 252 q-67 -22 -77 -28 l-94 -51 l-88 263 q115 -14 260 0 q-6 82 -12 138.5 q-6 56.5 -19 128 q-13 71.5 -23 106.5 q-10 35 -17.5 51.5 q-7.5 16.5 -3.5 26 q4 9.5 43 -4.5 l67 -20 l73 -31 l81 -31 q29 -14 31 -24 q2 -10 -9 -35 q-10 -22 -21.5 -78 q-11.5 -56 -14.5 -112 l-5 -75 l0 0 ZM991 1296 l373 79 q32 6 42.5 13.5 q10.5 7.5 17.5 49.5 l7 47 l296 -206 q-32 -43 -61 -87 q-29 -44 -97.5 -172.5 q-68.5 -128.5 -92 -163 q-23.5 -34.5 -61 -66 q-37.5 -31.5 -44.5 -22.5 l-50 40 l-121 -24 q29 -16 63 -35 q34 -19 30 -32 l-22 -20 l-32 -27 l281 74 q43 11 54.5 18.5 q11.5 7.5 16.5 42.5 l4 30 l284 -199 q-23 -45 -41 -85 q-18 -40 -40.5 -116 q-22.5 -76 -43.5 -200 q-21 -124 -31.5 -204 q-10.5 -80 -16 -157.5 q-5.5 -77.5 -13.5 -108.5 q-8 -31 -18 -38.5 q-10 -7.5 -47 6.5 q-97 33 -200 91.5 q-103 58.5 -141 98.5 q-38 40 -35.5 51 q2.5 11 64.5 10 q179 -4 192 16 q4 6 7 30 l11 61 q3 18 6.5 48.5 q3.5 30.5 15 119.5 q11.5 89 17 146 q5.5 57 16.5 187 l-294 -62 q34 -23 51.5 -39.5 q17.5 -16.5 18 -25.5 q0.5 -9 -17.5 -32 l-25 -31 q68 -8 117 -15.5 q49 -7.5 60.5 -25 q11.5 -17.5 14.5 -67 q3 -49.5 4.5 -68.5 q1.5 -19 -8 -27.5 q-9.5 -8.5 -31.5 -5.5 l-155 89 l-60 24 q-32 -24 -61.5 -48 q-29.5 -24 -68.5 -52.5 q-39 -28.5 -134 -63.5 l-7 -54 q166 29 255 53.5 q89 24.5 155 58.5 l57 -178 q-94 1 -190 -14 q-96 -15 -162.5 -30 q-66.5 -15 -174.5 -62 l-146 88 q23 41 37 77 q14 36 19 101 q3 54 -17.5 113.5 q-20.5 59.5 -20 67.5 q0.5 8 5 14 q4.5 6 34.5 -1 q56 -15 113 -25 q57 -10 61 -17.5 q4 -7.5 2 -32.5 l-12 -88 q63 52 97 109 q34 57 72 165 q-44 -16 -69 -32 l-41 37 q-33 -17 -61.5 -33 q-28.5 -16 -36.5 -19.5 q-8 -3.5 -89.5 -26 q-81.5 -22.5 -109.5 -17.5 q-16 2 -15 15 q0 4 7 12 q7 8 75 54 q68 46 124.5 114.5 q56.5 68.5 70.5 97.5 l32 61 q-17 -1 -24 -5 l-29 -18 q-29 0 -51.5 67 q-22.5 67 -26 79 q-3.5 12 -14.5 64 q-11 52 -22 98.5 q-11 46.5 -28.5 94.5 q-17.5 48 -43.5 92 q-26 44 -48 69 q-22 25 -20 33 q2 8 39 10 q84 3 202 -38 ZM1390 1160 l13 84 l-359 -83 l8 -66 l338 65 ZM1079 887 l260 50 l25 78 l-292 -60 l7 -68 Z" /><glyph glyph-name="" unicode="&#x6536;" d="M1131 1048 q186 36 287.5 62 q101.5 26 262.5 93 l59 -274 q-82 6 -135 7 q-53 1 -150 -10 q34 -20 50 -30 l57 -39 q37 -24 38.5 -35.5 q1.5 -11.5 -27 -46 q-28.5 -34.5 -57.5 -95.5 q-29 -61 -85.5 -169.5 q-56.5 -108.5 -94.5 -172.5 q148 -120 312.5 -194 q164.5 -74 253.5 -105 l56 -20 q24 -9 28.5 -22 q4.5 -13 -21.5 -26 l-66 -33 q-82 -41 -173.5 -79.5 q-91.5 -38.5 -111.5 -33.5 q-14 2 -38 27 l-138 124 q-23 21 -208 211 q-261 -254 -403 -323 l-53 -26 q-28 -14 -37.5 -1 q-9.5 13 13.5 37 l53 56 q203 213 316 390 q-93 123 -149 203.5 q-56 80.5 -57 83.5 l-46 60 q-31 -35 -71 -65 l-44 -33 q-17 -13 -29.5 -2.5 q-12.5 10.5 4.5 40.5 l33 59 q52 93 86.5 161 q34.5 68 83.5 190.5 q49 122.5 64 195.5 q15 73 20 157 q2 47 -9 86 q-11 39 -5 45 q6 6 46 -9 q36 -15 128.5 -65.5 q92.5 -50.5 135.5 -76.5 q-115 -189 -179 -302 ZM1018 860 q-53 -73 -95 -126 q62 17 73 6 q11 -11 23 -40 q12 -29 67.5 -103.5 q55.5 -74.5 67.5 -83.5 l53 -49 q65 161 86 229.5 q21 68.5 49 222.5 q-161 -28 -324 -56 ZM545 632 q-1 37 -1 56 l1 248 q-1 104 -9.5 225.5 q-8.5 121.5 -23.5 174.5 q-15 53 -44 90.5 q-29 37.5 -24.5 45.5 q4.5 8 49.5 5 q39 -3 142 -30.5 q103 -27.5 134.5 -42.5 q31.5 -15 35.5 -25.5 q4 -10.5 -8 -44.5 q-11 -28 -34 -152.5 q-23 -124.5 -34 -234 q-11 -109.5 -15 -241.5 q-4 -132 -3.5 -351.5 q0.5 -219.5 0 -324.5 q-0.5 -105 -0.5 -149 q-1 -57 0.5 -106.5 q1.5 -49.5 -14 -56 q-15.5 -6.5 -54.5 23.5 q-26 18 -62.5 58 q-36.5 40 -62 72 q-25.5 32 -28.5 51 q-3 19 12 70 q12 42 18.5 103 q6.5 61 14 157 q7.5 96 7.5 136 l0 38 l-242 -240 l-177 168 q22 41 42 82 q20 41 35 105.5 q15 64.5 15.5 172.5 q0.5 108 -9.5 174 q-7 41 -18.5 80 q-11.5 39 -29 71 q-17.5 32 -16 41 q1.5 9 56.5 -7 q107 -33 228 -115 q-14 -73 -19 -109 l-20 -172 l-17 -141 l175 95 Z" /><glyph glyph-name="" unicode="&#x65fa;" d="M614 238 q-111 -56 -193.5 -100.5 q-82.5 -44.5 -194.5 -125.5 l-114 300 l154 14 q-1 137 -2 206 l-5 225 q-1 122 -7.5 175 q-6.5 53 -24.5 116 q-18 63 -33.5 87.5 q-15.5 24.5 -11 36.5 q4.5 12 59.5 -5 q55 -17 65 -21 l67 -32 l198 80 q19 7 26 19.5 q7 12.5 9 33.5 l3 41 l248 -132 q-13 -72 -20.5 -123.5 q-7.5 -51.5 -13 -137.5 q-5.5 -86 -10.5 -198 l-7 -162 q-7 -151 -9.5 -228 q-2.5 -77 -16.5 -142 q-14 -65 -33.5 -69 q-19.5 -4 -56.5 22 q-37 26 -56 73 l-21 47 l0 0 ZM607 400 l0 240 l-162 -61 l-7 -223 q82 17 169 44 ZM438 754 l179 54 l-7 243 l-175 -74 l3 -223 ZM819 157 q123 -13 214 -10 q19 0 195 9 l3 441 q-82 -17 -93 -22 l-125 -54 l-62 287 q153 -17 182 -12 l91 10 l2 310 q-111 -37 -228 -92 l-66 302 q69 -8 127 -10.5 q58 -2.5 182 9.5 q124 12 211.5 34 q87.5 22 222.5 87 l49 -292 q-183 12 -302 -7 l2 -314 q48 10 91.5 22.5 q43.5 12.5 166.5 75.5 l48 -302 q-66 6 -121.5 8.5 q-55.5 2.5 -179.5 -7.5 l3 -441 q122 14 236 45 q114 31 140 44 l90 42 l41 -310 q-104 6 -303 11.5 q-199 5.5 -397.5 -48.5 q-198.5 -54 -351.5 -117 l-68 301 Z" /><glyph glyph-name="" unicode="&#x673a;" d="M524 972 q-1 18 -1 28 l-2 70 q-5 124 -19.5 200 q-14.5 76 -32.5 125 q-18 49 -38 72 q-20 23 -20.5 32 q-0.5 9 5 18.5 q5.5 9.5 53.5 -6.5 l133 -29 l110 -33 q27 -7 29 -14 q2 -7 -2 -23 q-21 -68 -31.5 -155.5 q-10.5 -87.5 -12.5 -138.5 l-7 -119 q148 34 163 45 l59 38 l27 -286 q-103 20 -134 19 l-105 -2 l-4 -111 q142 -37 182.5 -52 q40.5 -15 52 -31.5 q11.5 -16.5 9.5 -63.5 q-3 -55 -14.5 -129.5 q-11.5 -74.5 -52.5 -58.5 q-13 4 -26 32 q-13 28 -48.5 78 q-35.5 50 -43.5 60 l-62 69 q1 -199 3 -362 q2 -163 0 -262 l-7 -178 q-3 -55 -10 -85.5 q-7 -30.5 -14.5 -32.5 q-7.5 -2 -24.5 11 q-31 22 -80 66.5 q-49 44.5 -65 68.5 q-16 24 -17 34 q-1 10 8 37 q10 30 23 154.5 q13 124.5 15 165.5 l7 162 q-146 -141 -224.5 -199 q-78.5 -58 -180.5 -106 l-40 -19 q-41 -20 -44.5 -12 q-3.5 8 -3 13.5 q0.5 5.5 21.5 24.5 l38 35 q13 12 50 54.5 q37 42.5 76.5 94.5 q39.5 52 104 150 q64.5 98 111.5 179 q47 81 67 136 l17 46 q-61 -22 -96 -38.5 q-35 -16.5 -118 -70.5 l-80 316 q49 -11 99 -18 q50 -7 197 1 ZM1132 1102 l123 39 q95 30 106.5 39 q11.5 9 34.5 59 l21 46 l251 -173 q-20 -33 -36 -63.5 q-16 -30.5 -41 -100 q-25 -69.5 -53.5 -169 q-28.5 -99.5 -43 -202.5 q-14.5 -103 -22.5 -311.5 q-8 -208.5 207 -169.5 q58 10 75.5 41.5 q17.5 31.5 23 75 q5.5 43.5 10.5 104 q5 60.5 4 93.5 l-3 64 q-2 24 7 33 q9 9 27 -32 l18 -42 l35 -80 q61 -144 93 -239.5 q32 -95.5 42.5 -119 q10.5 -23.5 8.5 -31.5 q-4 -12 -79 -35.5 q-75 -23.5 -187 -30.5 q-263 -17 -342.5 70 q-79.5 87 -99.5 166 q-20 79 -19 185 q0 88 18 312.5 q18 224.5 24 266.5 l13 106 l-174 -65 q-2 -81 -3.5 -185 q-1.5 -104 -11 -207.5 q-9.5 -103.5 -43.5 -215.5 q-34 -112 -110 -223.5 q-76 -111.5 -232 -241.5 l-42 -35 q-18 -15 -26.5 -5.5 q-8.5 9.5 5.5 29.5 l26 39 q179 268 218.5 433.5 q39.5 165.5 47 251 q7.5 85.5 7 200 q-0.5 114.5 -13.5 171.5 l-12 51 q-12 47 -33 90.5 q-21 43.5 -22.5 59.5 q-1.5 16 3.5 21 q5 5 32 -5 l58 -20 l110 -44 l0 0 Z" /><glyph glyph-name="" unicode="&#x6843;" d="M621 746 q28 -5 42 -8 l87 -24 q53 -14 77.5 -27 q24.5 -13 28 -28.5 q3.5 -15.5 -1.5 -37.5 q-7 -27 -7 -31 l-4 -27 q71 29 187 100 l3 133 q-13 -34 -23 -56 q-10 -22 -19 -24.5 q-9 -2.5 -30 17.5 q-10 8 -40 42.5 q-30 34.5 -60 64 q-30 29.5 -50 54 q-20 24.5 -15.5 31 q4.5 6.5 37.5 4.5 l76 -6 l61 -11 l61 -11 q-5 74 -11 115 q-6 41 -25 107.5 q-19 66.5 -35 97.5 l-29 50 q-8 15 -6 21 q2 6 35 -1 q227 -50 240.5 -71.5 q13.5 -21.5 11.5 -48.5 q-2 -17 -3 -53 q-1 -36 -5 -115.5 q-4 -79.5 -9.5 -228.5 q-5.5 -149 -18 -269 q-12.5 -120 -54 -239 q-41.5 -119 -118.5 -209.5 q-77 -90.5 -158.5 -147 q-81.5 -56.5 -133.5 -79.5 l-60 -27 l-37 -12 q-4 -27 -3.5 -52 q0.5 -25 -14 -26 q-14.5 -1 -31.5 15 q-49 44 -78 76 q-29 32 -44.5 60.5 q-15.5 28.5 -16 36.5 q-0.5 8 3.5 22 q10 40 18.5 87 q8.5 47 17 135.5 q8.5 88.5 10.5 132.5 l6 168 q-28 -47 -50.5 -80 q-22.5 -33 -80 -102 q-57.5 -69 -96 -103 q-38.5 -34 -107.5 -79 l-56 -37 q-19 -13 -29 -1 q-10 12 3 30 l54 71 q64 84 143 227 q79 143 105 204 q26 61 73 203 q-129 -57 -142 -67 l-40 -29 l-80 274 q156 -12 161 -11.5 q5 0.5 132 15.5 q2 112 -1 182.5 q-3 70.5 -20.5 161 q-17.5 90.5 -42 124.5 q-24.5 34 -23 41 q1.5 7 8.5 12.5 q7 5.5 35 -4.5 l111 -25 l98 -29 q36 -11 38 -19.5 q2 -8.5 -5 -25.5 q-10 -23 -15.5 -54.5 q-5.5 -31.5 -11.5 -98.5 q-6 -67 -16 -238 q63 18 74 26 l64 40 l34 -239 q-90 5 -177 -3 l-3 -66 ZM619 656 q2 -174 4.5 -309.5 q2.5 -135.5 2.5 -213.5 q-1 -117 -3 -196 l-3 -89 l53 39 l50 41 q65 53 128.5 158 q63.5 105 92 175 q28.5 70 43.5 132 l21 87 q-81 -84 -162 -173 l-132 206 l37 14 q-65 80 -82 92 l-50 37 l0 0 ZM1421 934 q48 64 62.5 97.5 q14.5 33.5 22.5 69.5 q8 36 3.5 65.5 q-4.5 29.5 0.5 31 q5 1.5 20 -6.5 q27 -16 49 -32 q22 -16 88 -82.5 q66 -66.5 63 -90.5 q-3 -13 -43 -36 q-40 -23 -51 -30 q-11 -7 -63.5 -41 q-52.5 -34 -150.5 -90 l-5 -120 q35 -2 60.5 -4 q25.5 -2 79 -8.5 q53.5 -6.5 86 -8.5 q32.5 -2 42 -11.5 q9.5 -9.5 14 -26.5 q4.5 -17 3 -54.5 q-1.5 -37.5 1 -99 q2.5 -61.5 -13 -67.5 q-15.5 -6 -38.5 9 l-105 74 q-37 25 -131 81 q0 -53 0 -79 l-3 -120 q-3 -88 3 -143 q5 -61 36 -115.5 q31 -54.5 152 -44.5 q101 7 122.5 28 q21.5 21 27.5 72 l6 63 l7 67 l4 59 q1 20 11.5 25 q10.5 5 19.5 -11 l32 -64 q9 -20 44.5 -97.5 q35.5 -77.5 48.5 -110.5 l44 -116 q11 -27 7 -36 q-4 -9 -47.5 -29.5 q-43.5 -20.5 -149.5 -37 q-106 -16.5 -196 -7.5 q-111 9 -179.5 57 q-68.5 48 -97.5 118.5 q-29 70.5 -38.5 174.5 q-9.5 104 -9.5 283 l0 220 l-3 323 q-2 147 -7 216.5 q-5 69.5 -17.5 119 q-12.5 49.5 -28.5 77 q-16 27.5 -17 35 q-1 7.5 0.5 14 q1.5 6.5 34.5 -3.5 q56 -18 132.5 -55 q76.5 -37 98 -50 q21.5 -13 23.5 -22.5 q2 -9.5 -2 -24.5 q-11 -39 -19.5 -98.5 q-8.5 -59.5 -16.5 -132 q-8 -72.5 -16 -173.5 Z" /><glyph glyph-name="" unicode="&#x7231;" d="M1310 73 q108 -45 172.5 -69 q64.5 -24 129.5 -41 l86 -22 l114 -32 l91 -22 q20 -5 22 -17.5 q2 -12.5 -32 -26.5 l-83 -32 l-95 -42 l-105 -34 q-51 -20 -68 -16 q-11 1 -57.5 25.5 q-46.5 24.5 -106.5 69.5 l-128 98 l-73 56 q-75 -54 -185 -122.5 q-110 -68.5 -376 -107.5 l-68 -10 q-56 -9 -59.5 11.5 q-3.5 20.5 29.5 33.5 l82 32 q189 73 271 134 q82 61 165 130 q-28 19 -54 30.5 q-26 11.5 -84 16.5 q-27 2 -54.5 -5 q-27.5 -7 -32.5 -1 q-5 6 -4 17 q0 13 27 44 l42 55 q20 21 29 18 l34 -8 l-24 120 q-80 -127 -160.5 -227.5 q-80.5 -100.5 -218 -192 q-137.5 -91.5 -252.5 -131.5 l-65 -23 q-25 -9 -29 1 q-4 10 14 24 l48 36 q229 171 331 311 q102 140 156 259 q-73 -32 -216 -96 l-37 255 q136 -21 175 -17 l112 7 q7 41 5 76.5 q-2 35.5 5.5 44 q7.5 8.5 44.5 8.5 q131 -1 180.5 -16.5 q49.5 -15.5 51.5 -29.5 l-13 -32 l-7 -22 q91 10 212.5 32 q121.5 22 141.5 29 l146 43 l17 -241 q-159 34 -261 31.5 q-102 -2.5 -313 -21.5 l-39 -55 q58 -7 92 -7 q26 -1 113.5 3 q87.5 4 110.5 11.5 q23 7.5 33 20.5 l23 31 l222 -165 q-44 -37 -74 -64.5 q-30 -27.5 -78 -80.5 l-57 -64 l-19 -21 l0 0 ZM1125 164 q52 52 59 63 l47 71 q-113 -19 -172 -38 l-67 -24 l-27 -9 q25 -10 38 -14 l90 -37 l32 -12 l0 0 ZM1424 1306 q11 -5 60 -21.5 q49 -16.5 85.5 -42 q36.5 -25.5 38.5 -40.5 q2 -15 -56 -46 q-213 -116 -261 -132 l-66 -23 q-35 -12 -39.5 -3.5 q-4.5 8.5 9.5 26.5 l47 59 q22 28 55 85.5 q33 57.5 55 115.5 q-112 -32 -266 -52 q-154 -20 -326.5 -31 q-172.5 -11 -174.5 -10 l-94 14 q-34 5 -26.5 23 q7.5 18 25.5 23 l68 17 q309 77 404.5 109.5 q95.5 32.5 180 74 q84.5 41.5 100.5 59.5 q16 18 25.5 24.5 q9.5 6.5 35.5 -11.5 q2 -2 58.5 -36.5 q56.5 -34.5 100 -78.5 q43.5 -44 42.5 -56 q-2 -18 -81 -47 ZM334 468 q-6 -1 -26 12.5 q-20 13.5 -79 91.5 q-59 78 -50 97 q4 8 14 11 q10 3 44.5 4.5 q34.5 1.5 70.5 29.5 q36 28 57.5 116.5 q21.5 88.5 30 91 q8.5 2.5 27.5 -19.5 q16 -21 30.5 -57.5 q14.5 -36.5 17.5 -84 q3 -47.5 -6 -91.5 q-13 -58 -40.5 -105.5 q-27.5 -47.5 -55.5 -71.5 q-28 -24 -35 -24 ZM1570 1106 l267 -188 q-239 -162 -250 -167 l-68 -33 q-24 -12 -39.5 -2.5 q-15.5 9.5 -9.5 28.5 l8 29 l3 19 l12 38 q-483 -70 -657.5 -103.5 q-174.5 -33.5 -317.5 -84.5 l-34 250 q184 -10 363 -1.5 q179 8.5 362 43.5 q183 35 231.5 42 q48.5 7 65.5 21.5 q17 14.5 27 33.5 l37 75 ZM564 1173 q0 0 8 -7 q8 -7 42.5 -43 q34.5 -36 54.5 -41 q20 -6 66.5 7.5 q46.5 13.5 75 32 q28.5 18.5 35.5 13 q7 -5.5 -6 -35.5 q-4 -9 -27 -34 l-33 -45 q-2 -3 -53 -55 l-34 -35 q-29 -27 -50 -25 q-18 1 -44 26 q-26 25 -38 69.5 q-12 44.5 -14 89 q-2 44.5 5.5 63.5 q7.5 19 11.5 20 ZM911 1202 q2 0 28 -29 q26 -29 36 -34.5 q10 -5.5 32 -5.5 q19 -1 51 9.5 q32 10.5 71 36.5 q39 26 47.5 29 q8.5 3 15 0 q6.5 -3 -2.5 -32 q-27 -84 -88.5 -162.5 q-61.5 -78.5 -98.5 -78.5 q-35 -1 -60.5 46 q-25.5 47 -36.5 103.5 q-11 56.5 -5.5 86 q5.5 29.5 11.5 31.5 Z" /><glyph glyph-name="" unicode="&#x751f;" d="M950 984 l-4 83 q-5 88 -15 146.5 q-10 58.5 -22 99 q-12 40.5 -24.5 73.5 q-12.5 33 -24.5 55 q-12 22 -5.5 28.5 q6.5 6.5 58.5 -5.5 l107 -27 q64 -17 133.5 -48.5 q69.5 -31.5 73 -39.5 q3.5 -8 -12.5 -39 q-13 -24 -21 -75 l-10 -54 q-10 -51 -14 -104 l-6 -65 q183 27 233 48 l145 55 l46 -289 q-95 7 -180.5 10 q-85.5 3 -252.5 -14 q0 -19 -0.5 -88 q-0.5 -69 0.5 -78 l1 -28 q115 21 332 88 l45 -293 q-80 12 -154 18 q-74 6 -225 -9 q-1 -29 -1 -42 l-10 -228 l-1 -29 q248 18 365 39 q117 21 179 45 l168 61 l25 -342 q-200 12 -487 20.5 q-287 8.5 -592 -46 q-305 -54.5 -359 -74.5 l-185 -65 l-34 345 q151 -13 311.5 -16 q160.5 -3 235.5 2 l84 7 l84 7 l4 47 l6 138 l2 107 q-104 -20 -306 -91 l-73 281 q80 -6 142 -6.5 q62 -0.5 241 12.5 q-1 11 0 17 l1 151 l0 29 q-164 -21 -235 -46 l-124 -41 l-25 124 q-19 -19 -34.5 -34.5 q-15.5 -15.5 -21.5 -21.5 l-125 -99 q-61 -50 -79 -59 l-33 -18 q-18 -10 -29 -2 q-11 8 6 30 l22 29 q53 70 128.5 193.5 q75.5 123.5 93.5 182.5 q18 59 23 121 q2 42 -7.5 78.5 q-9.5 36.5 -3.5 41.5 q6 5 33 -3 q46 -15 129 -57 q83 -42 115.5 -63.5 q32.5 -21.5 33.5 -32.5 q1 -11 -10 -28 q-12 -18 -105 -120 q75 -5 245 8 Z" /><glyph glyph-name="" unicode="&#x7684;" d="M788 1007 l282 -124 q-14 -62 -24.5 -114 q-10.5 -52 -27.5 -170 q68 95 131.5 197 q63.5 102 105 243 q41.5 141 50.5 206 q9 65 8 120 q-2 50 -14 90 q-12 40 -4.5 49 q7.5 9 34.5 -4 l92 -41 q60 -29 117.5 -66.5 q57.5 -37.5 60 -47.5 q2.5 -10 -13.5 -37 q-13 -22 -31 -67 q-18 -45 -70 -156 l-72 -152 l183 47 q23 5 30.5 19 q7.5 14 9.5 39 l3 44 l256 -149 q-25 -95 -38.5 -156 q-13.5 -61 -37.5 -198 l-35 -200 q-27 -149 -44 -228 q-17 -79 -42.5 -169.5 q-25.5 -90.5 -60.5 -176.5 q-35 -86 -49 -89.5 q-14 -3.5 -42 13.5 q-127 75 -238 168.5 q-111 93.5 -130 127.5 q-19 34 -14.5 40.5 q4.5 6.5 35.5 0.5 q124 -26 256 -28 q33 -1 46.5 7.5 q13.5 8.5 27 49 q13.5 40.5 37 198 q23.5 157.5 30.5 214 q7 56.5 14 166.5 l9 152 l-312 -78 q-79 -70 -161 -131 q310 -64 324 -88 q14 -24 12 -50 q-5 -54 -22 -110.5 q-17 -56.5 -36.5 -96.5 q-19.5 -40 -30 -40.5 q-10.5 -0.5 -23.5 12.5 q-11 9 -53.5 74.5 q-42.5 65.5 -90.5 125.5 l-76 91 l-43 54 q-43 -28 -91 -57 q-13 -93 -18.5 -145 q-5.5 -52 -13.5 -165.5 q-8 -113.5 -12.5 -188 q-4.5 -74.5 -17 -109.5 q-12.5 -35 -33 -42.5 q-20.5 -7.5 -119.5 67.5 l-266 -50 q-31 -10 -58 -24 q-27 -14 -36 -13 q-16 1 -37 23 q-21 22 -29 55 q-8 33 -7.5 96 q0.5 63 -9.5 226 l-10 199 q-7 115 -13 156 l-18 117 q-62 -41 -110 -60 l-59 -24 q-29 -12 -34.5 -2.5 q-5.5 9.5 8.5 23.5 l52 47 q25 22 82 89 q57 67 96 119 q39 52 101 156.5 q62 104.5 86 191.5 q24 87 26 126 q1 33 -7.5 62 q-8.5 29 -5.5 33 q3 4 29 -9 l92 -45 q84 -45 126.5 -79 q42.5 -34 44.5 -44.5 q2 -10.5 -17 -35.5 q-12 -16 -69.5 -103.5 q-57.5 -87.5 -117.5 -160 q-60 -72.5 -170 -185.5 l264 56 q25 5 39.5 23 q14.5 18 14.5 39 l0 57 ZM532 497 l249 44 l3 185 l-262 -56 l10 -173 ZM548 77 l233 43 l0 234 l-246 -45 l13 -232 Z" /><glyph glyph-name="" unicode="&#x771f;" d="M777 103 q87 -43 106.5 -58.5 q19.5 -15.5 21 -31 q1.5 -15.5 -77.5 -48.5 q-26 -11 -77.5 -45.5 q-51.5 -34.5 -181.5 -103.5 q-130 -69 -214 -94 l-67 -20 q-44 -13 -48 2.5 q-4 15.5 18 32.5 l114 90 q58 46 111.5 104 q53.5 58 122.5 157 q-155 -19 -359 -92 l-43 278 q57 -12 80 -15 q23 -3 147.5 -11 q124.5 -8 197.5 -3 q0 118 -0.5 225 q-0.5 107 -6.5 191.5 q-6 84.5 -17 178.5 q-11 94 -38 143.5 q-27 49.5 -21 61.5 q6 12 214 -47 l139 12 l24 161 q-195 -19 -402 -83 l-40 257 q264 -38 452 -29 q0 43 -0.5 82.5 q-0.5 39.5 -10 81.5 q-9.5 42 -2 53.5 q7.5 11.5 73.5 -9.5 q150 -49 182 -63.5 q32 -14.5 37 -23.5 q0 -3 -20 -54 l-24 -51 q143 14 226 34.5 q83 20.5 176 54.5 l17 -282 q-218 42 -297 42 l-166 3 l-59 -151 l174 17 q49 4 54 10 q5 6 10 38 l7 51 l270 -126 q-26 -88 -43.5 -156 q-17.5 -68 -47.5 -255 l-51 -309 q212 22 272 35.5 q60 13.5 167 57.5 l30 -323 q-223 54 -413 58.5 q-190 4.5 -310 -2 q-120 -6.5 -407 -26.5 ZM785 627 q107 8 229.5 27 q122.5 19 146.5 29 l55 21 l24 -141 q-208 -7 -455 -48 l1 -55 q176 11 253.5 20 q77.5 9 176.5 46 l32 -162 q-49 4 -68 4.5 q-19 0.5 -162 -13.5 l-90 -7 l-143 -16 l-6 -73 l490 35 l26 622 l-509 -51 l0 -71 q178 17 268 31 q90 14 159 45 l25 -146 q-148 -1 -452 -52 l-1 -45 ZM1256 94 l67 -22 q227 -74 275.5 -89 q48.5 -15 59 -34 q10.5 -19 -6.5 -87 l-23 -96 q-19 -60 -39.5 -64 q-20.5 -4 -59.5 32 l-199 221 l-84 83 l-45 49 q-2 1 -2.5 8.5 q-0.5 7.5 8.5 9.5 q9 2 49 -11 Z" /><glyph glyph-name="" unicode="&#x77e5;" d="M133 533 q158 10 256.5 28 q98.5 18 220.5 55 q4 75 4 91 l0 91 q-52 -6 -108 -20 q-114 -102 -186 -152 l-64 -44 q-31 -22 -39 -13 q-8 9 5 30 l44 71 q155 251 183.5 396.5 q28.5 145.5 28.5 224.5 q-1 46 -10 87.5 q-9 41.5 -3 47.5 q6 6 50 -10 l99 -34 l87 -37 q41 -17 55.5 -26 q14.5 -9 18 -19 q3.5 -10 -8.5 -36 q-9 -18 -52.5 -114 q-43.5 -96 -93.5 -183 q222 34 298 84 l101 61 l64 -264 q-69 7 -102 7 l-107 -10 l-71 -6 l0 -101 l0 -72 q111 40 263 112 l58 -250 q-68 4 -117 3.5 q-49 -0.5 -215 -16.5 q-4 -49 -6 -58 l-11 -57 q111 -46 241.5 -111.5 q130.5 -65.5 139 -80 q8.5 -14.5 4.5 -48.5 q-18 -132 -31.5 -175.5 q-13.5 -43.5 -29 -65 q-15.5 -21.5 -25 -22.5 q-9.5 -1 -25.5 21 q-13 15 -79 121 q-66 106 -228 256 q-42 -78 -85 -145.5 q-43 -67.5 -149 -159 q-106 -91.5 -259 -136.5 l-71 -21 q-32 -10 -38.5 1 q-6.5 11 18.5 30 l67 51 q72 55 119.5 93.5 q47.5 38.5 132.5 155.5 q85 117 106 222 l17 78 q-230 -93 -263 -115 l-98 -61 l-106 245 ZM1555 326 l-169 -34 q-26 -49 -48 -55.5 q-22 -6.5 -53 28.5 q-29 31 -39 61 q-10 30 -31 131 l-24 101 q-13 54 -18.5 72.5 q-5.5 18.5 -29.5 75.5 q-24 57 -44.5 79.5 q-20.5 22.5 -22.5 30.5 q-2 8 0.5 15 q2.5 7 36.5 1 q5 -2 51 -8 q46 -6 90 -23 l328 91 q20 5 29 18 q9 13 15 43 l7 38 l277 -162 q-86 -202 -152.5 -382.5 q-66.5 -180.5 -86 -187 q-19.5 -6.5 -56 16.5 q-36.5 23 -60.5 50 ZM1384 450 l171 41 l44 236 l-249 -67 l34 -210 Z" /><glyph glyph-name="" unicode="&#x79d8;" d="M1154 332 q-39 96 -55.5 156.5 q-16.5 60.5 -28.5 179.5 l-8 76 l-7 61 q-2 17 11 19.5 q13 2.5 21 -16.5 l27 -67 q62 -156 115 -237 q66 184 97.5 300.5 q31.5 116.5 45 205 q13.5 88.5 16.5 139.5 q3 51 5 91 q1 48 -7.5 74.5 q-8.5 26.5 -5.5 31 q3 4.5 29 -3.5 q22 -8 72 -31 l99 -44 q39 -19 62 -35 q23 -16 25.5 -26.5 q2.5 -10.5 -10.5 -36.5 q-22 -42 -49.5 -121.5 q-27.5 -79.5 -66.5 -188.5 q156 13 253 10 q41 -2 55.5 -15.5 q14.5 -13.5 34 -84.5 q19.5 -71 26.5 -104 l13 -70 q8 -43 1 -44 q-7 -1 -21 7 q-14 7 -59 40 q-45 33 -143 85 q-98 52 -188 91 q-97 -254 -119 -296 l-61 -118 q33 -25 76 -46.5 q43 -21.5 157 -11.5 q32 2 41 12 q9 10 9.5 45.5 q0.5 35.5 0.5 46.5 l-6 78 l-3 54 q-2 20 6 23.5 q8 3.5 23 -13.5 l36 -44 q5 -8 55 -81 l66 -97 q72 -123 71 -132 q-2 -14 -75 -50.5 q-73 -36.5 -202 -47.5 q-201 -18 -343 101 q-46 -55 -114.5 -130.5 q-68.5 -75.5 -176.5 -134.5 l-62 -34 q-21 -12 -29.5 -1.5 q-8.5 10.5 13.5 35.5 l56 64 q38 43 94 120 q56 77 73 111 l55 105 l0 0 ZM1062 531 q1 -1 1.5 -29 q0.5 -28 -5.5 -79 q-10 -72 -20.5 -107.5 q-10.5 -35.5 -33 -84 q-22.5 -48.5 -38.5 -51 q-16 -2.5 -35 19.5 q-48 52 -55.5 68.5 q-7.5 16.5 -28 78.5 q-20.5 62 -23 74 q-2.5 12 2.5 15.5 q5 3.5 20 -3.5 l25 -20 q14 -12 34 -13 q20 -2 42.5 9.5 q22.5 11.5 38.5 30.5 l51 75 q20 17 24 16 ZM1318 1214 q-20 -104 -40.5 -176 q-20.5 -72 -59.5 -116.5 q-39 -44.5 -55 -46 q-16 -1.5 -43 33.5 q-29 36 -56.5 90 q-27.5 54 -37 83 q-9.5 29 -5.5 32 q4 3 24 -6 q58 -31 81 -30 q23 0 60 24.5 q37 24.5 84.5 69 q47.5 44.5 47.5 42.5 ZM528 734 q-179 -72 -189 -78 l-94 -55 l-87 270 q58 -7 119 -8.5 q61 -1.5 268 30.5 q1 81 -2 101 l-10 71 q-134 -54 -172 -65 l-84 -26 q-31 -10 -31.5 7 q-0.5 17 13.5 27 l65 46 q36 25 113 92.5 q77 67.5 135.5 137.5 q58.5 70 60 109.5 q1.5 39.5 5 42 q3.5 2.5 17.5 -2.5 q78 -32 172 -88 q94 -56 91 -69 q-2 -7 -21 -23.5 q-19 -16.5 -256 -144.5 l98 -16 q-16 -54 -16 -63 l-7 -91 q89 30 176 73 l48 -237 q-91 12 -108 11 l-120 -4 l0 -44 q24 -7 103.5 -27 q79.5 -20 89 -34 q9.5 -14 9.5 -33 q-1 -19 -18.5 -93.5 q-17.5 -74.5 -37 -78.5 q-19.5 -4 -44.5 34 q-20 28 -105 128 q1 -179 3 -328 q2 -149 3 -246 q0 -99 -0.5 -154 q-0.5 -55 0.5 -95.5 q1 -40.5 -11.5 -44 q-12.5 -3.5 -31.5 5.5 q-17 7 -60 49 l-50 44 q-15 14 -27.5 30 q-12.5 16 -13.5 25 q-1 9 4 29 q5 21 10 97 l11 115 q5 66 7 135 l3 159 q-98 -151 -155 -208.5 q-57 -57.5 -123 -107.5 q-66 -50 -127 -76 l-75 -32 q-16 -7 -22.5 2 q-6.5 9 6.5 23 l59 61 q104 108 174 211 q70 103 123 191 q53 88 68 121 l44 95 l0 0 Z" /><glyph glyph-name="" unicode="&#x80fd;" d="M1228 1028 q0 -25 -0.5 -43 q-0.5 -18 2.5 -28 q5 -25 31 -46 q26 -21 79 -22 q42 -2 100.5 14.5 q58.5 16.5 73 34.5 q14.5 18 21 57 q6.5 39 8.5 72.5 q2 33.5 11.5 40 q9.5 6.5 52.5 -35.5 q26 -28 51 -62.5 q25 -34.5 50 -72.5 l50 -78 q17 -28 14 -37 q-5 -11 -129.5 -54 q-124.5 -43 -265.5 -44 q-60 -1 -119.5 12 q-59.5 13 -100 47 q-40.5 34 -59.5 77.5 q-19 43.5 -23 84.5 q-4 41 -8 140 l-7 125 q-6 109 -9 141 q-3 32 -18.5 67 q-15.5 35 -9 44 q6.5 9 45.5 -2 l54 -16 q57 -18 75 -24 l74 -31 q25 -9 27.5 -15.5 q2.5 -6.5 -9.5 -29.5 q-14 -27 -28 -81 q-14 -54 -16 -71 l-14 -97 q38 21 61 36.5 q23 15.5 74.5 62.5 q51.5 47 71 74.5 q19.5 27.5 26 61 q6.5 33.5 13.5 36.5 q7 3 37 -14 l57 -34 q130 -78 123 -97 q-6 -14 -45 -31 l-97 -47 q-133 -63 -325 -115 ZM485 970 l337 68 q-15 25 -25 40.5 q-10 15.5 -36 47.5 q-26 32 -22 40.5 q4 8.5 51 -0.5 q65 -14 132.5 -54 q67.5 -40 88.5 -56.5 q21 -16.5 24 -30 q3 -13.5 -2 -34.5 q-11 -42 -41.5 -116 q-30.5 -74 -49.5 -78 q-13 -3 -34 45 l-47 105 q-30 -15 -45.5 -21.5 q-15.5 -6.5 -170 -68.5 q-154.5 -62 -195.5 -92 l-64 -45 l-141 180 q26 18 38 29 q12 11 60 71 q48 60 61.5 79.5 q13.5 19.5 42.5 85 q29 65.5 37.5 102.5 q8.5 37 14.5 99 q4 51 -6.5 87 q-10.5 36 -3.5 44.5 q7 8.5 51 -20.5 l61 -41 q98 -67 129 -95 q31 -28 29 -40 q-2 -7 -15 -20 q-13 -13 -41 -49 l-48 -59 l-66 -86 q-32 -40 -104 -117 ZM525 666 l234 58 q27 6 34.5 14.5 q7.5 8.5 9.5 26.5 l4 37 l229 -105 q-10 -46 -20 -105.5 q-10 -59.5 -17.5 -212.5 q-7.5 -153 -9.5 -246 l-3 -185 q-2 -89 5 -147 q7 -58 -4.5 -65 q-11.5 -7 -54.5 10 q-69 25 -87.5 34.5 q-18.5 9.5 -83.5 54 q-65 44.5 -86 66.5 l-47 47 q-23 22 -18.5 31.5 q4.5 9.5 41.5 13.5 l71 6 q47 2 61 15.5 q14 13.5 17 64.5 l7 125 q4 98 3 135 l-7 267 l-250 -68 l-1 -111 q103 36 132 57 l50 34 l48 -165 q-67 -4 -112 -16 q-45 -12 -122 -41 l2 -60 q86 19 188 70 l42 -156 q-108 2 -224 -35 q-1 -38 -0.5 -91 q0.5 -53 -3.5 -124 q-4 -71 -3.5 -102.5 q0.5 -31.5 -12 -34.5 q-12.5 -3 -35.5 10 q-26 14 -58.5 49.5 q-32.5 35.5 -57.5 60.5 q-25 25 -27 37 q-2 12 7 42 q10 35 16.5 120 q6.5 85 8.5 126.5 q2 41.5 4.5 146.5 q2.5 105 0.5 153 l-4 78 q-2 37 -11 68 q-9 31 -4 36 q5 5 36 -1 l59 -12 l54 -11 l0 0 ZM1298 341 q156 119 181 159.5 q25 40.5 33 71.5 q6 27 -2 54 q-8 27 -1.5 36 q6.5 9 43.5 -12 l68 -40 q23 -14 56 -47.5 q33 -33.5 49.5 -58.5 q16.5 -25 16.5 -30 q-3 -12 -89 -61 q-86 -49 -178 -98 q-92 -49 -175 -101 q-8 -48 -3.5 -81 q4.5 -33 28.5 -56 q24 -23 75.5 -32.5 q51.5 -9.5 101.5 -5.5 q49 3 91.5 18.5 q42.5 15.5 63 38 q20.5 22.5 27.5 71.5 l4 85 q2 39 12.5 42.5 q10.5 3.5 37.5 -22.5 q28 -29 71.5 -108 q43.5 -79 63.5 -126.5 q20 -47.5 19 -55.5 q-3 -10 -24 -31.5 q-21 -21.5 -123 -66 q-102 -44.5 -300 -43.5 q-93 0 -169.5 25.5 q-76.5 25.5 -111.5 99 q-35 73.5 -38 121.5 q-3 48 -4 156.5 q-1 108.5 -5.5 176.5 q-4.5 68 -9.5 114.5 q-5 46.5 -26.5 89.5 q-21.5 43 -11.5 48 q10 5 28 1 l74 -20 q57 -16 116.5 -39.5 q59.5 -23.5 61.5 -33 q2 -9.5 -5 -28.5 q-15 -38 -21 -68 l-16 -108 l-9 -35 l0 0 Z" /><glyph glyph-name="" unicode="&#x82b1;" d="M709 1256 q-5 17 -11 36 q-6 19 -30.5 54.5 q-24.5 35.5 -62 62 q-37.5 26.5 -35.5 35 q2 8.5 46 13.5 q44 5 95 1 q85 -8 131 -21 q46 -13 51.5 -22.5 q5.5 -9.5 -1.5 -44.5 q-4 -18 -7 -49 l-5 -50 q135 6 275 18 q3 32 3.5 51.5 q0.5 19.5 -6.5 65.5 q-7 42 -24 71 q-17 29 -14.5 35 q2.5 6 46.5 1 l73 -9 q22 -5 77.5 -20.5 q55.5 -15.5 79.5 -28 q24 -12.5 26.5 -21.5 q2.5 -9 -14.5 -35 q-16 -25 -36 -88 q221 55 240 63 l78 29 l20 -285 q-211 31 -390 30 q-60 -84 -72 -99 q-12 -15 -49.5 -50.5 q-37.5 -35.5 -67 -47.5 q-29.5 -12 -45 1.5 q-15.5 13.5 4 59.5 q19.5 46 50.5 136 q-129 -7 -255 -14 q-5 -43 -8 -101.5 q-3 -58.5 -37 -62 q-34 -3.5 -53 25.5 q-19 29 -32 70 l-15 46 q-126 -38 -164 -52 l-96 -39 l-81 -33 l-88 264 q266 -13 403 4 ZM655 532 l74 -39 q-9 -24 -15.5 -45.5 q-6.5 -21.5 -13 -68 q-6.5 -46.5 -5.5 -125.5 l3 -430 q0 -72 -9 -74.5 q-9 -2.5 -31 9.5 q-56 26 -108.5 72 q-52.5 46 -68.5 65 q-16 19 -18.5 30.5 q-2.5 11.5 3.5 32.5 l21 76 q14 54 23 124.5 q9 70.5 13 137.5 l6 117 q-139 -104 -296 -187 l-53 -28 q-37 -20 -43.5 -3 q-6.5 17 18.5 41 l46 43 q187 175 279.5 327.5 q92.5 152.5 104.5 228 q12 75.5 13 115 q1 39.5 9 42 q8 2.5 17 1.5 q23 -4 45.5 -17.5 q22.5 -13.5 72 -45.5 q49.5 -32 64.5 -44 l49 -43 q23 -16 24 -23 q1 -7 -14 -25 q-6 -7 -37 -49 l-61 -78 q-63 -81 -64 -82 l-48 -55 l0 0 ZM1216 476 q201 176 243.5 236.5 q42.5 60.5 51 97.5 q8.5 37 16.5 41.5 q8 4.5 37 -13.5 q34 -22 63.5 -50.5 q29.5 -28.5 72.5 -80 q43 -51.5 42 -58.5 q-2 -10 -40.5 -27 q-38.5 -17 -90.5 -51 l-155 -105 q-46 -30 -250 -153 q-4 -113 9 -173 q13 -60 56.5 -100.5 q43.5 -40.5 184.5 -30.5 q56 4 108.5 19 q52.5 15 88.5 45 q36 30 44 106 l9 86 q3 29 10 51.5 q7 22.5 25.5 0.5 q18.5 -22 36.5 -57 l34 -68 q34 -70 44 -91 l37 -92 l37 -83 q6 -18 3 -23 q-4 -6 -69.5 -25.5 q-65.5 -19.5 -190.5 -42 q-125 -22.5 -275 -21.5 q-108 0 -164 20.5 q-56 20.5 -113.5 72 q-57.5 51.5 -55.5 87.5 l-28 260 q-89 -44 -104 -49 l-61 -23 q-20 -8 -27 2 q-7 10 22 34 l51 42 q34 28 119 112 l1 153 q0 69 -3.5 130 q-3.5 61 -13 97.5 q-9.5 36.5 -24 65 q-14.5 28.5 -34.5 49.5 q-20 21 -18 28 q2 7 36 5 q17 -2 169 -41 l91 -26 q42 -12 44 -22 q2 -10 -8 -35 q-11 -25 -20 -77 l-20 -103 l-21 -120 Z" /><glyph glyph-name="" unicode="&#x89e3;" d="M341 971 q-53 -31 -89.5 -55 q-36.5 -24 -75.5 -36.5 q-39 -12.5 -43 -2 q-4 10.5 25 42.5 l30 33 q14 15 52 66 l99 131 q75 108 100.5 176 q25.5 68 36 110.5 q10.5 42.5 14 74.5 q3.5 32 11 37 q7.5 5 44.5 -15 l73 -36 q20 -11 58 -36.5 q38 -25.5 55 -40 q17 -14.5 19 -27 q2 -12.5 -24 -38.5 l-34 -34 l-27 -27 q72 10 139 20 l40 65 l194 -140 q-40 -33 -59 -49 l-128 -129 l-119 -114 l155 27 l7 80 l222 -108 q-45 -124 -57 -191.5 q-12 -67.5 -13 -189.5 l-2 -171 q38 67 52 102 q14 35 26 85 q12 50 12 79 l-9 74 q-1 12 2.5 18 q3.5 6 32.5 2 l86 -10 q76 -10 90 -34 q5 -10 -22 -61 l-29 -51 q64 2 119 8 q-3 44 -8 71.5 q-5 27.5 -27.5 71 q-22.5 43.5 -18.5 49.5 q4 6 32 3 q53 -7 103 -26 q50 -19 92 -28 q42 -9 42.5 -17.5 q0.5 -8.5 -6.5 -29.5 l-7 -40 l-6 -34 q90 24 173 57 l10 -206 q-81 14 -96 14 l-108 0 l-3 -114 q179 21 210 36 l85 36 l18 -232 q-199 18 -214 17 l-104 -8 q-6 -102 -11.5 -187 q-5.5 -85 -16.5 -153.5 q-11 -68.5 -36 -127.5 q-25 -59 -44 -59.5 q-19 -0.5 -41.5 52.5 q-22.5 53 -30.5 171.5 q-8 118.5 -4 153.5 l11 145 q-185 -40 -240 -67 l-58 -28 l-15 224 q54 -9 106 -13.5 q52 -4.5 217 15.5 l2 122 q-130 -26 -142 -34 l-47 -27 l-7 44 q-40 -26 -60 -37 l-74 -39 l-34 -22 q-5 -28 -10 -73 q-5 -45 7 -163 q8 -82 11.5 -136 q3.5 -54 12.5 -105 q9 -51 8.5 -77 q-0.5 -26 -12 -31.5 q-11.5 -5.5 -44.5 9.5 q-75 33 -81.5 36.5 q-6.5 3.5 -78 47 q-71.5 43.5 -76.5 48.5 l-51 44 q-58 -164 -75 -166 q-17 -2 -37 24 q-22 27 -31.5 88.5 q-9.5 61.5 -11.5 95.5 q-6 69 0 135 l9 123 l-79 -11 q-18 -48 -34.5 -86.5 q-16.5 -38.5 -91 -168 q-74.5 -129.5 -193.5 -176.5 l-61 -24 q-20 -8 -30.5 0 q-10.5 8 6.5 31 l34 44 q20 26 66.5 95.5 q46.5 69.5 76.5 135.5 q30 66 54 161 q24 95 37 211 q13 116 10 236 q-4 119 -18 174 l-22 90 l0 0 ZM387 1000 q72 -51 142 -94 l64 14 l150 232 l-199 -23 l-157 -129 ZM527 386 q32 2 66 10 l4 112 l-66 -7 l-4 -115 ZM536 633 l67 6 l7 149 l-71 -14 l-3 -141 ZM877 838 l-114 -23 l-4 -159 q44 16 87 44 l7 -196 q-37 14 -44 14 l-50 0 l-3 -98 q46 13 90 27 l4 -182 q-47 8 -96 8 q-1 -106 -2 -127 l-7 -118 q39 0 74 -1.5 q35 -1.5 48 11.5 q8 8 7 38.5 q-1 30.5 6.5 96 q7.5 65.5 6.5 196.5 l-7 318 l-3 151 l0 0 ZM1292 1198 q-87 -33 -172 -76 l-21 267 q149 -23 249 -21 l175 8 q72 1 91 19.5 q19 18.5 24 44.5 l9 43 l232 -185 q-33 -52 -61.5 -103 q-28.5 -51 -52 -113 q-23.5 -62 -53 -150 q-29.5 -88 -36 -125.5 q-6.5 -37.5 -22.5 -46 q-16 -8.5 -98 47.5 l-92 61 l-70 54 l-54 40 q-53 -44 -101.5 -90.5 q-48.5 -46.5 -71.5 -61.5 l-50 -33 q-14 -10 -20.5 -4.5 q-6.5 5.5 0.5 20.5 l20 41 q9 19 63.5 111 q54.5 92 82.5 172 l29 80 l0 0 ZM1607 1240 l-135 -14 q23 -6 31 -15 q8 -9 7.5 -24 q-0.5 -15 -46.5 -58 l-54 -75 l-44 -58 q107 -4 131 -2 q24 2 43 13 q19 11 33 71 l17 84 l17 78 l0 0 Z" /><glyph glyph-name="" unicode="&#x8d22;" d="M993 111 q68 66 99 99 q31 33 107 133.5 q76 100.5 127.5 182 q51.5 81.5 71.5 135.5 l39 100 q-97 -23 -180 -54.5 q-83 -31.5 -155 -77.5 l-89 284 q132 -7 236.5 -0.5 q104.5 6.5 236.5 26.5 q-3 51 -5 107 q-2 56 -6 96 q-4 40 -22.5 134 q-18.5 94 -34.5 130 l-28 60 q-8 22 -3 27 q5 5 25 1 q38 -9 100 -33 q62 -24 124 -50.5 q62 -26.5 66.5 -40 q4.5 -13.5 -1.5 -42.5 q-12 -50 -16 -85.5 q-4 -35.5 -12.5 -118.5 q-8.5 -83 -8.5 -96 l-3 -61 q41 7 75 16.5 q34 9.5 156 73.5 l35 -294 q-56 13 -105 21 q-49 8 -164 7 q-1 -84 -0.5 -113 q0.5 -29 3.5 -211 l3 -260 q1 -156 5 -253.5 q4 -97.5 4.5 -139.5 q0.5 -42 4 -72.5 q3.5 -30.5 -4.5 -37.5 q-8 -7 -38 0 q-48 11 -186.5 86 q-138.5 75 -195.5 137.5 q-57 62.5 -54 67.5 q3 5 17 6 q11 1 35.5 0 q24.5 -1 80.5 0 q126 3 148 31 q9 12 6.5 46 q-2.5 34 2.5 153 l0 165 l1 79 q-83 -116 -160 -192.5 q-77 -76.5 -134.5 -118.5 q-57.5 -42 -204.5 -114 q-2 -21 -9 -107.5 q-7 -86.5 -44.5 -68 q-37.5 18.5 -68 72 q-30.5 53.5 -104.5 131 q-74 77.5 -140 132.5 q-22 -44 -56 -102.5 q-34 -58.5 -109.5 -122 q-75.5 -63.5 -160.5 -103 q-85 -39.5 -127 -53.5 l-60 -20 q-25 -9 -33.5 -4 q-8.5 5 -8.5 12 q0 7 18 23 l38 32 q68 57 188 166 q120 109 159.5 262 q39.5 153 53 264.5 q13.5 111.5 13.5 160.5 l-7 112 q-4 62 -10.5 80.5 q-6.5 18.5 -17.5 37 q-11 18.5 -9.5 27 q1.5 8.5 6 13 q4.5 4.5 31.5 -4.5 q4 -2 55 -10 l111 -37 q33 -11 36 -18 q3 -7 -10 -40 q-6 -16 -8.5 -39.5 q-2.5 -23.5 -8.5 -66 q-6 -42.5 -19.5 -207.5 q-13.5 -165 -34.5 -258 l-11 -49 q302 -97 319.5 -108.5 q17.5 -11.5 19.5 -15.5 l11 -30 l0 0 ZM765 1161 l-291 -80 l-19 -551 q-4 -87 -10 -150.5 q-6 -63.5 -20 -69 q-14 -5.5 -46 18.5 l-80 58 q-37 26 -40.5 43.5 q-3.5 17.5 17.5 67.5 q11 27 19 71.5 q8 44.5 10 149 q2 104.5 1.5 141 q-0.5 36.5 -6.5 155.5 l-5 93 l-10 77 q-3 35 -11.5 58 q-8.5 23 -4 27.5 q4.5 4.5 19.5 5.5 q15 0 52 -16.5 q37 -16.5 107 -32.5 l269 68 q18 4 28.5 17 q10.5 13 15.5 43 l7 45 l272 -144 q-21 -49 -32 -84.5 q-11 -35.5 -24 -115 q-13 -79.5 -15 -117.5 l-33 -524 q-8 -112 -25 -128.5 q-17 -16.5 -48 9.5 l-103 84 q-30 24 -32 37.5 q-2 13.5 13 63.5 q2 9 8 63 l7 66 l9 551 Z" /><glyph glyph-name="" unicode="&#x8fd0;" d="M1385 801 q-136 -200 -244 -334 q161 28 335 65 q-27 41 -40 63 l-21 34 l-17 27 q-11 17 -3 27 q8 10 23 4 l51 -21 q24 -10 115.5 -63.5 q91.5 -53.5 136 -92 q44.5 -38.5 48 -56 q3.5 -17.5 -9.5 -48.5 q-7 -15 -47.5 -103.5 q-40.5 -88.5 -76.5 -85.5 q-16 1 -27 19.5 q-11 18.5 -38 80.5 l-40 93 q-264 -82 -385 -139 l-137 -63 l-106 229 q58 49 85 79 q27 30 79 107.5 q52 77.5 75 140.5 q-16 -5 -86 -25 q-70 -20 -90 -28 l-84 -35 l-68 294 q58 -13 132.5 -23.5 q74.5 -10.5 298.5 13.5 q224 24 315 49 q91 25 176 68 l44 -273 q-143 18 -193 14 l-147 -10 l-54 -7 ZM435 218 q93 129 163 239 l-202 -68 l-85 162 q69 82 78 95 l118 172 q-116 -46 -142 -63 l-81 -51 l-91 260 q110 -5 192 -3 q135 2 159 16.5 q24 14.5 34 30.5 l30 47 l196 -186 q-44 -33 -60.5 -48 q-16.5 -15 -77.5 -83 l-129 -146 l91 14 q24 3 42.5 13.5 q18.5 10.5 22.5 19.5 l23 44 l176 -209 q-65 -46 -105.5 -79.5 q-40.5 -33.5 -93.5 -89.5 l-65 -71 l-34 -37 q95 -6 168 -19.5 q73 -13.5 307.5 -67 q234.5 -53.5 402 -76.5 q167.5 -23 247.5 -26 l108 -3 l124 -4 q34 -1 38.5 -12 q4.5 -11 -24.5 -30 l-71 -48 q-18 -13 -101 -64 l-121 -77 q-69 -44 -105 -45 q-38 -2 -148.5 55.5 q-110.5 57.5 -288 126.5 q-177.5 69 -249 86 q-71.5 17 -226.5 44.5 q-155 27.5 -236 14.5 q-17 -3 -89.5 -22 q-72.5 -19 -120 -44 q-47.5 -25 -56 -16 q-8.5 9 8.5 58 q1 2 38.5 70.5 q37.5 68.5 49.5 82.5 q12 14 28 19.5 q16 5.5 64 10.5 l93 7 l0 0 ZM595 1122 q-2 -1 -40 31 q-38 32 -113.5 118 q-75.5 86 -118.5 126.5 q-43 40.5 -39.5 48 q3.5 7.5 23.5 11.5 q14 2 51 -4 l105 -10 l121 -21 q61 -7 72.5 -21 q11.5 -14 -0.5 -73 l-18 -88 q-12 -55 -26 -86.5 q-14 -31.5 -17 -31.5 ZM1604 1426 l51 -257 q-93 4 -161.5 3 q-68.5 -1 -156.5 -14 q-88 -13 -182 -34.5 q-94 -21.5 -201 -66.5 l-76 256 q212 -16 379 14 q167 30 222 52 l125 47 l0 0 Z" /><glyph glyph-name="" unicode="&#x907f;" d="M1310 1122 q3 0 20.5 -29.5 q17.5 -29.5 26 -33 q8.5 -3.5 41.5 12.5 q37 18 50 26 l43 27 q23 13 27.5 9 q4.5 -4 -6.5 -28 q-21 -45 -71.5 -112.5 q-50.5 -67.5 -86 -98.5 q-35.5 -31 -55.5 -18 q-14 8 -18 35.5 q-4 27.5 -4.5 89 q-0.5 61.5 12 90.5 q12.5 29 21.5 30 ZM700 413 q-49 -44 -62 -57 q-13 -13 -75 -81 l-104 -115 q77 -10 116 -16 l174 -30 q0 -1 273 -32 l197 -24 q132 -14 253 -12 q190 2 362 38 l68 14 q28 5 40.5 -7.5 q12.5 -12.5 -6.5 -37.5 l-37 -49 q-27 -35 -153.5 -139.5 q-126.5 -104.5 -175.5 -111.5 q-22 -4 -107.5 14 q-85.5 18 -155.5 36 l-297 78 l-300 75 l-219 59 q-94 23 -150 21 q-53 -3 -107 -22.5 q-54 -19.5 -71 -23.5 q-17 -4 -24 3 q-7 7 4 39 q9 28 32.5 77.5 q23.5 49.5 43.5 57.5 l35 3 l61 7 l180 243 q-112 -35 -177 -64 l-48 186 q48 50 53 57 l107 145 q-116 -41 -155 -66 l-60 -38 l-89 262 q99 -12 203 0.5 q104 12.5 120 24.5 q16 12 34 47 l21 41 l169 -217 q-94 -81 -137.5 -125.5 q-43.5 -44.5 -112.5 -119.5 l134 30 l52 54 l103 -165 q37 149 51.5 245.5 q14.5 96.5 19 198.5 q4.5 102 2.5 186 q-3 67 -10 111.5 q-7 44.5 -16 67.5 l-24 46 q-15 31 -9 37 q6 6 33 2 l70 -12 q62 -16 65 -15 l46 4 l83 19 q20 4 27 46 l7 46 l183 -142 q65 -1 182 9 q-19 26 -40.5 57 q-21.5 31 -54.5 73.5 q-33 42.5 -27 57 q6 14.5 103 -3.5 q97 -18 120 -24 q23 -6 35.5 -20 q12.5 -14 2.5 -55 l-12 -54 q41 10 82.5 23.5 q41.5 13.5 139.5 70.5 l44 -231 q-83 7 -167 11 q24 -21 36 -31 l34 -33 q23 -23 24.5 -35.5 q1.5 -12.5 -18 -44.5 q-19.5 -32 -155.5 -193 q127 37 161 63 l60 43 l33 -235 q-47 1 -82 0 q-35 -1 -144 -18 l2 -123 q101 35 175 76 l30 -245 q-78 9 -92 9 l-110 -3 q-1 -70 -3.5 -107.5 q-2.5 -37.5 -9.5 -94 q-7 -56.5 -22 -124 q-15 -67.5 -35.5 -63 q-20.5 4.5 -39.5 54 q-19 49.5 -27.5 107.5 q-8.5 58 -11.5 110 l-6 86 q-107 -43 -169 -77 l-21 230 q84 -9 110 -4 l77 12 l-7 130 q-58 -20 -66 -26 l-68 -45 l-21 82 q-6 -19 -16 -53 q-10 -34 -22 -74.5 q-12 -40.5 -26 -132.5 l-20 -128 l-17 -84 q-14 -72 -33 -74 q-19 -2 -80 67 l-77 -12 q-61 -155 -88 -75.5 q-27 79.5 -33.5 185 q-6.5 105.5 -6.5 112.5 l-6 70 q-34 -90 -50.5 -127.5 q-16.5 -37.5 -47.5 -91.5 q-31 -54 -57 -85 l-44 -53 q-28 -34 -37.5 -21 q-9.5 13 -1.5 35 l31 91 l20 55 l30 82 l0 0 ZM1237 1277 l-67 -232 l-34 -141 q-15 -33 -30 -36 q-21 -5 -78 38 l-102 -22 l-16 -99 l73 -34 l74 15 q15 3 21 15 l3 32 l7 30 l187 -89 l-28 109 q86 -9 104 -7 l97 7 q22 46 54 118.5 q32 72.5 71 232.5 q-176 -24 -233 -56 l-69 -37 l-34 156 ZM933 1012 l96 22 l13 193 l-104 -30 l-5 -185 ZM987 370 l87 12 l10 252 l-104 -22 l7 -242 ZM440 1153 l-196 253 q-33 41 -27 50 q6 9 38 9 q44 -1 132 -26.5 q88 -25.5 127 -46.5 q39 -21 48 -37.5 q9 -16.5 7 -49.5 q-3 -26 -22 -112 q-19 -86 -42 -91 q-23 -5 -65 51 Z" /><glyph glyph-name="" unicode="&#x9631;" d="M666 1457 l224 -185 q-194 -193 -355 -335 q45 -10 87.5 -24 q42.5 -14 105.5 -67 q63 -53 75 -106.5 q12 -53.5 14 -107 q2 -53.5 -5 -118 q-7 -64.5 -45 -179.5 q-158 72 -335 219 q5 -74 8 -121.5 q3 -47.5 4.5 -216.5 q1.5 -169 -2.5 -231 l-9 -118 q-3 -68 -19 -74 q-16 -6 -35 7 q-22 13 -75 58 q-53 45 -68.5 64.5 q-15.5 19.5 -17 31.5 q-1.5 12 8.5 41 q10 30 17 104 l18 179 q6 80 8.5 226 q2.5 146 4.5 298 q1 140 -1 177 l-7 124 q-20 54 -36 97.5 q-16 43.5 -25 67.5 q-9 24 -9 38 q0 14 3 17 q3 3 16 0 q7 -2 34.5 -11 q27.5 -9 54.5 -12 q65 -10 182 23 q117 33 138 53.5 q21 20.5 41 80.5 ZM424 915 q73 107 85 134 l58 120 l-141 -47 l-2 -207 ZM424 875 l4 -223 q130 -39 159.5 -42.5 q29.5 -3.5 41 5.5 q11.5 9 5.5 60.5 q-6 51.5 -23.5 89.5 q-17.5 38 -66.5 70.5 q-49 32.5 -120 39.5 ZM1115 606 q6 64 7 75 l3 97 q-85 -25 -172 -61 l-77 280 q129 -10 239 -13 q-2 26 -5.5 66.5 q-3.5 40.5 -11 84.5 q-7.5 44 -26 101.5 q-18.5 57.5 -40 93 q-21.5 35.5 -17.5 43.5 q4 8 47 2 q45 -7 116 -27.5 q71 -20.5 103 -35.5 q32 -15 36 -26.5 q4 -11.5 -3 -38.5 q-10 -36 -14 -107 q-4 -71 -3 -82 l0 -68 q59 2 121 17 q-6 108 -10 167.5 q-4 59.5 -10.5 108.5 q-6.5 49 -18.5 98 q-12 49 -29.5 89 q-17.5 40 -11 46.5 q6.5 6.5 33.5 3.5 q31 -4 118.5 -34 q87.5 -30 108 -39.5 q20.5 -9.5 25 -20.5 q4.5 -11 -5.5 -44 q-11 -36 -19 -108 q-8 -72 -8 -108 l-3 -125 q64 19 73 24 l115 54 l48 -260 q-54 8 -87.5 10 q-33.5 2 -152.5 -3 q-4 -109 -3 -139 l0 -71 q196 39 236 58 l61 27 l45 -270 q-169 29 -245 26 l-93 -3 q5 -140 10 -247.5 q5 -107.5 3 -174.5 q-4 -79 -17 -164.5 q-13 -85.5 -39 -132 q-26 -46.5 -40 -47 q-14 -0.5 -36 40.5 q-36 63 -52 134.5 q-16 71.5 -19 158.5 q-1 0 7 230 l7 185 q-71 -4 -136 -17 q-9 -45 -31.5 -151.5 q-22.5 -106.5 -94.5 -201.5 q-72 -95 -136 -155 q-64 -60 -102 -82 l-74 -43 q-23 -14 -33 -5.5 q-10 8.5 9 35.5 l51 71 q84 116 138.5 233.5 q54.5 117.5 70.5 180.5 l21 78 q-84 -26 -170 -60 l-59 259 q108 -14 131 -13 l121 0 l0 0 ZM1291 619 q60 3 117 10 l4 206 q-55 -11 -112 -24 q-4 -98 -5 -125 l-4 -67 l0 0 Z" /><glyph glyph-name="" unicode="&#x9677;" d="M1293 1209 l102 23 q24 5 36.5 13.5 q12.5 8.5 47.5 58.5 l212 -192 q-207 -195 -244 -224 l-102 -74 l-123 -89 l71 -98 q-57 -25 -86 -35 l-93 -29 l-85 -27 q13 -76 26 -147 q44 10 89.5 24 q45.5 14 124.5 68 l34 -220 q-78 -4 -231 -21 q9 -78 13 -98 l10 -59 q262 62 300 77.5 q38 15.5 105 54.5 l30 -222 q-68 -1 -139 -13 q-71 -12 -157 -34 q-86 -22 -159.5 -59.5 q-73.5 -37.5 -93 -28 q-19.5 9.5 -32.5 45.5 q-13 36 -22.5 84 q-9.5 48 -23 191 q-13.5 143 -18.5 207.5 q-5 64.5 -13 122 q-8 57.5 -23 84.5 l-35 66 q73 -6 149 -11 q73 47 107.5 82 q34.5 35 76.5 96 l31 -49 q75 86 126.5 159.5 q51.5 73.5 67.5 107.5 l25 51 l-182 -38 q-146 -177 -279 -267 l-44 -30 q-10 -7 -17 1.5 q-7 8.5 3 22.5 l24 35 q3 4 38 50.5 q35 46.5 92 185 q57 138.5 66 219.5 q9 81 11 138 q0 28 -0.5 49 q-0.5 21 3.5 25 q4 4 20 0 q25 -7 112 -48 l104 -57 q32 -17 32 -27 q-1 -6 -13 -23 l-42 -71 l-32 -51 l0 0 ZM1596 319 q-50 -8 -85.5 -17 q-35.5 -9 -109.5 -45 l-37 227 q55 -4 104 -4.5 q49 -0.5 142 20.5 l12 125 q-79 -18 -93 -25 l-88 -42 l-81 240 q91 -13 161 -11 q70 2 93.5 21 q23.5 19 47.5 70 l238 -185 q-22 -49 -34 -83.5 q-12 -34.5 -27.5 -102 q-15.5 -67.5 -28.5 -134.5 q-13 -67 -30.5 -169 q-17.5 -102 -31.5 -170.5 q-14 -68.5 -40 -147.5 q-26 -79 -48 -113 l-39 -62 q-48 16 -79 30.5 q-31 14.5 -54.5 32 q-23.5 17.5 -83 68 q-59.5 50.5 -70.5 76 q-11 25.5 -6.5 31.5 q4.5 6 32.5 -2 q28 -8 67 -9.5 q39 -1.5 56.5 3.5 q17.5 5 39.5 23 q22 18 36.5 98.5 q14.5 80.5 24.5 159.5 l12 97 l0 0 ZM657 1374 l230 -180 q-200 -188 -365 -325 q131 -38 192 -82 q61 -44 85 -112.5 q24 -68.5 0.5 -181 q-23.5 -112.5 -68.5 -148.5 l-52 -47 q-28 15 -49 28 q-21 13 -214 171 q5 -72 9 -137.5 q4 -65.5 4 -201.5 q-1 -114 -6.5 -211.5 q-5.5 -97.5 -6 -155.5 q-0.5 -58 -55.5 -27 q-97 52 -131 95 q-34 43 -33 58 q0 7 10.5 34 q10.5 27 21 128 q10.5 101 14.5 161 q4 60 6.5 216.5 q2.5 156.5 4.5 282.5 q1 134 -1 170 l-7 121 q-20 53 -33 86 q-13 33 -26 66 q-13 33 -13 46 q0 13 3 16 q3 3 17 0 q79 -21 91 -22 q44 -6 84.5 -0.5 q40.5 5.5 133.5 32 q93 26.5 112 44 q19 17.5 42 76.5 ZM408 848 q74 104 87 130 l60 117 l-145 -46 l-2 -201 ZM408 809 l4 -199 q167 -73 190 -54 q23 19 22 60 q-1 41 -37.5 110.5 q-36.5 69.5 -178.5 82.5 Z" /><glyph glyph-name="" unicode="&#x9884;" d="M674 738 q-5 -52 -6.5 -80 q-1.5 -28 -4 -136 q-2.5 -108 -2 -159.5 q0.5 -51.5 3.5 -228.5 l3 -182 q1 -120 6.5 -145.5 q5.5 -25.5 3 -29 q-2.5 -3.5 -13.5 -3.5 q-31 -1 -154.5 59.5 q-123.5 60.5 -205 108 q-81.5 47.5 -88 56 q-6.5 8.5 -2.5 16.5 q2 4 9.5 6.5 q7.5 2.5 27 3 q19.5 0.5 105 17.5 q85.5 17 97 29 q11.5 12 18 33 q6.5 21 9.5 133 l6 240 l2 207 q-164 -59 -223 -97 l-73 -45 l-62 291 q183 -20 264 -7 l123 16 q-55 56 -82.5 80 q-27.5 24 -72.5 54.5 q-45 30.5 -40.5 39.5 q4.5 9 44.5 18.5 q40 9.5 128 -9.5 l72 -16 l78 195 q-211 -73 -227 -84 l-80 -51 l-89 274 q112 -20 181 -24 q69 -4 161 7 l50 6 q54 6 61 27 l41 78 l198 -230 q-40 -21 -51.5 -28.5 q-11.5 -7.5 -90 -73 q-78.5 -65.5 -98 -84.5 q-19.5 -19 -45.5 -40 q16 -5 21.5 -10.5 q5.5 -5.5 6.5 -12.5 q1 -7 -2 -44 l-5 -43 l69 13 q42 7 40 94 l206 -138 q-46 -58 -118.5 -135.5 q-72.5 -77.5 -104.5 -98 q-32 -20.5 -41 -11 q-9 9.5 -4 28.5 l8 30 q2 7 7 44 l7 54 l-71 -13 ZM1714 369 l-4 -114 l4 -58 q-2 -21 -13.5 -29.5 q-11.5 -8.5 -48.5 21.5 l-124 96 q-29 21 -34.5 36 q-5.5 15 17.5 82 q8 26 15.5 102 q7.5 76 10 113.5 q2.5 37.5 2.5 125.5 l0 104 l-352 -50 q-1 -209 -1 -266 l-1 -145 l-4 -145 l0 -73 q-6 -11 -17 -17 q-11 -6 -71 55 l-95 95 q-29 28 -30.5 41 q-1.5 13 13.5 46 q15 34 27 116 q12 82 14.5 116.5 q2.5 34.5 -0.5 102.5 q-4 75 -11 123 q-7 48 -30 93 q-23 45 -17.5 52.5 q5.5 7.5 75.5 -12.5 l126 -37 l63 3 l10 207 q-107 -23 -203 -60 l-75 273 q110 -25 220 -38 q110 -13 272 21.5 q162 34.5 212 63.5 l93 51 l55 -284 q-156 23 -186 20 l-192 -14 l-48 -215 l112 23 q36 7 43 44 l11 64 l264 -152 q-22 -61 -37 -109.5 q-15 -48.5 -29.5 -127.5 q-14.5 -79 -18.5 -138 l-17 -206 l0 0 ZM1374 158 q217 -48 323 -73.5 q106 -25.5 118.5 -44.5 q12.5 -19 7.5 -58 q-13 -89 -18 -119 q-5 -30 -17 -61.5 q-12 -31.5 -23 -36.5 q-11 -5 -45 25 q-140 119 -365 323 q-33 -53 -105 -150 q-72 -97 -297 -179 l-74 -27 q-38 -14 -44.5 0 q-6.5 14 10.5 27 l85 67 q99 78 196.5 177.5 q97.5 99.5 120.5 198.5 q23 99 30.5 157.5 q7.5 58.5 8.5 108 q1 49.5 -15 127.5 q-11 49 -36 85.5 q-25 36.5 -19.5 41 q5.5 4.5 21.5 5.5 q37 1 142 -26 q105 -27 107.5 -38 q2.5 -11 -8.5 -42 q-6 -16 -10 -54 l-14 -98 l-10 -94 q-13 -101 -36 -156 l-34 -86 l0 0 Z" /></font>
</defs>
</svg>
