<?xml version="1.0" encoding="utf-8"?>
<!-- Generator: Adobe Illustrator 16.0.0, SVG Export Plug-In . SVG Version: 6.00 Build 0)  -->
<!DOCTYPE svg PUBLIC "-//W3C//DTD SVG 1.1//EN" "http://www.w3.org/Graphics/SVG/1.1/DTD/svg11.dtd">
<svg version="1.1" id="Layer_12" xmlns="http://www.w3.org/2000/svg" xmlns:xlink="http://www.w3.org/1999/xlink" x="0px" y="0px"
	 width="100px" height="100px" viewBox="0 0 100 100" enable-background="new 0 0 100 100" xml:space="preserve">
<path d="M97.247,35.372c-0.19-0.601-0.748-1.008-1.378-1.008H60.098L51.73,9.448c-0.197-0.589-0.748-0.985-1.37-0.985
	c-0.621,0-1.173,0.396-1.37,0.985l-8.366,24.916H4.131c-0.63,0-1.188,0.407-1.379,1.008c-0.19,0.601,0.029,1.255,0.544,1.618
	l29.455,20.821L22.066,89.63c-0.205,0.609,0.018,1.282,0.548,1.649c0.528,0.364,1.236,0.339,1.735-0.068l25.312-20.603
	l26.741,20.628c0.26,0.2,0.571,0.301,0.883,0.301c0.294,0,0.588-0.089,0.839-0.268c0.519-0.37,0.735-1.035,0.532-1.639
	L67.832,57.398L96.704,36.99C97.219,36.627,97.438,35.973,97.247,35.372z M50.36,14.451l6.687,19.913H43.675L50.36,14.451z
	 M50,66.463l-13.823-9.771l6.526-19.436h15.314l6.389,19.023L50,66.463z M8.681,37.256h30.973l-5.941,17.693L8.681,37.256z
	 M35.216,59.554l12.548,8.87L26.397,85.815L35.216,59.554z M74.399,86.039L51.886,68.672l13.481-9.531L74.399,86.039z
	 M66.871,54.537l-5.803-17.281h30.251L66.871,54.537z"/>
</svg>
