<?xml version="1.0" encoding="iso-8859-1"?>
<!-- Generator: Adobe Illustrator 18.0.0, SVG Export Plug-In . SVG Version: 6.00 Build 0)  -->
<!DOCTYPE svg PUBLIC "-//W3C//DTD SVG 1.1//EN" "http://www.w3.org/Graphics/SVG/1.1/DTD/svg11.dtd">
<svg version="1.1" id="Capa_1" xmlns="http://www.w3.org/2000/svg" xmlns:xlink="http://www.w3.org/1999/xlink" x="0px" y="0px"
	 viewBox="0 0 29.929 32" style="enable-background:new 0 0 29.929 32;" xml:space="preserve">
<g id="user">
	<g>
		<path style="fill-rule:evenodd;clip-rule:evenodd;" d="M21.759,19.639c2.557-2.014,4.205-5.131,4.205-8.639
			c0-6.075-4.925-11-11-11s-11,4.925-11,11c0,3.508,1.648,6.625,4.205,8.639C3.584,21.976,0.357,26.592,0,32h2.003
			c0.386-5.064,3.678-9.308,8.209-11.091C11.652,21.601,13.26,22,14.964,22c1.705,0,3.312-0.399,4.752-1.091
			c4.531,1.783,7.823,6.027,8.209,11.091h2.003C29.572,26.592,26.344,21.976,21.759,19.639z M14.964,20c-4.971,0-9-4.029-9-9
			c0-4.971,4.029-9,9-9c4.971,0,9,4.029,9,9C23.964,15.971,19.935,20,14.964,20z"/>
	</g>
</g>
<g>
</g>
<g>
</g>
<g>
</g>
<g>
</g>
<g>
</g>
<g>
</g>
<g>
</g>
<g>
</g>
<g>
</g>
<g>
</g>
<g>
</g>
<g>
</g>
<g>
</g>
<g>
</g>
<g>
</g>
</svg>
