<?xml version="1.0" standalone="no"?><!DOCTYPE svg PUBLIC "-//W3C//DTD SVG 1.1//EN" "http://www.w3.org/Graphics/SVG/1.1/DTD/svg11.dtd" ><svg xmlns="http://www.w3.org/2000/svg"><metadata></metadata><defs><font id="Founder:FZFengYaKaiSongS_ExtraBold" horiz-adv-x="1000"><font-face font-family="FZFengYaKaiSongS ExtraBold" font-weight="800" font-stretch="normal" units-per-em="1000" panose-1="2 0 9 0 0 0 0 0 0 0" ascent="891" descent="-228" x-height="0" bbox="50 -144 979 789" underline-thickness="50" underline-position="-100" unicode-range="U+4e16-ff1f" /><missing-glyph horiz-adv-x="1000" d="M193 50 q-2 -52 -59 -54 q-57 1 -58 53 q2 53 58 55 q58 -2 59 -54 ZM92 650 l102 -47 q0 -8 -4 -15 q-1 -3 -2 -8 q-1 -3 -1 -4 q0 -1 0 -2 q-2 -9 -2 -16 l0 -145 l-40 -237 l-25 0 l-41 237 l0 138 q0 20 -3 38 q-3 16 -12 32 l28 29 Z" /><glyph glyph-name="" unicode="&#x4e16;" d="M530 380 l3 -145 l74 7 l11 149 l-88 -11 ZM397 620 l22 34 l93 -27 q9 -4 9 -11 q5 -108 8 -216 l91 13 l16 219 q1 13 -2 25 q-3 14 -9 25 l32 24 l90 -45 q-2 -4 -3 -12 q-1 -1 -1 -2 l-5 -16 l-3 -15 l-14 -190 q39 4 77 10 q31 4 58 16 q20 7 36 21 q1 0 3 1.5 q2 1.5 6 -0.5 l52 -27 q-2 -5 -8 -8 q-10 -5 -34 -9 q-1 0 -2 0 l-189 -25 l-10 -138 l34 -19 q0 -6 -7 -9 q-11 -5 -27 -5 l-179 -19 q-3 -13 -11 -22 q-15 -15 -35 -18 l-59 46 l-1 13 q10 5 9 19 q0 57 -3 114 l-77 -10 l11 -294 l333 29 q31 3 47 12 l28 18 q5 3 9 1 l50 -26 q-1 -8 -6 -9 q-9 -6 -29 -8 q-5 -1 -8 -1 l-423 -36 q-1 -48 -53 -59 l-65 60 l0 24 q9 11 8 29 l-10 246 l-177 -23 l-19 21 q32 1 57 5 l138 17 l-5 125 q0 12 -5 29 q-5 15 -13 24 l29 28 l108 -48 q0 -8 -2 -14 q-3 -8 -5 -15 q0 -2 -1 -6 q-2 -12 -1 -18 l3 -91 q39 6 78 10 q-3 58 -10 174 q5 -82 -1 11 q-1 15 -7 28 q-6 12 -16 20 Z" /><glyph glyph-name="" unicode="&#x4e2a;" d="M425 423 l28 29 l104 -55 q0 -6 -2 -14 l-4 -13 q-3 -9 -3 -20 l0 -391 q0 -24 -16 -39 q-13 -13 -42 -16 l-59 64 l0 25 q9 9 9 25 l0 335 q0 20 -3 38 q-3 16 -12 32 ZM106 219 q125 127 196 243 q54 86 92 188 q13 39 3 67 l34 21 l102 -51 q19 -7 5 -29 l-26 -49 q63 -61 133 -115 q70 -56 148 -97 q68 -36 135 -56 l-6 -25 q-37 6 -68 0 q-35 -9 -59 -34 q-23 -23 -48 -2 q-70 53 -163 164 q-55 65 -95 124 q-51 -88 -103 -150 q-108 -132 -262 -218 l-18 19 Z" /><glyph glyph-name="" unicode="&#x4e4b;" d="M332 661 l10 24 q53 2 94 -7 q37 -10 52 -28 q17 -20 14 -47 q-2 -23 -15 -42 l-39 -8 q-17 30 -50 61 q-30 28 -66 47 ZM104 185 q39 10 78 11 q39 0 70 -5 q64 38 220 175 q102 88 149 149 l6 10 q-229 -76 -391 -128 q-25 -9 -31 5 l-43 77 l22 25 q15 -6 32 -8 q21 -4 41 -1 l378 58 q1 9 -1 18 l29 18 l82 -63 q16 -13 3 -26 q-95 -103 -220 -187 q-126 -83 -235 -130 q18 -3 54 -12 q18 -4 27 -6 q158 -37 263 -55 q141 -26 290 -32 l-1 -25 q-59 -8 -87 -25 q-24 -14 -37 -39 q-11 -20 -41 -10 q-82 21 -199 65 l-212 84 q-50 19 -101 31 q-33 7 -70 9 q-39 2 -73 -7 l-2 24 Z" /><glyph glyph-name="" unicode="&#x4eba;" d="M79 32 q105 85 183 188 q69 91 116 198 q28 63 49 133 q9 30 6 57 q-3 26 -16 40 l27 31 l116 -49 q14 -7 11 -25 q-27 -117 -81 -221 q67 -64 107 -95 q82 -68 157 -112 q92 -54 203 -91 l-6 -25 q-57 5 -100 -6 q-38 -10 -71 -38 q-17 -15 -35 1 q-86 73 -164 168 q-63 77 -114 158 q-60 -100 -145 -178 q-106 -97 -227 -154 l-16 20 Z" /><glyph glyph-name="" unicode="&#x4eca;" d="M396 387 l13 24 q52 0 89 -11 q41 -12 60 -43 q14 -24 6 -56 q-6 -22 -25 -37 l-40 -7 q-8 21 -50 74 q-32 40 -53 56 ZM250 181 l47 6 q62 10 283 49 q13 2 32 15 q14 9 23 17 q8 7 15 0 l77 -71 q-2 -8 -10 -14 l-13 -11 q-8 -7 -13 -16 l-107 -206 q-9 -16 -25 -28 q-16 -9 -32 -9 l-76 56 l11 21 q17 0 26 16 l110 212 l-328 -56 l-20 19 ZM63 207 q103 81 176 162 q63 69 107 141 q45 73 69 136 q17 34 2 63 l30 28 l100 -44 q24 -11 14 -33 q-13 -29 -30 -57 q99 -95 144 -128 q73 -55 144 -92 q85 -45 142 -65 l-5 -25 q-34 5 -67 -1 q-28 -7 -54 -33 q-23 -23 -48 -3 q-62 48 -139 133 q-79 93 -137 179 q-28 -45 -61 -88 q-70 -92 -159 -166 q-102 -83 -215 -129 l-13 22 Z" /><glyph glyph-name="" unicode="&#x4f55;" d="M374 380 l26 31 l82 -26 q2 -3 2 -11 l0 -11 q0 -11 1 -17 l16 -100 l31 5 l27 135 l-53 -11 l-13 18 q24 3 48 9 q15 3 27 9 q10 5 17 12 q6 6 11 2 l55 -35 q3 -5 -1 -12 q-1 -6 -6 -13 q-6 -9 -8 -15 l-16 -77 l25 -15 q1 -4 -6 -7 q-12 -4 -15 -4 l-121 -20 q0 -10 -5 -19 q-6 -12 -21 -20 l-69 21 l-3 21 q7 6 6 21 l-16 97 q-1 9 -7 17 q-6 9 -14 15 ZM616 34 l5 25 q22 -2 44 -2 q29 2 29 28 l0 371 q0 23 -4 46 q-4 19 -13 36 l-319 -42 l-16 21 q13 0 38 3 q11 1 16 2 q92 11 395 51 q12 1 18 2 q28 3 46 14 q13 6 28 19 q3 3 9 1 l49 -21 q-1 -5 -7 -9 q-10 -7 -32 -10 q-3 -1 -4 -1 l-170 -23 l82 -45 q1 -4 -1 -12 q2 6 0 -1 l-8 -24 q-2 -14 -2 -20 l0 -402 q0 -51 -31 -80 q-23 -24 -78 -25 q-4 38 -21 63 q-17 26 -53 35 ZM68 270 q70 88 142 225 q45 86 67 150 q12 36 2 66 l32 25 l91 -56 q17 -12 8 -33 q-28 -52 -64 -109 q-30 -48 -64 -95 l60 -33 q-1 -10 -4 -17 q-4 -10 -6 -19 q-2 -10 -2 -22 l0 -354 q0 -27 -13 -42 q-12 -16 -35 -19 l-66 77 l0 25 q12 12 12 32 l0 305 q-72 -83 -143 -125 l-17 19 Z" /><glyph glyph-name="" unicode="&#x4f60;" d="M370 134 l6 25 q21 12 46 36 q27 25 46 59 l25 -2 q7 -66 -4 -116 q-13 -51 -47 -87 l-40 5 l-32 80 ZM721 229 l13 23 q51 -9 87 -24 q50 -22 66 -48 q13 -21 11 -47 q-1 -24 -24 -57 l-39 -9 q-18 42 -45 80 q-25 36 -69 82 ZM493 11 l5 25 q24 -2 48 -1 q24 2 25 27 l0 243 q0 23 -4 44 q-3 24 -13 36 l34 22 l96 -58 q2 -6 -5 -23 q0 -1 -3 -10 q-3 -9 -3 -24 l0 -274 q0 -54 -28 -80 q-25 -23 -78 -25 q-3 38 -22 64 q-18 24 -52 34 ZM392 331 q61 103 93 183 q29 69 42 125 q10 43 -3 65 l33 23 l90 -49 q15 -8 7 -32 q-29 -73 -71 -139 q-21 -31 -43 -61 l28 6 q62 14 170 41 q25 6 44 15 q15 7 29 19 q9 7 16 1 l75 -85 q-8 -10 -20 -12 q-38 -6 -60 -22 q-35 -22 -80 -71 l-23 12 l46 126 l-230 -53 l-8 6 q-56 -68 -115 -114 l-20 16 ZM68 270 q95 114 157 218 q38 66 64 131 q12 36 2 66 l32 25 l91 -56 q17 -12 8 -33 q-24 -45 -56 -92 q-30 -44 -64 -85 l61 -34 q-1 -10 -4 -17 q-4 -10 -6 -19 q-2 -10 -2 -22 l0 -354 q0 -27 -13 -42 q-12 -16 -35 -19 l-66 77 l0 25 q12 12 12 32 l0 310 l0 3 q-81 -84 -164 -133 l-17 19 Z" /><glyph glyph-name="" unicode="&#x4fe1;" d="M486 381 l35 5 l146 21 q19 4 29 11 l21 15 q4 3 7 1 l44 -18 q0 -5 -3 -8 q-9 -8 -30 -11 l-232 -34 l-17 18 ZM483 268 l35 5 q67 10 144 21 q15 2 29 11 q2 2 7 5 q10 7 14 10 q4 3 7 1 l44 -18 q1 -5 -2 -8 q-9 -8 -30 -11 l-230 -34 l-18 18 ZM356 485 l60 7 l379 50 q31 5 47 15 l26 19 q3 3 9 1 l52 -24 q-1 -6 -6 -9 q-11 -6 -32 -9 q-3 -1 -5 -1 l-512 -69 l-18 20 ZM521 688 l13 22 q42 1 80 -10 q35 -10 57 -28 q29 -26 18 -63 q-6 -18 -22 -39 l-40 -7 q-14 29 -38 59 q-35 42 -68 66 ZM428 140 l23 33 l111 -32 q2 -9 0 -14 q0 -1 -1 -4 q-1 -3 0 -9 q0 -8 2 -21 l12 -63 l119 13 l29 122 l-142 -22 l-22 18 l46 6 l79 12 q24 3 44 12 q19 10 31 17 q12 8 19 2 l62 -45 q-2 -10 -7 -16 l-9 -13 q-6 -9 -9 -20 l-13 -53 l24 -13 q0 -6 -5 -9 q-13 -7 -36 -9 l-208 -24 q0 -15 -12 -29 q-15 -16 -44 -17 l-59 40 l-4 25 q9 9 7 25 l-9 45 q-3 14 -12 26 q-6 11 -16 17 ZM68 275 q69 86 139 210 q37 67 67 139 q12 36 2 66 l32 25 l91 -56 q17 -12 8 -33 q-17 -31 -45 -76 q-34 -53 -73 -102 l68 -38 q-1 -10 -4 -17 q-4 -10 -6 -19 q-2 -10 -2 -22 l0 -354 q0 -27 -13 -42 q-12 -16 -35 -19 l-66 77 l0 25 q12 12 12 32 l0 310 q0 4 -1 12 q-80 -91 -157 -137 l-17 19 Z" /><glyph glyph-name="" unicode="&#x5199;" d="M461 448 q18 2 42 6 l99 16 q17 3 41 15 q21 11 29 22 q6 4 12 1 l52 -24 q-1 -9 -14 -14 q-10 -4 -26 -6 l-217 -36 l-18 20 ZM112 137 q27 2 53 5 l331 37 q19 2 43 13 q21 9 29 18 q4 6 13 2 l50 -27 q-1 -8 -14 -13 q-7 -2 -21 -4 q-4 -1 -5 -1 l-462 -52 l-17 22 ZM154 518 l7 23 q25 15 52 51 q32 44 48 81 l26 -4 q12 -83 -3 -143 q-15 -60 -65 -83 l-25 4 l-40 71 ZM317 603 l-15 22 q2 0 5 0 q26 2 39 4 l344 45 q23 4 46 15 q22 11 32 21 q9 4 13 1 l87 -93 q-3 -7 -17 -12 l-29 -9 q-2 -1 -7 -3 q-14 -6 -37 -17 l-69 -32 l-21 16 l33 94 l-404 -52 ZM299 268 l3 25 q13 5 16 23 l33 180 q3 15 0 31 q-1 13 -9 27 l28 30 l87 -44 q10 -5 8 -20 l-41 -216 q66 7 235 28 q32 4 46 6 q10 1 32 11 q14 8 23 17 q8 4 14 1 l71 -52 q-1 -6 -11 -16 q-6 -6 -11 -14 q-4 -9 -6 -18 q-42 -181 -59 -250 q-13 -58 -39 -76 q-24 -15 -76 -15 q-3 29 -16 47 q-15 24 -46 39 l9 23 q18 -7 38 -7 q21 0 27 31 l62 261 l-297 -36 q-5 -26 -15 -40 q-15 -20 -40 -23 l-66 47 Z" /><glyph glyph-name="" unicode="&#x51fa;" d="M435 690 l29 28 l106 -57 q0 -8 -4 -15 q-2 -3 -4 -14 q0 -1 0 -2 q-1 -5 -1 -14 l0 -263 l126 23 q9 9 8 27 l1 71 q2 12 -3 25 q-4 12 -11 20 l22 24 l102 -57 q0 -3 -1 -7 q-1 -2 -1 -4 q0 -3 -2 -13 q-2 -12 -2 -17 l-2 -127 q0 -20 -13 -31 q-13 -13 -35 -15 l-63 81 l-126 -23 l0 -264 l129 22 q9 9 9 31 l1 59 q2 12 -3 25 q-4 12 -11 20 l22 24 l102 -57 q0 -6 -1 -11 q-1 -2 -2 -10 q0 2 -1 -3 q-2 -12 -2 -17 l-1 -114 q-1 -21 -15 -33 q-14 -11 -34 -13 l-62 76 l-374 -62 l1 -9 q0 -22 -16 -35 q-14 -11 -32 -12 l-64 79 l-1 20 q10 12 8 31 l-3 73 q0 12 -4 25 q-4 11 -11 19 l21 25 l103 -53 q0 -7 -1 -12 l-2 -14 q-2 -9 -2 -17 l3 -98 q73 11 133 22 l0 264 l-128 -23 l0 -2 q0 -21 -13 -33 q-14 -14 -35 -14 l-64 69 l-1 20 q10 12 8 31 l-3 73 q0 12 -4 25 q-4 11 -11 19 l21 25 l103 -53 q0 -7 -1 -12 q-2 -5 -2 -14 q-2 -9 -2 -17 l3 -94 l129 23 l0 285 q0 21 -3 40 q-4 16 -13 31 Z" /><glyph glyph-name="" unicode="&#x524d;" d="M281 649 l8 24 q53 4 107 -9 q47 -14 61 -41 q10 -19 -2 -46 q-6 -16 -21 -34 l-40 -6 q-24 36 -52 64 q-28 28 -61 48 ZM110 488 q32 1 57 4 q144 16 433 49 q90 11 135 16 q40 4 60 13 q20 8 34 22 q6 3 9 1 l52 -25 q-3 -6 -6 -8 q-11 -6 -34 -9 q-2 -1 -4 -1 l-718 -82 l-18 20 ZM506 569 q26 37 41 70 q14 26 21 50 q7 18 -1 38 l31 25 l87 -42 q16 -11 4 -31 q-28 -35 -64 -65 q-43 -35 -101 -63 l-18 18 ZM519 392 l28 29 l86 -45 q0 -8 -4 -14 q-3 -6 -5 -14 q-1 -9 -1 -18 l0 -191 q0 -19 -12 -34 q-12 -13 -35 -17 l-50 44 l0 25 q10 10 9 26 l0 152 q0 16 -3 30 q-3 15 -13 27 ZM199 393 l28 27 l96 -51 q0 -8 -4 -15 l-3 -14 q-1 -6 -1 -17 l0 -32 l2 1 q8 2 15 7 q10 5 15 13 q4 5 10 2 l32 -19 q0 -4 -5 -7 q-6 -4 -21 -7 q-2 -1 -3 -1 l-45 -9 l0 -79 q5 -1 18 8 q11 9 12 11 q4 5 10 2 l32 -21 q0 -4 -5 -7 q-7 -4 -23 -7 q-1 0 -2 0 l-42 -7 l0 -121 q0 -24 -15 -40 q-12 -13 -38 -16 l-56 65 l0 25 q8 9 8 25 l0 216 q0 17 -3 37 q-4 23 -12 31 ZM307 404 l70 13 q13 4 27 14 q11 8 19 16 q5 6 14 2 l75 -44 q0 -6 -3 -14 q-6 -12 -9 -20 q-3 -9 -3 -23 l0 -280 q0 -43 -19 -67 q-19 -23 -64 -26 q-6 30 -19 44 q-15 18 -46 25 l4 25 q10 -1 24 -1 q19 1 19 26 l0 306 l-69 -15 l-20 19 ZM594 12 l5 25 q18 -2 30 -2 q30 0 30 23 l0 338 q0 31 -5 48 q-4 16 -17 35 l31 26 l116 -59 q-1 -6 -4 -14 q-1 -1 -1 -2 q-6 -12 -9 -23 q0 -2 -1 -6 q-3 -12 -3 -19 l0 -358 q0 -49 -23 -73 q-29 -27 -71 -28 q-4 26 -25 50 q-29 31 -53 39 Z" /><glyph glyph-name="" unicode="&#x53c8;" d="M119 44 q129 58 225 150 q46 44 82 95 q-42 46 -85 89 q-58 57 -96 72 l9 24 q52 -9 118 -57 l91 -68 l17 35 q34 75 52 190 l-257 -58 l-22 18 q21 3 42 8 q107 23 209 47 q16 4 31 16 q20 15 29 27 q9 11 23 4 l82 -44 q0 -8 -5 -15 l-15 -23 q-6 -9 -8 -20 q-21 -106 -60 -191 q-16 -33 -34 -62 q13 -12 28 -23 q87 -73 154 -120 q65 -45 156 -87 l-4 -25 q-43 2 -73 -4 q-44 -9 -67 -31 q-26 -22 -46 -2 q-107 115 -201 223 q-41 -45 -92 -80 q-105 -73 -269 -109 l-14 21 Z" /><glyph glyph-name="" unicode="&#x53cd;" d="M50 -22 q85 94 133 197 q33 72 49 151 q14 73 14 155 q0 22 -7 38 q-4 10 -16 31 q1 -1 -1 2 l25 30 l83 -34 q71 25 135 58 q46 24 86 52 q25 18 25 39 l32 18 l77 -72 q14 -17 -3 -30 q-59 -35 -176 -64 q-88 -22 -154 -30 l0 -4 q0 -108 -14 -186 q-20 -110 -70 -189 q-61 -99 -199 -182 l-19 20 ZM229 12 q108 39 180 102 q23 19 52 54 q-47 45 -114 122 l20 18 q54 -46 127 -93 q11 16 20 36 q31 65 46 147 l-195 -50 l-18 17 q10 2 29 6 q4 1 6 2 q41 10 139 36 q9 2 13 3 q13 3 25 11 q18 12 31 25 q12 12 23 4 l73 -50 q0 -10 -7 -17 l-10 -13 q-6 -11 -9 -22 q-20 -80 -49 -136 q-14 -27 -31 -50 q71 -41 156 -78 q102 -47 208 -78 l-8 -24 q-40 6 -78 -3 q-37 -9 -66 -32 q-19 -15 -42 0 q-61 36 -118 78 q-54 38 -103 80 q-27 -25 -58 -43 q-87 -54 -232 -75 l-10 23 Z" /><glyph glyph-name="" unicode="&#x542f;" d="M431 673 l9 24 q53 10 104 1 q43 -9 65 -34 q18 -22 14 -48 q-3 -22 -20 -42 l-38 -9 q-24 31 -55 57 q-40 34 -79 51 ZM82 -42 q89 91 137 173 q45 77 68 157 q23 79 16 145 q0 1 0 3 q-1 12 -4 28 q-4 16 -11 33 l33 24 l95 -35 q7 -4 7 -20 q-3 -62 -16 -122 l214 32 l9 1 l34 140 l-221 -39 l-19 17 q18 2 34 5 l185 32 q14 3 32 15 q16 13 24 23 q6 6 14 1 l70 -47 q-1 -5 -5 -13 q-1 -1 -1 -2 l-10 -14 q-6 -9 -8 -18 l-20 -78 l24 -12 q-1 -9 -14 -13 q-8 -2 -24 -4 q-3 -1 -5 -1 l-318 -47 q-7 -27 -16 -53 q-10 -29 -23 -56 l86 -25 q2 -5 2 -12 l0 -18 q0 -6 2 -18 q-2 8 0 -2 l21 -126 q14 1 41 4 q98 11 150 16 l37 173 l-224 -29 l-18 19 l56 6 l179 25 q15 2 29 13 l20 14 q11 8 21 0 l65 -49 q-2 -7 -6 -15 l-13 -17 q-6 -9 -8 -17 l-25 -101 l31 -15 q0 -8 -8 -11 q-8 -4 -32 -6 q-4 -1 -5 -1 l-288 -29 q0 -12 -6 -24 q-12 -18 -39 -27 l-73 42 l-2 25 q5 8 3 25 l-19 111 l-5 16 q-18 -30 -40 -58 q-78 -96 -196 -164 l-17 20 Z" /><glyph glyph-name="" unicode="&#x547d;" d="M361 435 q10 3 30 6 q3 1 5 1 q22 3 63 15 q21 5 37 13 q16 10 25 21 q2 3 7 1 l47 -12 q1 -4 -4 -11 q0 -1 -1 -1 q-12 -10 -28 -15 l-163 -36 l-18 18 ZM531 354 q28 5 61 12 q19 4 33 13 q14 8 21 15 q11 11 21 3 l67 -54 q-1 -7 -7 -15 q-1 -1 -2 -2 q-10 -11 -13 -21 q-4 -13 -6 -31 l-8 -71 q-4 -36 -29 -51 q-22 -15 -72 -18 q3 25 -3 43 q-8 26 -28 33 l8 24 q2 -1 7 -3 q12 -4 17 -4 q14 -3 16 23 l11 101 l-71 -14 l-23 17 ZM199 316 l10 20 l92 -18 q0 -1 0 -3 q1 -4 0 -7 q-1 -3 -1 -7 q0 -7 2 -13 l11 -98 l25 3 l12 122 l-31 -7 l-14 17 q38 7 54 12 q10 1 19 6 q6 3 11 8 q8 6 14 1 l40 -35 q3 -5 -1 -11 l-6 -10 q0 -1 -1 -2 q-2 -4 -3 -8 l-9 -74 l19 -12 q0 -1 0 -2 q-1 -4 -5 -5 l-18 -5 l-105 -14 q0 -17 -3 -24 q-4 -14 -19 -19 l-69 28 l-2 13 q3 3 3 16 l-13 103 l-3 13 q-3 6 -9 12 ZM445 342 l19 27 l98 -49 q0 -3 -2 -8 q-1 -3 -1 -4 l-4 -15 q-2 -9 -2 -18 l0 -307 q1 -26 -11 -38 q-9 -11 -27 -15 l-66 62 l0 25 q9 9 9 25 l0 248 q0 4 0 12 q1 16 -1 24 q-3 19 -12 31 ZM101 320 q109 76 191 174 q67 82 91 146 q18 48 14 77 l32 24 l109 -61 q19 -11 3 -35 q-1 -1 -2 -3 q-1 -2 -5 -7 q65 -55 137 -103 q76 -50 158 -88 q59 -27 120 -45 l-4 -26 q-43 5 -66 -1 q-30 -6 -55 -33 q-21 -24 -48 -4 q-57 40 -152 135 q-72 73 -117 130 q-76 -96 -175 -172 q-95 -74 -218 -129 l-13 21 Z" /><glyph glyph-name="" unicode="&#x56de;" d="M322 376 l20 35 l105 -32 q0 -8 -1 -12 q-2 -6 -2 -15 q0 -8 1 -14 l17 -81 l68 7 l20 124 l-85 -13 l-22 18 q9 1 25 3 q6 1 10 2 l54 9 q8 1 22 9 q11 7 18 15 q12 12 27 1 l61 -42 q6 -8 -1 -14 q-4 -3 -13 -15 q-6 -8 -9 -20 l-10 -58 l26 -12 q-1 -4 -5 -7 q-12 -8 -34 -11 l-149 -17 q0 -14 -7 -23 q-9 -14 -35 -21 l-65 35 l-4 23 q6 8 5 26 l-12 57 q-2 13 -11 27 q-5 9 -14 16 ZM130 496 l22 33 l109 -43 l0 -12 q0 -10 -2 -19 l35 -351 q23 2 71 7 q221 21 337 33 q5 5 6 16 l45 389 l-468 -59 l-23 21 q25 2 48 5 q74 9 252 31 q89 12 132 17 q25 3 48 12 q26 9 43 26 q10 8 21 2 l77 -56 q-3 -7 -9 -15 q-1 -1 -2 -2 l-11 -17 q-6 -11 -8 -20 l-45 -385 q-2 -24 -14 -41 q-11 -17 -35 -23 l-63 78 l-400 -38 l1 -9 q1 -18 -6 -35 q-10 -19 -26 -23 l-85 46 l-1 26 q10 8 8 26 l-34 331 q-1 15 -6 27 q-6 13 -17 22 Z" /><glyph glyph-name="" unicode="&#x56e0;" d="M490 293 l13 23 q83 -10 136 -44 q23 -17 38 -39 q16 -29 7 -59 q-10 -28 -37 -38 l-36 -1 q-18 39 -49 82 q-39 53 -72 76 ZM167 614 l29 23 l105 -69 q0 -8 -4 -15 q-2 -5 -6 -15 q-1 -4 -1 -5 q-2 -9 -2 -21 l0 -359 q62 60 94 141 q17 42 26 90 l-81 -14 l-21 16 l59 9 l47 8 l8 52 q6 39 5 73 q-2 23 -11 39 l16 14 l109 -47 q10 -3 8 -19 q-7 -47 -18 -92 l24 5 q15 2 32 12 q9 6 24 19 q3 3 5 5 q5 3 9 1 l53 -22 q3 -5 -4 -9 q-11 -7 -37 -11 l-112 -19 l-5 -19 q-19 -64 -52 -118 q-60 -100 -166 -138 l-12 17 l0 -83 l403 17 q11 7 11 31 l0 518 l-389 -53 l-24 21 l76 10 q87 11 253 34 q15 2 22 3 q25 3 51 16 q19 9 34 24 q8 7 16 2 l84 -55 l-5 -14 q-1 -2 -3 -6 q-5 -8 -6 -12 q-3 -9 -3 -23 l0 -509 q0 -53 -22 -76 q-21 -23 -67 -25 l-44 88 l-387 -15 l0 -2 q0 -18 -9 -30 q-12 -18 -34 -23 l-73 64 l0 27 q10 10 10 29 l0 440 q0 18 -3 36 q-4 18 -12 34 Z" /><glyph glyph-name="" unicode="&#x586b;" d="M632 73 l16 22 q79 -17 116 -38 q46 -24 54 -58 q6 -20 -3 -45 q-6 -16 -20 -35 l-40 -3 q-18 38 -48 77 q-33 42 -75 80 ZM318 -78 q31 20 73 59 q42 39 63 69 q15 21 12 39 l29 13 l80 -62 q5 -8 -4 -19 q-48 -39 -104 -69 q-72 -35 -135 -53 l-14 23 ZM131 397 q2 0 5 1 q15 2 35 6 q20 3 5 1 q15 2 36 6 l0 171 q0 28 -3 40 q-4 15 -14 31 l29 28 l104 -55 q0 -9 -3 -18 q-1 -7 -4 -14 q-2 -9 -2 -20 l0 -140 l10 7 q6 4 20 16 q1 1 2 2 q5 4 10 1 l36 -20 q0 -5 -6 -9 q-11 -8 -27 -11 l-45 -9 l0 -135 l77 31 l13 -21 q-87 -73 -227 -186 q-23 -16 -41 2 l-65 69 l17 35 q30 -7 54 3 q6 2 17 7 q15 5 48 18 l0 156 l-64 -12 l-17 19 ZM503 462 l27 3 l15 103 l-104 -17 l-20 20 q29 0 58 7 l69 11 l9 64 l3 34 q0 21 -6 38 l33 22 l89 -59 q-1 -9 -7 -20 l-7 -18 q-3 -11 -5 -21 l-3 -21 l19 4 q14 3 36 19 l19 14 q5 2 9 1 l53 -22 q-3 -8 -6 -9 q-11 -9 -37 -12 l-96 -17 l-15 -103 l11 3 q12 4 27 14 q13 8 19 16 q6 6 14 2 l73 -47 q-1 -8 -6 -16 q-4 -9 -7 -18 q-4 -13 -4 -26 l0 -249 q1 0 3 0 q15 1 35 4 q24 3 47 14 q18 8 34 20 q5 2 9 0 l51 -25 q-1 -6 -6 -8 q-14 -9 -37 -10 l-624 -71 l-22 20 q31 0 61 4 l109 12 l0 257 q0 4 0 10 q1 19 -1 28 q-4 21 -15 33 l29 28 l103 -55 q0 -8 -4 -15 q-1 -3 -2 -8 q-1 -3 -1 -4 q0 -1 -1 -3 q-1 -6 -1 -10 l23 4 q12 2 23 8 q9 4 17 12 q4 2 9 0 l35 -15 q-3 -7 -9 -10 q-11 -7 -22 -8 l-76 -11 l0 -61 q13 1 26 4 q12 2 23 8 q9 4 17 12 q4 2 9 0 l35 -15 q-3 -7 -9 -10 q-9 -6 -22 -8 l-79 -11 l0 -61 q15 1 29 4 q12 2 23 8 q9 4 17 12 q4 2 9 0 l35 -15 q-3 -7 -9 -10 q-11 -7 -22 -8 l-82 -11 l0 -66 l126 14 l0 317 l-131 -23 l-22 19 Z" /><glyph glyph-name="" unicode="&#x5929;" d="M201 349 l59 5 q80 9 158 20 q9 57 12 121 q1 21 -4 42 q-4 16 -14 35 l-139 -19 l-20 19 q33 3 59 7 l269 36 q31 4 45 13 q12 8 27 21 q3 3 9 1 l52 -24 q-1 -8 -6 -9 q-12 -9 -37 -10 l-212 -29 l68 -27 q15 -6 16 -31 q-3 -81 -12 -131 l94 12 q41 4 61 14 q19 8 34 23 q4 4 9 1 l52 -25 q-2 -6 -7 -9 q-11 -8 -37 -11 l-210 -27 q-2 -14 -5 -27 q-4 -21 -10 -40 q57 -57 135 -119 q72 -58 133 -94 q92 -55 163 -73 l-2 -24 q-51 2 -78 -9 q-36 -14 -61 -34 q-22 -16 -43 0 q-70 57 -147 148 q-63 74 -118 155 q-47 -120 -137 -195 q-88 -74 -219 -105 l-10 23 q94 48 157 118 q94 102 129 261 l-193 -24 l-20 21 Z" /><glyph glyph-name="" unicode="&#x5982;" d="M361 371 q-19 -57 -51 -110 q4 -2 13 -5 q27 -11 41 -18 q1 3 4 8 q15 29 21 46 q17 42 26 87 l-54 -8 ZM522 382 l20 35 l111 -30 q2 -5 1 -15 q0 -3 0 -4 q0 -8 1 -17 q0 -11 2 -21 l19 -152 l89 13 l40 216 l-125 -25 l-20 18 q9 1 24 4 q8 1 12 2 l89 18 q24 5 41 16 l24 15 q12 7 20 0 l62 -57 l-7 -13 q-6 -9 -12 -14 q-10 -11 -12 -23 l-27 -142 l18 -6 q4 -5 -4 -9 q-7 -4 -30 -8 q-7 0 -10 -1 l-169 -24 q0 -22 -12 -37 q-12 -15 -36 -19 l-67 43 l-3 25 q8 7 6 24 l-18 141 q-1 13 -7 26 q-7 15 -20 21 ZM83 350 q25 2 49 5 l160 25 l8 72 q10 110 12 176 q0 15 -3 31 q-4 15 -14 27 l29 28 l92 -48 q12 -7 11 -21 q-18 -109 -47 -216 l-11 -37 q26 3 50 8 l3 19 q3 18 -2 35 q-3 12 -12 24 l28 29 l80 -44 q10 -6 9 -18 q-17 -115 -51 -190 q-15 -32 -34 -59 q26 -18 47 -37 q43 -43 39 -81 q-2 -28 -29 -55 l-40 -3 q-19 50 -70 113 q-18 -19 -37 -34 q-82 -67 -200 -116 l-14 21 q97 69 156 134 q21 23 40 50 q-42 33 -85 55 q-7 5 -5 11 l8 18 q3 7 12 5 l13 -4 q8 43 14 87 l-183 -28 l-23 18 Z" /><glyph glyph-name="" unicode="&#x5bc6;" d="M360 512 l21 14 q19 -17 40 -23 q12 -5 24 -6 q3 -1 9 -3 q6 -1 17 -5 q22 -10 18 -33 q-2 -10 -12 -29 q-3 -4 -4 -6 l-38 -15 q-33 16 -54 52 q-13 24 -21 54 ZM405 724 l12 22 q34 1 69 -6 q39 -10 57 -27 q24 -19 15 -49 q-5 -17 -26 -38 l-40 -7 q-17 31 -40 58 q-21 25 -47 47 ZM150 310 l5 25 q27 10 48 32 q20 20 34 56 l25 -1 q9 -64 -1 -100 q-11 -45 -49 -66 l-36 0 l-26 54 ZM129 483 l5 25 q33 18 52 45 q21 29 28 68 l25 -2 q15 -64 9 -107 q-5 -58 -58 -86 l-35 2 l-26 55 ZM680 428 l15 22 q38 3 85 -5 q49 -11 71 -31 q23 -21 17 -50 q-3 -19 -19 -43 l-39 -8 q-21 26 -52 53 q-36 33 -78 62 ZM264 569 q2 0 5 0 q26 2 39 4 l388 47 q23 4 46 15 q22 11 32 21 q9 4 13 1 l83 -84 q-3 -7 -17 -12 l-30 -9 q-22 -8 -43 -17 q-36 -16 -76 -40 l-21 15 l44 93 l-443 -54 l-20 20 ZM430 190 l29 31 l103 -55 q0 -8 -4 -15 q-1 -3 -2 -8 q-1 -3 -1 -4 q0 -1 0 -2 q-2 -9 -2 -16 l0 -107 l77 10 q11 4 12 20 l3 56 q1 15 -2 34 q-3 12 -10 22 l31 29 l101 -59 q0 -8 -4 -13 q-4 -7 -6 -13 q-3 -7 -4 -17 l-7 -103 q-2 -22 -16 -31 q-13 -11 -33 -9 l-68 63 l-260 -32 l1 -12 q2 -20 -9 -33 q-8 -11 -24 -16 l-86 50 l-3 23 q7 10 8 28 l-2 47 q-1 18 -6 30 q-4 12 -13 21 l24 29 l109 -42 q0 -6 -1 -9 q-2 -7 -2 -16 l1 -18 l2 -61 l80 9 l0 121 q0 4 0 10 q1 19 -1 28 q-3 17 -15 30 ZM126 164 q174 67 251 126 q-7 7 -13 16 q-40 55 -46 135 l25 3 q28 -75 87 -111 q59 52 101 127 q10 17 10 32 q0 10 -4 20 l28 27 l75 -38 q20 -12 12 -33 q-51 -97 -131 -164 l18 -1 q48 -2 101 9 q-2 5 -5 15 q-10 28 -18 44 l23 11 q16 -25 46 -42 q32 -17 62 -19 q4 -59 -59 -85 q-57 -22 -150 -16 q-56 3 -103 25 q-109 -63 -299 -105 l-11 24 Z" /><glyph glyph-name="" unicode="&#x5f00;" d="M451 401 l82 9 l0 135 q0 27 -4 49 q-4 15 -10 27 l-146 -22 l70 -28 q15 -8 16 -32 q0 -71 -8 -138 ZM144 366 q24 1 57 6 l143 17 q6 72 3 127 q0 4 -1 11 q0 23 -3 35 q-3 18 -12 30 l-62 -9 l-23 18 q4 1 11 2 q28 4 44 6 q69 11 210 31 q70 11 107 16 q22 4 39 15 q12 9 24 21 q2 3 8 1 l52 -24 q1 -6 -5 -10 q-10 -7 -34 -11 l-138 -21 l86 -44 q0 -8 -2 -15 q-3 -6 -4 -12 q-3 -9 -3 -18 l0 -115 l80 10 q30 3 59 14 q18 7 35 21 q6 3 9 1 l52 -29 q-3 -6 -8 -8 q-13 -4 -36 -8 l-191 -23 l0 -404 q0 -24 -16 -40 q-15 -13 -42 -17 l-60 65 l0 25 q10 9 10 25 l0 333 l-85 -10 q-23 -156 -91 -251 q-62 -88 -173 -133 l-18 18 q69 62 113 148 q47 95 63 206 l-180 -21 l-18 21 Z" /><glyph glyph-name="" unicode="&#x606f;" d="M434 193 l21 14 q24 -19 47 -31 q24 -12 51 -20 q25 -9 24 -39 q-2 -31 -10 -47 l-33 -16 q-34 13 -67 59 q-26 39 -33 80 ZM123 54 l4 25 q23 19 44 49 q24 33 35 61 l25 -1 q12 -53 7 -97 q-7 -65 -48 -99 l-35 0 l-32 62 ZM687 220 l9 25 q55 3 104 -7 q44 -10 66 -31 q21 -20 17 -49 q-3 -21 -22 -48 l-40 -4 q-20 26 -49 52 q-37 34 -85 62 ZM413 551 l-20 -15 q2 -5 -4 -17 q-3 -6 -3 -13 q-1 -6 -1 -23 l0 -29 q33 5 80 15 q7 2 20 10 q12 8 18 14 q6 2 9 0 l38 -22 q0 -5 -4 -8 q-10 -5 -28 -7 l-133 -21 l0 -78 q42 5 85 14 q9 2 21 10 q6 4 14 12 q5 1 9 0 l40 -21 q0 -5 -4 -8 q-13 -6 -27 -8 l-138 -19 l0 -84 q9 1 28 3 q100 10 152 17 q4 4 4 13 l0 280 l-142 -26 l-14 11 ZM283 179 l24 8 q34 -68 74 -108 q43 -44 105 -65 q59 -19 129 -16 q55 3 98 18 l-45 62 l20 16 q24 -26 60 -45 q24 -13 57 -16 q15 -56 -22 -84 q-47 -34 -159 -37 q-114 0 -186 26 q-75 33 -115 99 q-34 57 -40 142 ZM268 552 l28 28 l58 -27 q20 33 34 69 q13 31 22 63 q7 26 4 43 l34 22 l98 -60 q4 -5 -1 -11 q-39 -47 -85 -88 q-18 -17 -37 -32 l17 3 l121 24 q11 2 21 8 q15 9 27 21 q8 9 20 1 l69 -47 q0 -8 -9 -24 q0 -1 -1 -1 l-9 -17 q-3 -11 -4 -24 l0 -233 q0 -29 -10 -49 q-16 -28 -54 -34 l-49 65 l-178 -19 q-3 -15 -10 -27 q-10 -16 -31 -20 l-74 73 l0 27 q10 11 10 37 l0 173 q0 9 -1 21 q-1 3 -1 5 q-1 11 -9 30 Z" /><glyph glyph-name="" unicode="&#x611f;" d="M339 428 l20 3 q30 4 65 13 q1 0 5 1 q15 5 22 9 q9 6 17 13 q5 4 11 3 l43 -16 q0 -5 -4 -8 q-9 -7 -30 -11 l-132 -26 l-17 19 ZM420 155 l19 18 q20 -11 46 -19 q24 -7 42 -10 q24 -4 26 -28 q1 -21 -10 -48 l-33 -15 q-34 15 -58 46 q-20 24 -32 56 ZM614 687 l7 20 q56 3 90 -6 q27 -8 39 -24 q9 -14 6 -29 q-1 -18 -19 -42 l-39 -5 q-13 24 -36 47 q-22 24 -48 39 ZM155 4 l5 25 q18 14 35 32 q24 27 36 56 l25 -1 q10 -45 6 -91 q-7 -55 -36 -79 l-35 0 l-36 58 ZM686 95 l8 25 q58 5 103 -6 q27 -7 44 -22 q17 -15 19 -38 q2 -23 -16 -54 l-40 -8 q-24 33 -56 61 q-32 27 -62 42 ZM315 114 l25 8 q21 -53 55 -87 q33 -33 76 -44 q50 -12 107 -13 q58 0 79 16 q-21 24 -34 45 l21 15 q19 -21 48 -36 q31 -18 55 -18 q10 -54 -31 -77 q-42 -25 -131 -22 q-78 2 -138 24 q-60 20 -95 70 q-32 46 -37 119 ZM112 123 q76 97 99 190 q18 66 14 144 q0 21 -7 39 q-6 17 -16 28 l24 32 l88 -33 q17 -8 17 -26 q2 -104 -21 -175 l18 21 l74 -16 l0 -7 l-2 -7 q0 -4 1 -7 l15 -62 l29 6 l16 86 l-50 -10 l-14 18 q19 2 51 9 q7 1 10 2 q7 1 23 9 q6 3 15 12 q6 6 13 1 l46 -33 q-3 -3 -4 -6 l-7 -9 q-3 -5 -4 -11 l-8 -44 l21 -11 q0 -5 -3 -6 q-7 -5 -20 -8 l-113 -24 l-1 -6 q-3 -12 -19 -20 l-68 23 l-2 11 q7 4 5 13 l-12 48 l-5 15 q-3 5 -7 7 q-4 -14 -10 -27 q-45 -110 -167 -183 l-19 17 ZM325 529 l46 8 l123 23 q-13 45 -25 90 q-6 19 -17 36 q-12 19 -23 26 l21 32 l121 -41 q3 -8 1 -15 q-1 -14 -1 -28 q0 -10 4 -26 q5 -24 14 -56 q9 3 18 10 q10 7 20 18 q3 4 9 2 l48 -19 q0 -6 -6 -10 q-10 -6 -26 -10 l-57 -11 q12 -43 32 -87 q19 -44 37 -75 q9 19 16 39 q13 34 8 45 l28 17 l59 -50 q7 -9 5 -24 q-23 -51 -67 -105 l16 -19 q34 -41 68 -59 q17 -12 33 3 q24 21 39 51 l22 -11 q-2 -6 -5 -17 q-8 -24 -9 -41 q-3 -33 24 -64 q-24 -28 -59 -34 q-46 -6 -93 22 q-57 34 -106 99 q-62 -51 -130 -80 l-13 19 q54 40 107 111 q-40 65 -75 154 q-17 43 -32 88 l-157 -29 l-18 18 Z" /><glyph glyph-name="" unicode="&#x6237;" d="M443 686 l10 24 q46 1 92 -8 q43 -10 64 -27 q26 -21 17 -53 q-6 -24 -24 -45 l-39 -8 q-15 30 -48 64 q-34 34 -72 53 ZM133 -72 q76 81 111 155 q40 79 56 184 q12 75 10 146 q0 27 -8 48 q-6 19 -21 36 l21 26 l95 -34 q12 -5 12 -29 q0 -78 -7 -153 l196 29 l42 163 l-198 -33 l-19 18 q12 0 37 4 q6 1 8 1 l169 29 q11 2 22 10 q10 6 16 15 q8 8 18 2 l63 -50 q1 -8 -5 -13 q-9 -6 -12 -12 q-6 -6 -8 -13 l-23 -91 l29 -14 q-1 -9 -9 -13 q-9 -6 -23 -7 l-306 -47 q-2 -17 -5 -34 q-24 -128 -83 -208 q-60 -82 -159 -132 l-19 17 Z" /><glyph glyph-name="" unicode="&#x624d;" d="M110 64 q109 77 228 204 q96 102 138 181 l-312 -39 l-18 23 q16 0 50 4 q6 1 9 1 l307 38 l0 156 q1 29 -5 56 q-5 21 -19 41 l32 25 l113 -60 q-1 -9 -4 -18 q-3 -11 -5 -21 q-3 -12 -3 -27 l0 -139 l84 11 q16 2 43 16 q20 11 32 20 q4 3 11 1 l57 -29 q-2 -6 -7 -9 q-9 -5 -31 -8 q-4 -1 -6 -1 l-183 -23 l0 -449 q0 -48 -22 -76 q-25 -28 -74 -29 q-2 23 -24 50 q-23 28 -72 47 l5 25 q29 -3 52 -2 q26 3 26 38 l0 237 q-55 -61 -118 -111 q-132 -103 -270 -154 l-14 21 Z" /><glyph glyph-name="" unicode="&#x62db;" d="M440 204 l20 34 l118 -28 q1 -5 0 -14 q0 -5 0 -7 q-1 -9 -1 -16 q0 -11 1 -21 l11 -105 l129 15 l28 168 l-151 -22 l-18 20 q12 0 39 4 q-19 -4 3 0 q6 1 23 3 q77 11 100 15 q10 1 28 11 q13 8 22 17 q9 9 18 2 l69 -52 q-1 -5 -4 -11 q-2 -2 -2 -3 l-13 -15 q-9 -10 -11 -22 l-17 -95 l30 -12 q2 -6 -10 -11 q-9 -4 -31 -7 q-3 -1 -4 -1 l-227 -24 q-2 -15 -8 -27 q-12 -18 -40 -27 l-69 48 l-2 19 q8 8 6 21 l-11 96 q-2 15 -9 28 q-8 14 -17 19 ZM400 254 q57 53 106 133 q34 57 52 110 q7 21 8 31 q1 13 -4 24 l-85 -12 l-22 20 l50 6 l223 31 q21 4 38 15 q16 9 25 19 q14 13 23 8 l80 -58 q-1 -10 -5 -16 q-9 -11 -16 -21 q-11 -16 -15 -33 l-28 -129 q-15 -67 -64 -91 q-38 -17 -88 -12 q3 29 -9 55 q-13 28 -41 42 l12 23 q29 -10 51 -13 q18 -1 24 17 q3 12 9 38 q20 83 30 137 l-141 -19 l63 -25 q16 -6 6 -28 q-40 -88 -108 -159 q-76 -80 -160 -114 l-14 21 ZM74 173 l18 34 q23 -4 51 10 l141 82 l0 125 l-130 -32 l-18 17 q23 5 42 10 l106 26 l0 170 q0 34 -6 52 q-4 14 -15 33 l29 23 l111 -56 q0 -10 -5 -19 q-1 -2 -2 -6 q-3 -8 -4 -12 q-3 -10 -3 -25 l0 -131 l10 6 q11 9 18 21 q4 3 9 2 l41 -19 q0 -6 -7 -11 q-6 -5 -22 -10 q-2 -1 -3 -1 l-46 -12 l0 -90 l50 30 l15 -21 l-65 -62 l0 -278 q0 -50 -23 -77 q-23 -28 -66 -28 q-4 35 -26 62 q-35 38 -69 50 l5 21 q20 -4 48 -2 q26 3 26 38 l0 117 q-49 -45 -101 -94 q-22 -18 -41 -2 l-68 59 Z" /><glyph glyph-name="" unicode="&#x63ed;" d="M537 185 q27 34 40 63 q10 21 16 40 q6 18 -1 29 l24 19 l63 -25 q7 -5 5 -15 q-9 -18 -22 -36 q20 3 38 1 q23 -3 33 -19 q7 -14 5 -27 q-1 -6 -4 -18 q-1 -5 -2 -7 l-30 -10 q-10 13 -31 27 q-20 12 -39 18 l-4 -4 q-21 -22 -75 -53 l-16 17 ZM410 228 l30 27 l98 -39 q0 -9 -3 -16 q-2 -9 -5 -18 q-2 -9 -2 -19 l3 -44 l123 15 q11 0 27 9 l17 12 q3 1 9 1 l39 -23 q0 -5 -12 -8 l-29 -5 l-173 -19 q0 -19 -7 -34 q-12 -19 -34 -22 l-68 52 l0 17 q11 11 9 22 l-3 50 q0 11 -5 20 q-5 12 -14 22 ZM439 620 l23 34 l110 -24 q2 -6 2 -15 q0 -12 1 -20 q0 -9 3 -19 l4 -23 l16 3 q11 3 22 10 l16 12 q6 3 11 1 l35 -20 q0 -4 -9 -7 q-13 -5 -30 -7 l-58 -9 l12 -63 l0 -2 q23 4 69 10 q15 2 23 3 q9 7 11 22 l24 145 l-128 -21 l-17 18 q20 2 40 5 q45 7 91 15 q14 3 27 12 l26 18 q11 7 21 -1 l64 -52 q-2 -8 -7 -14 l-10 -16 q-1 -1 -2 -4 q-3 -8 -4 -13 l-17 -109 q-5 -26 -20 -39 q-16 -16 -45 -21 l-48 36 l-98 -14 q-2 -9 -5 -15 q-6 -11 -21 -18 l-85 32 l-3 16 q5 9 2 24 l-16 88 q-1 10 -11 24 q-9 10 -19 18 ZM378 270 q40 31 63 57 q24 27 36 51 q9 18 1 32 l25 19 l83 -38 q12 -7 6 -17 l-9 -13 l19 3 l162 28 q14 3 29 13 q13 9 22 18 q7 5 15 2 l82 -50 q-2 -9 -8 -17 q-12 -17 -17 -31 q-4 -15 -7 -34 l-28 -258 q-5 -52 -34 -75 q-24 -22 -88 -26 q-2 32 -21 57 q-24 28 -54 36 l8 24 q24 -6 54 -8 q27 0 31 26 l34 305 l-207 -34 l-6 5 q-22 -22 -51 -40 q-57 -37 -125 -55 l-15 20 ZM68 189 l21 34 q29 -5 52 8 q24 14 85 50 q25 15 38 23 l0 128 l-120 -26 l-18 19 q22 2 43 7 q55 10 95 20 l0 156 q0 25 -7 48 q-5 15 -17 36 l32 25 l106 -55 q0 -10 -5 -20 q0 -1 -1 -3 q-4 -9 -5 -14 q-3 -10 -3 -25 l0 -125 l10 8 q8 6 18 19 q2 3 8 1 l44 -17 q1 -6 -7 -11 q-8 -7 -25 -10 l-48 -11 l0 -88 l50 31 l14 -21 l-64 -62 l0 -281 q0 -44 -19 -72 q-23 -33 -70 -33 q-4 35 -27 62 q-29 32 -69 46 l5 25 q29 -5 54 -4 q26 3 26 38 l0 124 l-101 -91 q-22 -17 -41 1 l-54 60 Z" /><glyph glyph-name="" unicode="&#x662f;" d="M268 649 l23 34 l111 -30 l-1 -14 q-1 -7 -1 -14 q-1 -9 2 -20 l7 -37 q11 2 30 6 q5 1 8 2 q9 1 25 15 q2 1 5 4 q7 6 10 8 q6 1 8 1 l42 -24 q0 -3 -3 -6 q-12 -8 -28 -10 l-93 -16 l17 -86 l109 15 q8 6 9 11 l30 199 l-148 -33 l-18 18 l39 8 l117 26 q14 3 27 13 q11 8 19 16 q9 8 16 4 l74 -51 q-2 -5 -5 -9 l-10 -14 q-5 -7 -7 -19 l-25 -164 q-5 -31 -18 -46 q-14 -17 -36 -21 l-66 42 l-103 -15 q2 -17 -4 -31 q-9 -17 -28 -20 l-88 37 l-1 24 q6 7 5 23 l-27 132 q0 1 -1 3 q-4 14 -8 21 q-6 9 -14 18 ZM85 -19 q84 51 134 128 q29 45 56 113 q6 20 -4 34 l22 31 l99 -33 q23 -8 12 -34 q-13 -30 -29 -57 q39 -18 81 -35 l0 139 q1 17 -2 34 q-5 25 -11 35 l-256 -42 l-17 21 l44 6 l493 82 q12 3 29 15 l21 16 q4 3 8 2 l51 -24 q0 -5 -3 -8 q-9 -8 -30 -11 l-283 -47 l72 -35 q0 -8 -4 -15 q-1 -3 -2 -8 q-1 -3 -1 -4 q0 -1 0 -2 q-2 -9 -2 -16 l0 -46 q15 3 45 9 q5 1 8 2 q15 2 27 9 q10 5 19 14 q5 5 11 4 l46 -18 q0 -5 -4 -8 q-16 -10 -30 -12 l-122 -21 l0 -111 q38 -14 77 -24 q113 -34 190 -46 q59 -11 117 -17 l0 -28 q-34 1 -79 -13 q-46 -14 -69 -35 q-21 -21 -51 -8 q-86 32 -210 99 q-94 51 -187 113 q-24 -33 -56 -61 q-73 -65 -193 -106 l-17 19 Z" /><glyph glyph-name="" unicode="&#x6653;" d="M396 237 q12 1 42 7 q13 2 20 3 l185 31 q9 2 24 13 l21 17 q6 3 10 2 l45 -19 q0 -6 -6 -11 q-9 -9 -27 -12 l-297 -50 l-17 19 ZM274 -41 q68 41 120 108 q33 42 55 91 q6 13 8 28 q1 12 -2 23 l28 15 l86 -54 q11 -8 3 -22 q-42 -68 -97 -118 q-85 -75 -189 -93 l-12 22 ZM578 223 l22 21 l115 -55 q0 -8 -4 -17 l-6 -16 q-3 -10 -4 -22 l-1 -53 q-2 -43 35 -46 q36 -4 75 9 q30 10 44 26 q18 19 26 53 l25 -7 q-10 -27 -6 -48 q5 -31 39 -45 q-6 -32 -25 -48 q-21 -18 -65 -25 q-70 -13 -139 -9 q-127 6 -120 144 l2 76 q0 27 -3 37 q-3 15 -10 25 ZM408 484 l47 18 l44 19 q-33 52 -60 112 q-10 24 -24 41 q-12 14 -27 22 l20 35 l143 -34 q1 -4 1 -21 l0 -22 q0 -20 6 -32 q12 -28 36 -60 l60 26 q12 6 27 24 q1 2 4 5 q4 5 9 14 q4 5 9 4 l50 -15 q3 -6 -4 -12 q-5 -5 -20 -11 q-3 -2 -4 -2 l-118 -51 q29 -36 63 -69 l20 17 q32 26 21 60 l30 20 l74 -67 q7 -7 0 -17 q-29 -33 -78 -65 q21 -14 44 -25 q19 -8 35 4 q34 23 51 54 l22 -12 q-16 -33 -22 -59 q-5 -33 20 -75 q-22 -22 -59 -24 q-48 -2 -104 26 q-41 21 -89 58 q-109 -46 -196 -50 l-7 24 q76 27 152 71 q-40 42 -73 88 l-83 -35 l-20 16 ZM110 541 l31 27 l98 -49 q0 -6 -2 -14 q0 -1 -1 -4 q-2 -5 -4 -13 q-3 -11 -4 -21 l2 -122 q9 6 15 12 q5 4 8 1 l24 -20 q0 -7 -7 -10 q-8 -4 -23 -7 l-17 -3 l3 -185 l37 5 q12 9 11 28 l1 365 l-27 -5 l-19 20 q20 3 47 10 q15 4 30 15 l18 14 q7 4 13 1 l57 -45 q0 -9 -3 -15 l-9 -15 q-6 -12 -6 -18 l-1 -348 q0 -37 -15 -58 q-16 -19 -55 -25 q-6 24 -17 38 q-11 13 -21 18 l-40 -5 q-2 -24 -18 -39 q-16 -15 -42 -18 l-48 63 l0 20 q7 7 7 24 l-5 311 q0 21 -4 41 q-4 14 -14 26 Z" /><glyph glyph-name="" unicode="&#x679c;" d="M648 684 l-162 -27 l75 -26 q0 -9 -4 -17 q-3 -6 -5 -12 q-3 -7 -3 -14 l0 -6 l11 9 l14 11 l6 1 l38 -22 q0 -3 -3 -6 q-10 -7 -28 -11 l-38 -7 l0 -93 l42 7 q6 3 8 10 l49 203 ZM383 549 l30 5 l27 4 l0 18 q0 23 -4 44 q-4 17 -10 28 l-38 -6 l-17 20 q15 1 38 4 q-2 0 3 1 l213 34 q17 3 27 10 l25 20 q10 9 22 1 l71 -54 q-1 -10 -9 -18 q-1 -1 -4 -4 q-2 -2 -7 -7 q-5 -5 -7 -16 l-38 -155 q-7 -32 -25 -50 q-15 -15 -42 -18 l-55 38 l-34 -6 l0 -99 l95 13 q30 5 60 17 q19 9 34 21 q4 3 10 1 l51 -24 q-1 -7 -9 -11 q-7 -4 -26 -8 q-6 0 -8 -1 l-207 -28 l0 -27 q49 -43 109 -85 q60 -43 124 -76 q83 -45 153 -59 l-4 -26 q-39 0 -66 -12 q-28 -14 -42 -36 q-14 -20 -40 -4 q-77 45 -163 143 q-39 42 -71 89 l0 -240 q0 -29 -15 -49 q-19 -19 -46 -22 l-55 58 l0 25 q7 7 7 19 l0 165 q-42 -38 -93 -70 q-105 -65 -219 -100 l-12 23 q93 58 167 126 q81 76 118 138 l-214 -29 l-23 19 l62 7 l214 29 l0 96 l-32 -5 q-1 -14 -9 -24 q-9 -14 -29 -18 l-76 36 l-7 24 q6 11 3 26 l-37 136 q-4 16 -9 22 q-4 8 -15 11 l17 37 l110 -25 q3 -6 3 -12 q2 -6 2 -14 l2 -19 l42 -160 l35 6 l0 92 l-40 -7 l-17 18 Z" /><glyph glyph-name="" unicode="&#x6848;" d="M453 452 l-35 -30 q36 1 73 0 q13 17 23 37 l-61 -7 ZM429 713 l9 24 q46 5 80 -3 q25 -5 35 -18 q12 -17 7 -35 q-6 -20 -16 -30 l-38 -13 q-15 24 -31 40 q-13 15 -46 35 ZM210 530 l6 23 q25 15 43 37 q18 18 35 52 l26 -1 q13 -59 4 -99 q-10 -43 -52 -68 l-25 2 l-37 54 ZM335 608 q18 0 37 3 l244 31 q28 3 51 13 q24 9 39 21 q7 5 12 -1 l71 -86 q-5 -9 -25 -16 l-25 -7 q-21 -6 -40 -14 q-32 -12 -58 -26 l-18 16 l29 81 l-299 -34 l-18 19 ZM231 297 q92 12 157 43 q34 15 61 38 q-51 6 -103 6 q-7 1 -7 4 l3 24 q1 4 5 5 q1 0 2 0 l12 1 l13 25 l-183 -20 l-17 22 q18 1 50 4 q7 1 11 1 l149 16 q10 26 15 51 q5 28 -6 48 l21 28 l107 -24 q15 -7 11 -21 q-30 -45 -55 -72 q23 3 46 5 l7 40 l35 22 l76 -34 q6 -2 6 -14 l67 8 q30 1 49 13 q14 6 31 21 q6 1 10 0 l52 -24 q-1 -8 -6 -9 q-16 -10 -37 -11 l-174 -20 q-14 -32 -37 -60 q51 -8 82 -22 q41 -20 52 -52 q8 -24 -10 -53 l-35 -17 q-41 40 -89 64 q-28 13 -58 24 q-55 -43 -123 -62 q-88 -25 -189 -24 l-1 26 ZM437 280 l34 27 l97 -42 q0 -8 -4 -15 q-3 -6 -4 -12 q-1 -6 -1 -12 l59 6 q44 5 61 13 q20 10 34 21 q4 4 9 1 l52 -25 q-3 -6 -7 -8 q-17 -9 -37 -10 l-171 -19 l0 -16 q54 -35 111 -64 q74 -38 150 -66 q44 -16 89 -28 l-4 -25 q-29 2 -56 -10 q-21 -9 -38 -26 q-24 -26 -57 -5 q-56 36 -118 91 q-41 35 -77 74 l0 -156 q0 -26 -16 -39 q-13 -13 -42 -16 l-59 60 l0 25 q9 9 9 25 l0 79 q-41 -42 -88 -70 q-74 -47 -178 -71 l-12 23 q80 42 131 92 q47 45 86 106 l-133 -14 l-23 21 q32 0 62 3 l155 16 l0 3 q0 17 -3 33 q-3 16 -11 30 Z" /><glyph glyph-name="" unicode="&#x751f;" d="M451 688 l34 22 l99 -56 q0 -8 -4 -15 q-1 -3 -2 -8 q-1 -3 -1 -4 q0 -1 0 -2 q-2 -9 -2 -16 l0 -186 l58 9 q13 2 28 13 q14 9 23 17 q5 5 12 3 l47 -23 q0 -5 -5 -8 q-9 -8 -29 -12 l-134 -19 l0 -173 l24 4 q14 2 29 13 q14 9 23 17 q6 5 12 2 l47 -22 q0 -4 -5 -8 q-10 -9 -29 -12 l-101 -14 l0 -190 l175 16 q44 4 64 12 q1 1 4 2 q18 10 28 18 q4 3 10 1 l49 -28 q-1 -7 -6 -8 q-10 -5 -30 -8 q-5 -1 -7 -1 l-723 -62 l-19 22 q26 -1 59 2 l288 25 l0 184 l-122 -16 l-16 19 q25 2 57 6 q25 3 73 10 q5 1 8 1 l0 174 l-118 -16 q-15 -26 -33 -48 q-55 -72 -124 -119 l-21 15 q35 53 69 139 q21 51 36 120 q4 29 -10 50 l28 29 l99 -50 q20 -8 10 -30 q-17 -44 -41 -85 q53 6 105 14 l0 202 q1 19 -2 37 q-2 21 -14 41 Z" /><glyph glyph-name="" unicode="&#x7528;" d="M118 -11 q58 79 91 169 q25 73 37 165 q5 41 6 91 q1 42 0 121 q-1 23 -11 46 q-4 12 -12 22 l25 32 l86 -35 q11 -6 13 -30 q1 -45 1 -78 q0 -35 -1 -65 q-3 -61 -11 -113 q-18 -109 -61 -186 q-52 -94 -142 -155 l-21 16 ZM363 289 q33 2 46 4 l55 8 l0 130 l-76 -10 l-17 20 q33 2 46 4 q22 2 47 6 l0 98 q0 20 -2 33 q0 2 -1 6 q-3 14 -7 19 l-82 -14 l-20 19 q19 1 46 6 q14 2 46 7 q139 23 215 36 q15 2 37 17 q1 1 3 2 q20 14 28 22 q5 5 12 2 l82 -43 l-4 -12 q-4 -8 -8 -20 q-4 -13 -4 -25 l0 -568 q0 -40 -21 -61 q-21 -24 -67 -24 q0 22 -21 45 q-25 21 -53 26 l3 25 q5 0 15 0 q14 -1 21 0 q18 1 18 31 l0 570 l-194 -33 l71 -32 q0 -8 -4 -15 q-1 -3 -2 -8 q-1 -3 -1 -4 q0 -1 0 -2 q-2 -9 -2 -16 l0 -72 q6 0 12 2 q16 2 28 11 q2 1 5 3 q11 8 16 13 q7 2 8 0 l35 -18 q0 -5 -4 -8 q-10 -8 -29 -13 l-71 -10 l0 -131 l23 3 q16 2 28 11 q11 7 21 16 q5 2 8 0 l35 -18 q0 -5 -4 -8 q-13 -9 -30 -13 l-81 -11 l0 -226 q0 -25 -16 -40 q-13 -13 -42 -16 l-55 65 l0 25 q9 9 9 25 l0 152 l-84 -11 l-17 20 Z" /><glyph glyph-name="" unicode="&#x7684;" d="M499 293 l12 23 q48 -5 78 -13 q44 -13 61 -37 q15 -21 8 -50 q-3 -20 -18 -45 l-40 -8 q-16 33 -39 63 q-27 38 -62 67 ZM253 416 l-18 -16 l8 -4 l-3 -17 q0 -1 -1 -4 q-4 -10 -4 -14 q-2 -8 -1 -17 l2 -72 l12 2 q10 2 19 8 l15 13 q4 3 9 2 l36 -19 q0 -6 -4 -9 q-13 -10 -31 -11 l-55 -6 l4 -135 q57 4 83 7 q7 7 7 21 l4 263 l-64 -8 l-18 16 ZM437 324 q59 84 97 181 q25 64 43 131 q10 34 -8 52 l25 32 l100 -36 q17 -8 11 -33 q-38 -96 -86 -170 l-24 -35 l27 5 l106 19 q15 3 34 15 q20 14 26 21 q11 11 22 6 l71 -42 q1 -15 -12 -28 q-9 -10 -13 -22 q-6 -15 -8 -32 q-15 -185 -40 -351 q-8 -61 -36 -83 q-31 -26 -98 -24 q1 32 -17 59 q-20 27 -55 40 l7 24 q27 -9 61 -12 q35 -4 39 31 q24 154 44 382 l-161 -29 l-8 6 q-55 -72 -127 -123 l-20 16 ZM125 417 l28 29 l52 -29 q43 89 65 178 q7 30 -7 42 l29 28 l102 -55 q5 -4 2 -14 q-69 -114 -140 -178 l43 6 q24 3 37 10 q13 6 26 17 q12 10 24 1 l62 -46 q-3 -10 -7 -17 q-2 -3 -6 -10 q-1 -2 -1 -3 q-8 -16 -8 -25 l-4 -239 q0 -24 -14 -43 q-18 -24 -46 -27 l-38 62 l-82 -8 l0 -2 q1 -22 -12 -42 q-14 -19 -38 -22 l-53 65 l0 21 q12 11 11 32 l-8 213 q0 15 -6 32 q-4 13 -11 24 Z" /><glyph glyph-name="" unicode="&#x76f8;" d="M53 64 q78 91 122 158 q65 100 94 192 l-151 -27 l-17 19 q24 2 58 9 l116 20 l0 218 q0 18 -3 37 q-3 19 -14 31 l29 28 l108 -56 q0 -8 -3 -16 q-1 -5 -4 -13 q-1 -3 -1 -4 q0 -1 -1 -2 q-2 -11 -3 -24 l0 -179 l12 2 q16 2 28 11 l21 16 q3 3 8 1 l44 -16 q0 -5 -4 -8 q-10 -8 -29 -13 l-80 -14 l0 -99 q21 -3 44 -9 q23 -7 40 -22 q22 -19 17 -46 q-3 -15 -12 -30 l-28 -10 q-21 29 -43 55 l-18 19 l0 -305 q0 -28 -19 -43 q-19 -12 -42 -15 l-54 68 l0 21 q7 7 7 23 l0 197 q-28 -38 -61 -72 q-69 -72 -144 -120 l-17 18 ZM489 574 l22 22 l108 -36 q0 -7 -3 -13 l-5 -20 l-1 -16 l0 -97 l55 6 q7 2 21 10 q8 5 13 13 q5 4 10 3 l40 -21 q2 -6 -3 -9 q-11 -8 -31 -10 l-105 -12 l1 -123 l55 6 q7 2 20 10 q9 5 14 13 q4 4 10 3 l40 -21 q1 -5 -3 -9 q-11 -8 -31 -10 l-105 -12 l2 -140 q8 1 24 3 q72 9 120 14 q6 5 6 17 l2 430 l-129 -18 l-17 20 q9 0 27 3 q6 1 10 1 q22 2 83 11 q11 1 17 2 q9 2 24 12 q7 4 15 12 q10 9 21 4 l79 -49 q0 -7 -6 -19 q-1 -2 -4 -7 q-6 -9 -8 -14 q-3 -11 -4 -22 l-2 -405 q0 -28 -14 -51 q-13 -22 -43 -27 l-65 78 l-136 -15 l0 -6 q0 -21 -13 -35 q-13 -16 -36 -19 l-69 60 l0 27 q11 11 10 32 l-3 379 q0 15 -4 28 q-3 9 -9 17 Z" /><glyph glyph-name="" unicode="&#x77e5;" d="M163 356 q52 76 86 151 q25 56 41 100 q6 17 6 29 q0 14 -7 23 l31 26 l97 -46 q10 -6 5 -20 q-31 -70 -81 -130 q-15 -18 -31 -36 l112 29 q14 3 25 10 q14 9 24 21 q4 3 9 2 l45 -15 q0 -5 -3 -9 q-13 -10 -31 -14 l-207 -52 q-52 -50 -101 -85 l-20 16 ZM124 -10 q73 72 111 130 q42 62 61 126 l7 26 l-149 -29 l-17 19 l48 8 q60 11 122 23 q6 34 5 66 q-2 34 -15 45 l32 25 l85 -23 q14 -2 12 -22 q-2 -37 -7 -68 l30 6 q13 2 28 13 l21 16 q3 2 9 3 l43 -18 q0 -6 -7 -10 q-12 -9 -26 -11 l-102 -20 q-9 -37 -22 -73 q53 -5 92 -23 q33 -14 45 -40 q11 -21 6 -48 q-3 -26 -22 -42 l-39 -8 q-16 39 -41 76 q-23 29 -56 51 q-31 -64 -84 -115 q-61 -58 -152 -101 l-18 18 ZM525 411 l20 35 l111 -28 q2 -5 1 -15 q0 -3 0 -4 l1 -16 l3 -21 l22 -185 l67 9 l29 239 l-94 -17 l-20 18 q12 1 32 4 q-2 0 4 1 l58 11 q24 5 41 16 l24 15 q12 8 21 -1 l61 -55 l-7 -13 q-6 -9 -12 -14 q0 -1 -1 -2 q-10 -10 -11 -21 l-20 -164 l22 -8 q2 -7 -4 -9 q-20 -7 -40 -9 l-148 -20 q1 -22 -11 -37 q-12 -14 -36 -19 l-67 42 l-3 25 q8 7 5 24 l-20 173 q-1 13 -7 25 q-9 15 -21 21 Z" /><glyph glyph-name="" unicode="&#x7801;" d="M344 332 l-61 -14 l0 -8 q0 -10 1 -22 l15 -91 l33 6 l12 129 ZM390 135 q6 1 17 2 q24 2 36 4 q109 17 194 31 q17 3 41 15 q19 9 29 20 q7 4 12 2 l52 -26 q-1 -8 -14 -13 q-7 -3 -22 -5 q-3 -1 -4 -1 l-323 -51 l-18 22 ZM468 617 q2 0 5 1 q18 2 41 6 q83 15 167 34 q7 1 31 19 l20 14 q9 7 18 0 l67 -52 q-2 -9 -9 -17 l-15 -20 q-5 -9 -7 -20 l-23 -162 q-5 -37 -21 -56 q-19 -22 -47 -25 l-50 58 l1 25 q11 3 15 21 l31 195 l-207 -41 l-17 20 ZM162 317 l17 36 l26 -6 q24 51 51 129 q5 17 2 36 q-1 10 -6 18 l-93 -17 l-20 19 q30 3 51 7 l157 29 q19 4 40 18 l21 16 q6 4 10 2 l50 -23 q0 -6 -9 -11 q-8 -3 -30 -7 l-136 -25 l70 -28 q8 -5 6 -15 q-32 -81 -77 -154 q4 1 12 3 q7 1 22 5 q14 2 28 15 l18 17 q8 6 14 2 l69 -49 q-1 -4 -6 -10 l-11 -15 q-4 -7 -5 -14 l-8 -69 l23 -10 q0 -6 -7 -9 q-15 -6 -30 -8 l-108 -22 l2 -13 q3 -18 -1 -35 q-5 -20 -24 -27 l-75 41 l-2 17 q6 10 4 24 l-5 29 q-60 -70 -124 -117 l-15 20 q61 72 118 183 q-9 12 -19 18 ZM466 288 l3 25 q13 5 16 23 l22 135 q3 15 1 31 q-3 13 -9 27 l27 30 l78 -39 q12 -6 11 -20 l-33 -194 l208 39 q16 3 31 13 q14 9 22 18 q7 5 14 2 l74 -46 q-1 -9 -9 -17 q-6 -7 -10 -15 q-4 -9 -5 -18 l-44 -274 q-8 -55 -38 -76 q-27 -21 -75 -23 q-2 37 -22 60 q-20 24 -58 34 l7 24 q18 -6 50 -11 q26 -5 33 26 q35 193 49 284 l-233 -44 q-3 -11 -9 -18 q-15 -20 -40 -23 l-61 47 Z" /><glyph glyph-name="" unicode="&#x7a7f;" d="M418 744 l12 22 q48 1 92 -12 q26 -9 38 -27 q12 -19 4 -43 q-6 -17 -21 -30 l-42 -5 q-10 24 -35 53 q-18 22 -48 42 ZM515 568 l7 24 q40 11 78 8 q34 -2 57 -16 q26 -18 23 -49 q-2 -15 -12 -33 l-40 -13 q-19 24 -49 46 q-33 23 -64 33 ZM273 443 q36 25 63 52 q17 17 33 41 q11 17 5 37 l30 19 l77 -54 q8 -9 1 -19 q-38 -35 -85 -57 q-52 -28 -110 -41 l-14 22 ZM173 518 l2 26 q24 18 44 45 q24 34 36 68 l25 2 q21 -60 13 -114 q-10 -53 -45 -84 l-33 -2 l-42 59 ZM311 613 q16 0 42 4 q-1 0 2 0 l342 41 q28 4 45 14 q18 11 30 22 q12 5 17 2 l76 -85 q-2 -6 -13 -9 q-5 -2 -17 -4 q-6 -1 -9 -2 q-18 -3 -35 -13 q-29 -14 -77 -49 l-21 14 l44 95 l-409 -50 l-17 20 ZM255 258 l5 23 q10 3 14 13 q12 29 18 52 q4 16 -9 29 l22 28 l79 -32 q13 -7 12 -18 q-8 -26 -21 -61 l128 18 l0 51 q0 19 -4 36 q-4 12 -11 23 l-103 -16 l-20 19 l54 7 l140 22 q21 3 36 12 q12 6 25 17 q1 2 7 2 l44 -19 q0 -6 -4 -8 q-12 -9 -29 -12 l-94 -15 l72 -25 q0 -9 -2 -18 l-3 -17 q-2 -9 -2 -21 l0 -23 l53 7 q22 3 37 11 q12 6 25 16 q4 3 8 2 l43 -21 q0 -5 -4 -8 q-11 -8 -30 -11 l-132 -18 l0 -255 q0 -48 -22 -76 q-25 -28 -74 -29 q-1 20 -24 46 q-23 28 -72 47 l5 25 q30 -3 55 -2 q26 3 26 38 l0 95 q-35 -32 -76 -59 q-107 -68 -244 -98 l-12 23 q132 65 200 122 q72 60 101 105 l-106 -14 l-4 -11 q-6 -13 -12 -22 q-7 -10 -21 -13 l-74 33 Z" /><glyph glyph-name="" unicode="&#x7b54;" d="M377 246 q11 1 34 4 q10 1 15 2 q18 3 56 8 q8 1 12 2 q23 2 37 13 q9 6 22 18 q3 3 9 1 l47 -22 q-3 -8 -6 -9 q-13 -7 -37 -11 l-169 -25 l-20 19 ZM320 541 l13 23 q24 5 51 -2 q23 -8 33 -25 q8 -14 1 -31 q-5 -12 -20 -26 l-37 -6 q-6 18 -16 37 q-12 21 -25 30 ZM611 561 l16 20 q28 5 63 -4 q29 -8 41 -23 q16 -21 1 -45 q-7 -12 -22 -23 l-40 -2 q-12 27 -22 40 q-15 21 -37 37 ZM484 529 q27 33 54 86 q16 30 30 67 q16 41 8 60 l29 28 l92 -42 q23 -9 11 -28 q-10 -19 -30 -41 q27 4 55 7 q12 2 24 11 q12 8 23 19 q5 4 11 1 l50 -24 q-1 -6 -9 -10 q-12 -6 -34 -9 l-141 -19 q-30 -30 -55 -51 q-54 -46 -101 -74 l-17 19 ZM161 454 q46 54 83 131 q24 50 34 89 q6 26 -1 43 l27 30 l93 -34 q25 -10 14 -32 q-13 -24 -33 -52 l30 4 q12 2 24 11 q12 8 23 19 q4 3 11 1 l50 -24 q-1 -6 -9 -10 q-10 -6 -34 -9 l-113 -15 q-24 -30 -51 -59 q-75 -80 -129 -110 l-19 17 ZM275 123 l24 32 l107 -32 q1 -8 1 -15 l0 -16 q0 -10 1 -19 l13 -67 l130 11 l40 114 l-155 -19 l-18 21 l56 6 q47 5 93 11 q24 2 39 12 q12 7 26 19 q11 8 21 0 l66 -51 q-1 -8 -6 -15 q-10 -16 -14 -21 q-6 -8 -10 -17 l-19 -41 l29 -12 q-3 -8 -12 -12 q-10 -4 -27 -7 q-2 0 -3 0 l-232 -19 q1 -16 -10 -33 q-12 -15 -34 -20 l-69 44 l-4 14 q4 9 3 20 l-11 59 q-5 21 -10 33 q-6 12 -15 20 ZM91 141 q103 64 198 152 q96 89 122 143 q20 34 12 61 l34 22 l93 -47 q14 -10 2 -30 l-11 -14 q64 -46 128 -81 q74 -41 156 -70 q75 -28 154 -43 l-2 -26 q-42 0 -71 -11 q-26 -10 -49 -40 q-18 -26 -47 -9 q-74 41 -156 112 q-75 64 -138 137 q-61 -71 -149 -135 q-118 -85 -263 -143 l-13 22 Z" /><glyph glyph-name="" unicode="&#x7f18;" d="M669 640 l-68 -5 q-27 -47 -55 -85 q4 0 12 2 q-5 -2 2 0 q2 0 6 1 q14 2 20 5 q9 4 17 15 q4 4 12 2 l18 -12 l36 77 ZM89 127 l22 35 q25 -10 58 1 q66 21 185 69 l13 -22 q-106 -89 -188 -149 q-23 -17 -37 3 l-53 63 ZM152 470 q-18 16 -39 22 l0 40 l87 25 q11 27 15 45 q8 26 8 50 q1 24 -9 39 l29 29 l86 -43 q18 -10 6 -29 q-22 -33 -51 -63 q-19 -22 -60 -58 l3 -2 l55 -56 q18 30 30 55 q9 22 2 43 l31 26 l74 -48 q13 -11 3 -28 q-48 -65 -111 -125 q-45 -44 -92 -80 q53 10 145 33 l8 -24 q-71 -52 -177 -111 q-23 -11 -36 3 l-48 62 l21 35 q9 -3 21 -4 q33 37 74 88 l-75 76 ZM432 547 l11 26 q21 -3 33 21 q18 32 34 85 q8 35 0 55 l30 27 l89 -44 q12 -6 5 -20 q-5 -11 -17 -32 q-4 -8 -6 -12 l36 3 q16 2 31 11 q15 8 28 17 q6 4 13 0 l59 -52 q-3 -7 -7 -11 l-14 -15 q-5 -6 -11 -17 l-57 -120 q22 4 43 13 q18 9 33 21 q3 3 10 1 l52 -23 q-1 -6 -6 -9 q-11 -6 -32 -9 q-3 -1 -5 -1 l-236 -32 l64 -26 q8 -5 2 -15 q-33 -33 -76 -59 q47 -26 81 -66 q34 45 59 93 q16 31 10 52 l36 19 l78 -59 q6 -9 -1 -20 q-71 -64 -148 -105 q63 -30 131 -52 q81 -27 162 -41 l0 -25 q-29 -3 -61 -18 q-27 -12 -42 -32 q-21 -27 -45 -11 q-29 18 -82 63 q-15 12 -22 18 l-18 15 q4 -15 7 -32 q10 -76 -18 -129 q-32 -57 -105 -62 q-2 26 -20 47 q-18 22 -55 36 l8 24 q31 -8 51 -9 q22 -1 30 22 q9 34 6 70 q-39 -29 -95 -56 q-83 -41 -158 -60 l-14 21 q80 52 142 101 q55 43 97 86 l-6 11 q-40 -28 -84 -49 q-33 -16 -98 -40 l-13 22 q58 44 90 74 q39 39 60 63 l-5 6 q-67 -35 -133 -48 l-11 23 q40 23 91 67 q26 23 46 46 q12 14 11 28 l-116 -15 l-17 20 q24 1 50 4 q39 5 116 15 q34 5 51 7 l39 85 l-4 0 l-89 -10 q-1 -1 -2 -3 q-12 -16 -19 -19 q-9 -6 -23 -6 l-54 46 Z" /><glyph glyph-name="" unicode="&#x89e3;" d="M368 326 l-9 -2 l0 -81 l11 12 q5 4 8 1 l14 -13 l0 89 q-7 -3 -20 -5 q-3 -1 -4 -1 ZM271 309 l-11 13 l-1 -56 q-2 -27 -5 -52 q2 0 6 1 q12 2 27 4 l0 93 l-16 -3 ZM371 367 q5 4 8 1 l13 -11 l0 98 l-83 -13 l56 -21 q0 -6 -1 -12 q0 -6 -3 -10 q-2 -8 -2 -16 l0 -27 l12 11 ZM119 474 q36 39 74 101 q39 62 53 105 q8 24 -2 45 l34 22 l88 -54 q5 -5 0 -17 q-20 -36 -46 -69 l32 7 q14 2 28 13 l22 17 q8 6 13 2 l71 -66 q-5 -9 -14 -14 l-22 -13 q-54 -39 -136 -82 l-18 18 q41 52 71 107 l-69 -14 q-14 -15 -29 -29 q-65 -61 -132 -97 l-18 18 ZM497 435 q15 19 43 65 q30 56 40 88 q6 23 3 35 l-55 -12 l-16 20 l40 6 q8 2 23 5 q99 21 154 34 q18 4 28 14 l16 17 q6 6 15 1 l69 -41 q0 -5 -4 -11 l-7 -14 q0 -1 -1 -1 q-8 -21 -9 -28 q-10 -54 -22 -96 q-8 -28 -26 -43 q-24 -21 -68 -16 q-2 18 -15 38 q-15 22 -29 27 l10 23 q12 -6 23 -6 q11 0 14 11 q14 52 23 107 l-112 -24 l55 -23 q12 -6 6 -18 q-24 -50 -81 -102 q-45 -42 -97 -72 l-20 16 ZM491 221 q5 1 15 1 q26 3 40 5 l93 13 l0 90 l-42 -7 l-9 11 l-4 -5 q-35 -45 -69 -70 l-21 15 q31 60 39 103 q4 21 -2 35 l19 19 l64 -21 q12 -4 8 -16 q-9 -24 -27 -50 q16 1 28 4 q7 0 16 2 l0 49 q0 22 -3 32 q-3 12 -13 24 l31 27 l96 -52 q0 -2 -1 -9 q1 4 -1 -3 l-5 -16 q-2 -8 -2 -17 l0 -17 l12 2 q12 2 24 11 q1 1 2 1 l19 15 q3 3 9 2 l45 -19 q0 -5 -4 -8 q-11 -8 -30 -12 l-77 -13 l0 -93 l92 13 q18 3 28 10 q10 6 22 16 q3 2 9 2 l42 -22 q0 -5 -3 -8 q-11 -9 -30 -10 l-160 -22 l0 -236 q0 -24 -16 -39 q-15 -13 -42 -16 l-53 54 l0 25 q9 8 9 25 l0 173 l-131 -18 l-17 20 ZM84 -28 q37 63 59 142 q21 70 24 138 q2 49 0 144 q-1 23 -17 41 l27 30 l65 -25 q18 -7 18 -23 q0 -6 0 -22 q1 -44 0 -69 l27 5 l0 61 q0 15 -3 27 l-7 16 l-10 -1 l-15 19 l39 4 q43 6 79 13 q19 3 32 14 q12 7 20 19 q6 4 12 1 l69 -39 q-3 -10 -7 -16 q-6 -12 -9 -24 q-2 -12 -2 -25 l0 -339 q0 -47 -20 -67 q-18 -19 -62 -21 q0 19 -11 41 q-9 19 -30 26 l6 25 q8 -1 15 -1 q9 4 9 15 l0 139 l-26 -6 l-7 -1 l0 -113 q0 -18 -8 -32 q-7 -14 -25 -21 l-47 40 l0 15 q8 7 8 19 l0 79 l-22 -4 l-12 13 q-10 -67 -38 -124 q-41 -81 -111 -127 l-20 14 Z" /><glyph glyph-name="" unicode="&#x8be6;" d="M190 670 l12 22 q50 3 92 -4 q49 -11 66 -34 q15 -21 9 -47 q-5 -21 -23 -47 l-40 -8 q-15 31 -47 64 q-33 35 -69 54 ZM446 672 l18 23 q53 -10 87 -27 q32 -16 47 -41 q15 -27 2 -57 q-9 -21 -28 -38 l-40 -5 q-9 36 -38 83 q-26 40 -48 62 ZM630 547 q3 5 8 14 q22 37 30 56 q9 20 21 63 q5 16 -5 40 l35 27 l96 -46 q6 -4 3 -13 q-24 -42 -68 -83 q-41 -39 -98 -74 l-22 16 ZM168 77 l22 34 q19 -11 40 0 l2 1 l0 272 l-122 -40 l-22 17 q2 0 5 1 q9 2 24 6 l112 38 q13 4 40 29 q18 17 25 28 q5 6 11 5 l58 -26 q-1 -8 -6 -12 q-10 -7 -20 -11 l0 -252 l82 42 l17 -18 l-153 -186 q-21 -22 -39 -6 l-76 78 ZM448 367 q15 2 47 7 q10 1 14 2 l53 9 l0 25 q0 26 -3 38 q-3 15 -11 31 l-115 -18 l-19 20 q18 0 53 5 q3 1 5 1 q114 17 228 38 q19 3 45 15 q19 8 31 20 q6 2 11 1 l45 -27 q-2 -7 -9 -9 q-7 -3 -24 -5 q-3 -1 -4 -1 l-194 -31 l80 -34 q-1 -10 -4 -17 q-4 -10 -6 -19 q0 -1 0 -2 q-2 -5 -2 -12 l6 2 q12 1 26 9 q13 6 25 19 q6 3 9 2 l47 -18 q0 -7 -8 -10 q-15 -8 -30 -10 l-75 -13 l0 -99 l115 18 q38 5 54 16 l26 20 q5 4 11 1 l49 -29 q-1 -6 -9 -9 q-7 -3 -25 -6 q-1 0 -2 0 l-219 -32 l0 -276 q0 -24 -12 -40 q-14 -18 -41 -24 l-66 77 l0 26 q12 12 12 32 l0 190 l-164 -24 l-19 20 q28 1 58 6 l125 18 l0 96 l-96 -17 l-18 18 Z" /><glyph glyph-name="" unicode="&#x8bf7;" d="M166 666 l10 24 q50 7 91 3 q52 -6 69 -28 q17 -18 13 -46 q-4 -24 -18 -50 l-39 -10 q-21 33 -53 60 q-37 32 -73 47 ZM418 341 l28 29 l104 -55 q0 -8 -4 -15 q-1 -3 -2 -8 q-1 -3 -1 -4 q0 -1 0 -2 q-2 -9 -2 -16 l0 -16 l28 3 q7 2 22 10 q2 2 5 5 q4 3 11 8 q4 5 11 2 l34 -21 q0 -6 -7 -10 q-6 -4 -22 -7 q-2 0 -3 0 l-79 -9 l0 -75 q15 1 30 4 q11 2 22 10 l16 12 q7 4 11 2 l34 -21 q0 -7 -7 -10 q-6 -4 -22 -7 q-2 0 -3 0 l-81 -10 l0 -110 q0 -27 -13 -44 q-15 -18 -45 -21 l-59 65 l0 24 q9 9 9 26 l0 191 q0 3 0 9 q1 21 -2 31 q-4 20 -13 30 ZM539 352 l34 5 q3 0 9 1 q29 5 67 12 q21 5 34 17 l16 15 q6 5 14 2 l77 -43 q3 -3 -3 -16 l-8 -20 q-5 -13 -5 -24 l0 -277 q0 -47 -19 -66 q-18 -23 -69 -22 q-2 34 -24 52 q-22 18 -50 20 l3 25 q31 -2 39 4 q12 7 12 34 l0 281 l-106 -18 l-21 18 ZM152 113 l20 35 l3 0 q21 -3 39 6 l0 258 l-112 -36 l-22 17 q2 0 5 1 q9 2 24 6 q54 16 101 33 q12 3 41 29 q14 13 25 28 q5 6 11 5 l58 -26 q-1 -6 -7 -12 q-8 -8 -19 -11 l0 -231 l75 43 l18 -18 l-141 -192 q-18 -22 -36 -8 l-83 73 ZM510 746 l29 28 l104 -52 q0 -8 -4 -15 l-3 -13 q-2 -14 -2 -20 l0 -30 l28 6 q18 3 29 13 q9 6 18 17 q5 3 10 2 l44 -19 q0 -6 -5 -9 q-6 -6 -25 -11 q-2 -1 -3 -1 l-96 -19 l0 -76 q1 1 4 1 q13 2 26 9 q13 8 25 19 q4 3 9 2 l44 -17 q0 -6 -4 -9 q-13 -10 -31 -13 l-73 -13 l0 -85 q53 8 105 17 q37 7 56 15 q22 11 36 26 q3 3 9 1 l53 -22 q-1 -6 -6 -9 q-11 -9 -36 -12 l-489 -77 l-20 18 q2 0 5 1 q24 2 53 6 q63 9 126 19 l0 84 l-69 -11 l-17 18 l40 5 l46 7 l0 75 l-102 -19 l-17 18 l47 8 q36 8 72 14 l0 55 q0 4 0 10 q1 19 -1 28 q-3 17 -15 30 Z" /><glyph glyph-name="" unicode="&#x8c01;" d="M632 656 l8 24 l59 4 q38 -2 57 -16 q20 -15 18 -41 q-2 -16 -17 -43 l-39 -11 q-13 24 -33 43 q-23 24 -53 40 ZM159 685 l13 22 q50 2 91 -8 q49 -11 65 -36 q14 -19 7 -47 q-6 -21 -24 -46 l-40 -7 q-18 38 -45 66 q-30 33 -67 56 ZM145 95 l20 35 q18 -4 37 4 l0 283 l-114 -33 l-18 19 q24 5 53 14 l83 24 q15 5 42 28 q19 17 26 27 q4 4 11 3 l57 -26 q-1 -8 -7 -12 q-11 -8 -28 -13 l0 -256 l108 61 l17 -18 q-81 -104 -165 -201 q-19 -20 -37 -6 l-85 67 ZM556 379 q11 1 31 3 q9 1 14 2 l45 6 l0 44 q0 26 -2 38 q-1 13 -9 25 l-80 -15 l-22 19 q23 1 47 6 l171 32 q9 1 23 12 q12 8 22 20 q4 3 9 2 l53 -21 q1 -8 -5 -10 q-18 -8 -37 -11 l-133 -25 l71 -25 q0 -8 -4 -15 q-1 -3 -2 -8 q-1 -3 -1 -4 q0 -1 0 -2 q-2 -9 -2 -16 l0 -29 l16 11 q10 7 19 15 q3 3 9 1 l52 -21 q0 -6 -5 -9 q-11 -6 -32 -9 q-3 -1 -5 -1 l-54 -8 l0 -110 q8 3 18 10 q1 1 4 3 q9 6 15 12 q3 3 9 1 l51 -22 q0 -7 -8 -11 q-10 -5 -34 -7 l-55 -8 l0 -110 l70 9 q15 1 35 14 q6 3 15 12 q8 8 14 5 l51 -25 q0 -7 -5 -10 q-12 -7 -37 -9 l-324 -38 l-14 15 l0 -118 q1 -26 -16 -39 q-13 -13 -42 -16 l-56 64 l0 25 q9 9 9 25 l0 342 q0 7 -1 23 q-1 4 -1 7 q-39 -37 -87 -73 l-19 18 q69 97 116 193 q37 75 62 150 q5 16 3 30 q0 5 -6 17 l32 24 l89 -50 q13 -8 6 -23 q-54 -109 -113 -189 q-21 -28 -44 -55 l77 -33 q0 -8 -4 -15 q-1 -3 -2 -8 q-1 -3 -1 -4 q0 -1 0 -2 q-2 -9 -2 -16 l0 -270 q14 0 41 3 l55 6 l0 108 l-71 -9 l-18 19 q28 2 45 4 l44 5 l0 111 l-71 -11 l-19 19 Z" /><glyph glyph-name="" unicode="&#x8d8a;" d="M700 633 l11 25 q2 0 6 0 q39 3 62 -1 q25 -4 41 -15 q20 -15 19 -40 q-1 -17 -14 -37 l-30 -14 q-25 29 -45 46 q-22 19 -50 36 ZM609 155 q47 36 93 101 l0 2 q-46 92 -75 203 l-14 -4 l-2 -14 q-1 -8 -4 -15 q-2 -9 -2 -18 l2 -107 q21 13 40 24 l17 -19 l-90 -140 q-22 -27 -47 -11 l-55 44 l6 37 q15 2 39 13 l-2 185 q0 12 -3 28 q-2 17 -9 31 l21 12 l70 -37 q2 1 5 2 q9 2 23 8 q-3 11 -5 22 q-20 87 -27 145 q-1 21 -12 40 q-10 19 -24 30 l20 31 l102 -39 q1 -4 -1 -17 q2 10 0 -2 l-3 -23 q-2 -16 0 -26 q10 -56 22 -108 l6 -26 q3 0 6 2 q12 3 29 21 q11 11 18 20 q3 3 8 2 l48 -15 q0 -4 -3 -7 q0 -1 -1 -1 q-12 -11 -35 -18 l-65 -23 q22 -82 48 -141 l9 28 q8 40 -4 62 l27 24 l66 -39 q8 -7 6 -17 q-25 -75 -66 -132 q24 -39 54 -74 q20 -22 41 -2 q22 20 36 43 l19 -16 q-21 -27 -24 -60 q-5 -29 13 -61 q-20 -27 -51 -25 q-30 3 -66 31 q-43 33 -83 97 q-37 -34 -101 -72 l-20 21 ZM263 707 l29 31 l98 -55 q0 -3 -3 -12 q-1 -2 -1 -3 l-3 -12 q-2 -8 -2 -18 l0 -107 q9 4 17 12 l20 18 q3 3 9 1 l46 -20 q-1 -6 -6 -9 q-11 -8 -37 -13 l-49 -11 l0 -99 l8 2 q15 3 32 15 q5 4 15 13 q5 5 8 7 q5 4 10 3 l52 -21 q-1 -6 -4 -9 q-10 -6 -29 -10 q-5 -1 -8 -2 l-113 -23 l68 -39 q0 -8 -4 -15 q-3 -6 -4 -12 q-1 -6 -1 -18 l0 -2 l12 7 q14 10 20 16 q5 3 9 2 l48 -21 q-2 -8 -11 -12 q-10 -5 -28 -8 l-50 -9 l0 -122 q23 -8 69 -22 q17 -5 25 -8 q123 -39 247 -58 q115 -20 185 -23 l-2 -25 q-41 0 -99 -23 q-38 -14 -64 -34 q-22 -18 -65 -8 q-59 15 -136 57 l-276 156 q-26 13 -47 21 q-20 -35 -44 -63 q-43 -52 -119 -104 l-18 18 q41 56 63 102 q26 56 32 103 q4 18 1 34 q-1 14 -7 26 l28 24 l89 -39 q14 -6 9 -25 q-10 -28 -22 -53 q27 -8 54 -17 l0 133 q0 15 -3 32 q-3 10 -7 19 l-177 -35 l-21 17 q2 0 7 1 q22 3 51 9 l120 24 l0 97 l-81 -17 l-19 17 q23 2 49 8 l51 12 l0 131 q0 18 -4 35 q-5 21 -17 33 Z" /><glyph glyph-name="" unicode="&#x8f6e;" d="M249 449 q-4 -12 -13 -36 q-6 -20 -25 -72 l46 9 l0 44 q0 13 -2 30 q-1 13 -6 25 ZM371 300 q72 90 112 176 q36 76 57 175 q2 11 -1 24 q-1 11 -7 20 l25 26 l97 -34 q23 -8 14 -31 q-3 -7 -8 -20 q-8 -21 -24 -57 q49 -47 126 -93 q112 -67 183 -77 l-3 -26 q-48 -7 -73 -21 q-23 -12 -41 -33 q-14 -18 -37 0 q-47 36 -113 124 q-35 45 -62 87 q-26 -51 -51 -86 q-66 -97 -175 -171 l-19 17 ZM485 339 l29 29 l101 -50 q-2 -12 -5 -18 q-4 -11 -6 -21 q-3 -14 -3 -27 l0 -3 q29 23 59 58 q15 20 7 41 l34 21 l80 -74 q6 -11 -4 -22 q-71 -48 -178 -80 l-1 -70 q-3 -56 48 -56 q31 -1 48 0 q19 1 44 5 q43 7 60 26 q14 14 26 51 l26 -7 q-12 -30 -4 -55 q6 -17 32 -27 q-10 -37 -41 -57 q-32 -20 -100 -25 q-69 -7 -141 -1 q-109 11 -106 145 l4 177 q0 13 -1 23 q-2 8 -8 17 ZM108 315 l5 25 q12 3 16 16 q31 99 45 149 l-56 -9 l-18 18 l48 7 q16 3 31 5 q22 80 40 154 q4 15 4 27 q-1 8 -9 24 l27 24 l72 -42 q14 -9 7 -32 q-18 -67 -41 -139 l36 7 q16 3 32 17 l18 17 q3 3 12 2 l48 -20 q2 -9 -12 -15 q-8 -4 -30 -8 l-110 -19 l-19 -57 l21 15 l85 -38 q0 -7 -5 -20 l-3 -16 q-2 -14 -2 -18 l0 -8 l12 14 q3 4 10 2 l39 -19 q1 -6 -9 -12 q-9 -5 -24 -8 l-1 0 l-27 -6 l0 -100 l78 23 l9 -24 l-87 -48 l0 -188 q0 -25 -15 -40 q-10 -12 -39 -15 l-52 60 l0 25 q13 10 13 29 l0 80 l-115 -58 q-24 -11 -35 3 l-49 63 l19 32 q20 -7 45 -1 q53 12 135 34 l0 104 l-54 -11 l-1 -4 q-5 -15 -17 -27 q-13 -11 -28 -15 l-49 41 Z" /><glyph glyph-name="" unicode="&#x8fd0;" d="M422 646 l45 6 q87 11 166 25 q18 3 33 14 q9 5 19 15 q3 3 12 3 l47 -21 q1 -9 -10 -14 q-8 -4 -23 -7 l-271 -39 l-18 18 ZM128 666 l13 24 q52 0 90 -14 q30 -11 47 -30 q17 -20 14 -44 q-2 -22 -23 -52 l-40 -9 q-22 50 -43 73 q-24 28 -58 52 ZM364 228 l21 22 q15 -8 29 -11 q48 62 85 145 q9 19 9 40 q1 13 -1 27 l-148 -18 l-20 19 q26 1 44 4 q10 1 31 4 q216 25 312 37 q17 3 32 13 q12 9 20 17 q3 3 12 2 l47 -22 q1 -7 -10 -13 q-8 -4 -25 -8 q-2 0 -3 0 l-240 -29 l65 -37 q14 -9 2 -29 q-73 -91 -157 -152 q131 15 206 26 q-23 33 -50 61 l16 20 q55 -15 101 -40 q39 -24 55 -49 q18 -29 8 -62 q-9 -26 -34 -50 l-40 -4 q-12 48 -37 92 q-111 -47 -242 -98 q-28 -11 -37 6 l-51 87 ZM79 402 l38 6 l79 16 q14 3 27 16 l17 19 q7 7 18 2 l77 -49 q0 -6 -5 -12 l-14 -15 q-2 -2 -5 -5 q-9 -8 -11 -12 q-27 -47 -49 -79 q29 -31 31 -79 q1 -39 -19 -78 q63 -2 179 -20 q161 -26 263 -33 q120 -9 238 3 l3 -27 q-60 -12 -94 -31 q-35 -20 -55 -54 q-11 -19 -45 -11 q-49 11 -150 42 q-10 3 -15 4 q-45 13 -168 52 q-91 29 -153 36 q-61 6 -109 -8 q-24 -7 -45 -23 l-15 19 l34 40 q31 7 75 10 q3 30 -5 60 q-7 30 -26 55 q-11 17 -36 25 l5 25 l55 -3 q4 66 5 111 l-106 -20 l-19 18 Z" /><glyph glyph-name="" unicode="&#x8fde;" d="M145 649 l13 24 q52 0 90 -14 q30 -11 47 -30 q15 -18 14 -44 q-2 -22 -23 -52 l-40 -9 q-22 50 -43 73 q-24 28 -58 52 ZM95 403 l39 7 q37 7 74 16 q9 2 27 16 q4 3 13 13 q3 3 5 5 q7 7 16 3 l72 -50 q0 -6 -5 -12 l-14 -15 q-2 -2 -5 -5 q-9 -8 -11 -12 q-3 -5 -8 -13 q-24 -41 -41 -65 q29 -31 31 -80 q1 -40 -20 -80 q63 -2 174 -19 q170 -28 263 -34 q51 -4 104 -3 q48 0 136 6 l2 -27 q-66 -12 -99 -31 q-38 -21 -52 -54 q-8 -20 -42 -10 q-57 12 -167 46 q-45 13 -168 52 q-98 31 -160 35 q-66 5 -114 -9 q-24 -7 -45 -23 l-15 19 l34 40 q37 9 93 12 q2 30 -5 61 q-7 30 -26 55 q-11 17 -36 25 l5 25 l55 -3 l4 111 l-96 -20 l-18 18 ZM358 388 l6 21 q18 0 28 18 q31 50 63 125 l-68 -11 l-17 19 q18 2 38 5 l56 8 q18 47 32 88 q6 20 5 33 q0 15 -7 32 l23 16 l92 -45 q11 -7 6 -21 q-16 -41 -37 -84 q10 2 30 5 q37 6 54 9 q8 1 26 11 q13 8 21 16 q5 3 10 2 l46 -19 q0 -6 -7 -10 q-9 -7 -28 -10 l-163 -26 q-39 -81 -83 -151 l73 9 l0 13 q0 20 -4 38 q-4 22 -11 31 l29 29 l99 -34 q0 -6 -3 -14 q-3 -9 -4 -19 q-2 -16 -2 -24 l0 -6 l22 3 q12 1 32 14 q13 8 22 16 q4 3 10 1 l45 -26 q0 -4 -6 -9 q0 1 -1 0 q-9 -5 -28 -7 l-96 -13 l0 -100 l86 11 q23 3 40 11 q15 7 27 22 q4 4 13 2 l53 -28 q-1 -8 -15 -13 q-8 -3 -25 -4 q-3 -1 -4 -1 l-175 -21 l0 -134 q0 -27 -16 -45 q-15 -18 -40 -21 l-60 55 l0 25 q12 12 12 34 l0 74 l-210 -24 l-19 21 q19 1 54 4 q5 1 8 1 q51 6 151 17 q11 1 16 2 l0 99 l-86 -11 l-9 -13 q-9 -15 -24 -25 q-18 -11 -34 -11 l-46 40 Z" /><glyph glyph-name="" unicode="&#x9053;" d="M396 668 l7 25 q37 9 75 3 q39 -5 58 -28 q13 -18 10 -41 q-2 -24 -12 -44 l-39 -9 q-17 33 -45 57 q-24 21 -54 37 ZM122 611 l11 23 q56 3 85 -3 q41 -7 59 -26 q16 -18 18 -43 q-1 -31 -23 -57 l-39 -12 q-22 44 -49 69 q-26 27 -62 49 ZM569 607 q46 48 71 94 q8 16 1 34 l34 22 l77 -57 q9 -8 -1 -19 q-69 -62 -165 -94 l-17 20 ZM90 363 l28 7 l77 22 q7 2 18 13 q1 1 2 2 q9 7 16 18 q6 8 17 4 l81 -42 q0 -9 -4 -11 l-8 -9 l-5 -8 q-24 -48 -45 -99 q24 -34 26 -75 q1 -43 -26 -83 q83 -8 166 -20 q146 -22 247 -29 q142 -10 254 2 l3 -24 q-64 -15 -92 -33 q-33 -19 -54 -49 q-16 -21 -52 -14 q-46 11 -137 39 q-16 5 -24 7 q-15 5 -44 14 q-81 25 -124 36 q-101 28 -175 34 q-56 5 -87 -4 q-24 -7 -45 -23 l-15 19 l34 37 q42 8 84 11 q3 27 -2 58 q-5 30 -16 55 q-10 20 -38 28 l5 23 l60 -3 q0 34 -2 95 q-1 9 -1 13 l-106 -28 l-16 17 ZM490 431 q6 0 26 2 q4 28 0 60 l0 2 q-5 23 -9 30 l-159 -26 l-21 19 q17 1 49 6 q7 1 10 1 l304 50 q33 6 56 15 q18 8 37 26 q3 3 9 1 l53 -21 q-1 -8 -6 -9 q-13 -9 -37 -12 l-241 -41 l46 -7 q25 -6 13 -28 q-31 -36 -60 -58 l78 15 q18 4 31 13 q10 6 19 15 q6 6 13 2 l75 -50 q-2 -5 -5 -9 q-7 -7 -11 -14 q-7 -12 -7 -21 l-4 -239 q0 -27 -15 -44 q-13 -14 -37 -20 l-52 78 l-132 -14 q0 -21 -6 -34 q-7 -17 -30 -21 l-73 46 l0 20 q6 6 6 20 l-7 189 q-2 26 -18 41 l26 31 l97 -41 l-2 -26 l0 -31 q5 1 14 2 q31 4 45 7 q8 2 14 8 l11 10 q3 3 6 1 l39 -15 q2 -6 -3 -9 q-12 -7 -30 -9 l-96 -14 l3 -62 q33 4 59 10 q8 2 14 8 l11 10 q3 3 6 1 l39 -15 q2 -6 -3 -9 q-12 -7 -30 -9 l-96 -14 l3 -76 q62 5 127 14 q6 0 11 2 l3 6 l6 245 l-154 -26 l-15 18 Z" /><glyph glyph-name="" unicode="&#x9621;" d="M140 607 l15 36 q21 -9 48 -5 q39 7 97 22 q5 1 21 9 q9 5 15 11 q7 7 17 1 l83 -59 q-2 -8 -7 -12 q-2 -1 -4 -3 q-13 -10 -20 -17 q-30 -34 -99 -102 q49 -21 76 -62 q24 -35 24 -80 q0 -41 -21 -68 q-23 -30 -65 -32 q-3 23 -20 47 q-22 28 -45 40 l9 24 l41 -8 q9 30 3 67 q-9 46 -35 68 q16 49 40 134 q3 9 4 14 q-28 -22 -69 -58 q-15 -12 -23 -19 q-10 -8 -19 -1 l-66 53 ZM129 526 l25 30 l104 -54 q0 -8 -4 -15 q-1 -3 -2 -8 q-1 -3 -1 -4 q0 -1 0 -2 q-2 -9 -2 -16 l0 -396 q0 -25 -16 -40 q-13 -13 -42 -16 l-55 65 l0 25 q9 9 9 25 l0 338 q0 4 0 10 q1 19 -1 28 q-3 17 -15 30 ZM405 406 q7 1 20 2 q25 2 40 4 l108 14 l0 74 q0 4 0 10 q1 20 -1 29 q-3 16 -13 27 q-59 -8 -105 -8 l-7 24 q73 24 114 42 q60 26 98 55 q15 11 19 34 l39 10 l60 -70 q21 -25 -10 -37 q-62 -24 -153 -41 l76 -36 q0 -8 -3 -15 q-2 -5 -4 -16 q-2 -16 -2 -20 l0 -48 l89 12 q2 0 6 1 q37 5 54 13 q20 10 34 23 q3 3 9 1 l52 -24 q-1 -6 -6 -9 q-11 -6 -32 -9 q-3 -1 -5 -1 l-201 -27 l0 -418 q0 -26 -16 -39 q-13 -13 -42 -16 l-59 64 l0 25 q9 9 9 25 l0 345 l-148 -20 l-20 20 Z" /><glyph glyph-name="" unicode="&#x964c;" d="M554 405 l-22 -15 l41 -21 q0 -7 -3 -15 q-1 -2 -1 -3 l-3 -15 q-2 -14 -2 -20 l0 -46 q21 3 49 9 q9 3 19 11 q1 1 4 3 q8 6 10 9 q4 3 10 2 l43 -21 q1 -6 -8 -10 q-7 -3 -23 -6 q-3 -1 -4 -1 l-100 -16 l0 -143 l138 13 l8 1 q5 8 5 20 l0 270 l-143 -23 l-18 17 ZM163 631 l21 28 q25 -8 43 -5 q41 5 106 18 q13 2 25 8 q9 4 16 11 q8 8 15 1 l72 -66 q2 -8 -6 -13 q-1 -1 -4 -2 q-14 -9 -21 -16 q-54 -52 -111 -100 q49 -23 77 -63 q23 -37 24 -85 q0 -39 -20 -65 q-21 -27 -67 -32 q-2 22 -20 48 q-23 31 -45 44 l9 24 l40 -9 q8 29 2 63 q-8 48 -33 71 q20 45 52 138 q-33 -27 -89 -66 q-13 -8 -21 0 l-65 68 ZM144 541 l29 28 l100 -54 q0 -7 -3 -14 l-5 -20 q-1 -7 -1 -24 l0 -414 q0 -26 -16 -42 q-13 -13 -42 -16 l-55 68 l0 25 q9 9 9 27 l0 364 q0 25 -3 39 q-3 22 -13 33 ZM444 393 l28 27 l30 -15 q22 38 33 65 q16 36 20 60 q5 23 -1 40 l-112 -15 l-18 22 q36 1 59 5 l296 39 q26 5 43 16 q11 6 20 16 q4 3 10 2 l50 -23 q0 -7 -9 -12 q-11 -6 -25 -8 l-262 -35 l65 -32 q8 -7 3 -20 q-34 -48 -69 -79 q-20 -21 -47 -38 q19 2 33 4 l99 17 q17 3 36 14 q14 9 22 18 q10 10 19 2 l71 -57 q-3 -9 -7 -15 l-9 -14 q-4 -10 -4 -22 l0 -239 q0 -26 -13 -48 q-16 -24 -38 -27 l-58 59 l-145 -15 q-2 -21 -14 -37 q-13 -18 -34 -21 l-65 68 l0 25 q11 10 10 30 l0 183 q0 19 -5 35 q-4 12 -12 25 Z" /><glyph glyph-name="" unicode="&#x9884;" d="M695 136 l13 22 q78 -11 120 -35 q32 -18 45 -36 q15 -19 15 -46 q0 -28 -21 -57 l-39 -7 q-22 38 -58 82 q-41 51 -75 77 ZM638 506 l36 5 q16 3 49 10 q14 3 21 5 q16 3 26 10 q12 7 22 18 q10 11 21 2 l60 -44 q1 -5 -5 -17 q-6 -12 -10 -24 q-3 -12 -4 -25 l0 -203 q0 -31 -16 -52 q-14 -17 -37 -21 l-46 49 l0 20 q8 8 9 26 l0 243 l-111 -20 l-15 18 ZM120 653 l28 28 q21 -11 44 -9 q90 7 179 18 l-6 14 l28 28 l86 -49 q18 -11 5 -26 q-80 -77 -143 -126 l7 -6 q16 -20 8 -44 q-7 -17 -20 -30 l-40 -5 q-13 23 -28 41 q-19 23 -51 46 l11 22 q40 0 63 -4 q9 -1 17 -4 q28 51 53 105 q-81 -39 -164 -75 q-19 -11 -29 4 l-48 72 ZM419 7 q98 45 141 95 q45 49 58 124 q10 57 10 136 q0 33 -14 46 l24 32 l80 -24 q13 -4 13 -21 q0 -105 -15 -179 q-20 -100 -104 -160 q-64 -46 -180 -71 l-13 22 ZM496 490 l28 28 l41 -20 q4 11 11 31 q3 9 4 13 q9 25 16 57 q6 23 0 39 l-89 -13 l-17 19 q14 1 42 4 q-18 -2 5 1 q125 18 249 38 q12 2 20 8 q15 8 30 19 q4 3 7 1 l43 -20 q0 -5 -3 -8 q-8 -6 -26 -9 q-3 -1 -4 -1 l-206 -31 l50 -20 q21 -8 8 -27 q-25 -39 -52 -72 q-24 -29 -48 -49 l-4 -16 q-3 -6 -3 -17 q-1 -9 -1 -25 l0 -194 q1 -26 -11 -44 q-10 -17 -37 -22 l-52 48 l0 20 q10 11 10 35 l0 167 q0 16 -2 29 q-1 12 -9 31 ZM187 58 l5 25 q18 -2 35 -2 q32 -1 31 26 l0 227 q0 23 -4 41 q-4 14 -11 29 l-119 -23 l-18 19 l42 6 l224 43 q21 5 32 13 q13 8 28 25 q6 6 13 2 l56 -60 q-2 -7 -11 -14 l-20 -14 q-11 -7 -20 -16 l-42 -47 l-22 8 l6 87 l-97 -19 l76 -40 q-1 -10 -4 -20 l-4 -18 q-3 -11 -3 -23 l0 -252 q0 -43 -26 -67 q-28 -26 -78 -26 q2 36 -15 58 q-19 24 -54 32 Z" /><glyph glyph-name="" unicode="&#x9988;" d="M733 634 l-43 -7 l0 -84 q9 2 26 4 q2 0 3 0 l14 87 ZM666 77 l13 22 q54 -10 93 -27 q44 -18 63 -44 q21 -28 9 -59 q-7 -20 -25 -39 l-38 -2 q-15 34 -40 69 q-35 50 -75 80 ZM439 344 l22 21 l96 -45 l-6 -19 q-2 -7 -2 -16 q-1 -9 -1 -18 l0 -135 q0 -27 -12 -42 q-12 -16 -32 -19 l-65 51 l1 22 q10 10 10 30 l0 110 q0 17 -1 32 q-1 13 -10 28 ZM558 345 l44 4 l113 16 q9 1 24 10 q2 1 3 1 q5 3 16 12 q5 4 8 6 q10 7 20 1 l70 -42 q1 -8 -4 -16 q-2 -5 -8 -12 q-3 -3 -4 -4 q-10 -13 -10 -27 l0 -141 q0 -32 -12 -49 q-12 -15 -34 -18 l-62 50 l1 22 q8 8 9 26 l0 163 l-157 -22 l-17 20 ZM365 -46 q88 31 130 62 q58 41 82 110 q13 36 13 76 q0 23 -4 43 q-4 17 -13 29 l21 24 l83 -26 q14 -4 14 -26 q-1 -79 -24 -138 q-33 -88 -121 -130 q-60 -28 -168 -46 l-13 22 ZM172 47 l13 38 q18 -2 36 4 l0 193 q0 4 0 10 q1 19 -1 28 q-3 17 -15 30 l29 31 l98 -55 q0 -8 -4 -15 q-1 -3 -2 -8 q-1 -3 -1 -4 q0 -1 0 -2 q-2 -9 -2 -16 l0 -136 q25 14 74 46 q13 8 19 12 l16 -19 q-63 -75 -147 -188 q-17 -21 -39 -6 l-74 57 ZM67 246 q62 104 104 209 q32 86 48 151 q5 22 5 39 q2 18 -1 34 l34 22 l83 -43 q16 -8 7 -29 q-29 -70 -58 -126 l34 9 q19 5 36 15 q7 4 22 15 q3 3 5 4 q9 5 15 0 l66 -73 q-4 -8 -19 -13 q-20 -7 -34 -16 q-7 -4 -23 -17 q-6 -5 -10 -8 q-14 -11 -25 -21 l-26 -20 l-22 11 l35 104 l-68 -16 q-12 -23 -26 -45 q-83 -137 -164 -204 l-18 18 ZM437 611 l20 31 l96 -19 q1 -3 0 -9 q0 -4 0 -7 q-1 -7 1 -16 q0 -12 2 -18 l10 -48 l22 4 l0 82 l-10 -1 l-17 18 q14 1 27 4 l0 29 q0 4 0 10 q1 19 -1 28 q-3 17 -15 30 l29 31 l98 -48 q0 -8 -4 -15 q-1 -3 -2 -8 q-1 -3 -1 -4 q0 -1 0 -2 q-2 -9 -2 -16 l0 -20 q15 2 30 5 q8 1 22 9 l23 20 q11 11 22 3 l66 -45 q-3 -7 -9 -12 q-9 -6 -16 -14 q-7 -9 -9 -19 l-3 -18 l37 -20 q0 -7 -9 -11 q-10 -3 -29 -7 q-2 0 -3 0 l-122 -17 l0 -71 l152 22 q7 1 25 13 l17 16 q5 3 10 2 l49 -23 q0 -5 -3 -8 q-9 -8 -30 -11 l-510 -75 l-17 19 l60 8 l145 22 l0 71 l-20 -2 q0 -12 -7 -24 q-10 -15 -25 -21 l-64 25 l-2 17 q5 8 4 20 l-12 55 q-3 10 -10 21 q-7 9 -15 14 Z" /><glyph glyph-name="" unicode="&#xff0c;" d="M311 25 q-3 -37 -19 -66 q-15 -30 -45 -57 q-28 -26 -59 -46 l-14 17 q35 26 57 57 q20 29 23 54 q2 17 -12 18 q-38 0 -56 17 q-16 15 -18 44 q1 32 23 52 q27 22 63 15 q37 -8 51 -44 q9 -26 6 -61 Z" /><glyph glyph-name="" unicode="&#xff1f;" d="M318 39 q-2 -52 -59 -54 q-57 1 -58 53 q2 53 58 55 q58 -2 59 -54 ZM422 482 q0 -57 -31 -106 q-27 -43 -86 -89 q-27 -21 -34 -54 q-7 -31 -10 -70 l-21 0 q-15 38 -19 71 q-3 25 6 46 q8 17 35 43 q33 33 47 80 q10 33 10 82 q0 49 -9 75 q-17 51 -72 49 q-41 0 -69 -22 q-21 -18 -33 -51 q-9 -23 -10 -45 l-20 0 l0 64 q18 34 45 53 q36 26 87 26 q86 0 129 -29 q55 -39 55 -123 Z" /></font>
</defs>
</svg>
